Kufam-Italic.ufo
<glyph name="exclam" format="2">
  <advance width="296"/>
  <unicode hex="0021"/>
  <note>
exclam
</note>
  <outline>
    <contour>
      <point x="100" y="200" type="curve"/>
      <point x="172" y="200" type="line"/>
      <point x="184" y="236"/>
      <point x="202" y="299"/>
      <point x="224" y="416" type="curve" smooth="yes"/>
      <point x="252" y="564" type="line" smooth="yes"/>
      <point x="256" y="585"/>
      <point x="273" y="676"/>
      <point x="288" y="712" type="curve"/>
      <point x="288" y="720" type="line"/>
      <point x="188" y="720" type="line"/>
      <point x="132" y="416" type="line" smooth="yes"/>
      <point x="112" y="309"/>
      <point x="104" y="256"/>
    </contour>
    <contour>
      <point x="102" y="-8" type="curve" smooth="yes"/>
      <point x="144" y="-8"/>
      <point x="172" y="32"/>
      <point x="172" y="68" type="curve" smooth="yes"/>
      <point x="172" y="100"/>
      <point x="152" y="120"/>
      <point x="118" y="120" type="curve" smooth="yes"/>
      <point x="74" y="120"/>
      <point x="48" y="80"/>
      <point x="48" y="44" type="curve" smooth="yes"/>
      <point x="48" y="12"/>
      <point x="66" y="-8"/>
    </contour>
  </outline>
</glyph>
<glyph name="dollar" format="2">
  <advance width="616"/>
  <unicode hex="0024"/>
  <note>
dollar
</note>
  <outline>
    <contour>
      <point x="360" y="664" type="line"/>
      <point x="444" y="664" type="line"/>
      <point x="482" y="860" type="line"/>
      <point x="398" y="860" type="line"/>
    </contour>
    <contour>
      <point x="44" y="24" type="line"/>
      <point x="92" y="2"/>
      <point x="160" y="-12"/>
      <point x="244" y="-12" type="curve" smooth="yes"/>
      <point x="420" y="-12"/>
      <point x="536" y="72"/>
      <point x="536" y="212" type="curve" smooth="yes"/>
      <point x="536" y="308"/>
      <point x="471" y="364"/>
      <point x="380" y="388" type="curve" smooth="yes"/>
      <point x="320" y="404" type="line" smooth="yes"/>
      <point x="256" y="421"/>
      <point x="220" y="440"/>
      <point x="220" y="512" type="curve" smooth="yes"/>
      <point x="220" y="600"/>
      <point x="312" y="648"/>
      <point x="432" y="648" type="curve" smooth="yes"/>
      <point x="496" y="648"/>
      <point x="541" y="633"/>
      <point x="568" y="620" type="curve"/>
      <point x="576" y="620" type="line"/>
      <point x="594" y="712" type="line"/>
      <point x="556" y="724"/>
      <point x="495" y="732"/>
      <point x="440" y="732" type="curve" smooth="yes"/>
      <point x="252" y="732"/>
      <point x="128" y="644"/>
      <point x="128" y="504" type="curve" smooth="yes"/>
      <point x="128" y="384"/>
      <point x="198" y="348"/>
      <point x="288" y="324" type="curve" smooth="yes"/>
      <point x="348" y="308" type="line" smooth="yes"/>
      <point x="406" y="293"/>
      <point x="440" y="268"/>
      <point x="440" y="204" type="curve" smooth="yes"/>
      <point x="440" y="116"/>
      <point x="360" y="72"/>
      <point x="252" y="72" type="curve" smooth="yes"/>
      <point x="172" y="72"/>
      <point x="110" y="92"/>
      <point x="70" y="116" type="curve"/>
      <point x="62" y="116" type="line"/>
    </contour>
    <contour>
      <point x="238" y="36" type="line"/>
      <point x="200" y="-160" type="line"/>
      <point x="284" y="-160" type="line"/>
      <point x="322" y="36" type="line"/>
    </contour>
  </outline>
</glyph>
<glyph name="quotesingle" format="2">
  <advance width="180"/>
  <unicode hex="0027"/>
  <note>
quotesingle
</note>
  <outline>
    <contour>
      <point x="136" y="720" type="line"/>
      <point x="96" y="484" type="line"/>
      <point x="172" y="484" type="line"/>
      <point x="220" y="720" type="line"/>
    </contour>
  </outline>
</glyph>
<glyph name="plus" format="2">
  <advance width="616"/>
  <unicode hex="002B"/>
  <note>
plus
</note>
  <outline>
    <contour>
      <point x="268" y="72" type="line"/>
      <point x="348" y="72" type="line"/>
      <point x="348" y="560" type="line"/>
      <point x="268" y="560" type="line"/>
    </contour>
    <contour>
      <point x="64" y="276" type="line"/>
      <point x="552" y="276" type="line"/>
      <point x="552" y="356" type="line"/>
      <point x="64" y="356" type="line"/>
    </contour>
  </outline>
</glyph>
<glyph name="hyphen" format="2">
  <advance width="468"/>
  <unicode hex="002D"/>
  <note>
hyphen
</note>
  <outline>
    <contour>
      <point x="92" y="376" type="line"/>
      <point x="76" y="288" type="line"/>
      <point x="408" y="288" type="line"/>
      <point x="424" y="376" type="line"/>
    </contour>
  </outline>
</glyph>
<glyph name="four" format="2">
  <advance width="616"/>
  <unicode hex="0034"/>
  <note>
four
</note>
  <outline>
    <contour>
      <point x="24" y="196" type="line"/>
      <point x="94" y="196" type="line"/>
      <point x="238" y="476" type="line" smooth="yes"/>
      <point x="302" y="601"/>
      <point x="356" y="644"/>
      <point x="448" y="644" type="curve" smooth="yes"/>
      <point x="480" y="644"/>
      <point x="502" y="640"/>
      <point x="520" y="636" type="curve"/>
      <point x="588" y="712" type="line"/>
      <point x="560" y="722"/>
      <point x="514" y="728"/>
      <point x="464" y="728" type="curve" smooth="yes"/>
      <point x="308" y="728"/>
      <point x="228" y="644"/>
      <point x="148" y="488" type="curve" smooth="yes"/>
      <point x="38" y="272" type="line"/>
    </contour>
    <contour>
      <point x="348" y="0" type="line"/>
      <point x="444" y="0" type="line"/>
      <point x="552" y="556" type="line" smooth="yes"/>
      <point x="560" y="596"/>
      <point x="572" y="660"/>
      <point x="588" y="700" type="curve"/>
      <point x="588" y="712" type="line"/>
      <point x="504" y="712" type="line"/>
      <point x="504" y="700" type="line"/>
      <point x="488" y="680"/>
      <point x="473" y="640"/>
      <point x="464" y="596" type="curve" smooth="yes"/>
    </contour>
    <contour>
      <point x="44" y="196" type="line"/>
      <point x="592" y="196" type="line"/>
      <point x="608" y="280" type="line"/>
      <point x="60" y="280" type="line"/>
    </contour>
  </outline>
</glyph>
<glyph name="six" format="2">
  <advance width="616"/>
  <unicode hex="0036"/>
  <note>
six
</note>
  <outline>
    <contour>
      <point x="300" y="-12" type="curve" smooth="yes"/>
      <point x="464" y="-12"/>
      <point x="564" y="110"/>
      <point x="564" y="252" type="curve" smooth="yes"/>
      <point x="564" y="400"/>
      <point x="482" y="468"/>
      <point x="348" y="468" type="curve" smooth="yes"/>
      <point x="260" y="468"/>
      <point x="204" y="432"/>
      <point x="156" y="384" type="curve"/>
      <point x="112" y="292" type="line"/>
      <point x="136" y="292" type="line"/>
      <point x="184" y="348"/>
      <point x="246" y="388"/>
      <point x="326" y="388" type="curve" smooth="yes"/>
      <point x="418" y="388"/>
      <point x="472" y="340"/>
      <point x="472" y="248" type="curve" smooth="yes"/>
      <point x="472" y="164"/>
      <point x="422" y="68"/>
      <point x="304" y="68" type="curve" smooth="yes"/>
      <point x="202" y="68"/>
      <point x="152" y="128"/>
      <point x="152" y="250" type="curve" smooth="yes"/>
      <point x="152" y="405"/>
      <point x="212" y="648"/>
      <point x="442" y="648" type="curve" smooth="yes"/>
      <point x="502" y="648"/>
      <point x="542" y="636"/>
      <point x="568" y="624" type="curve"/>
      <point x="576" y="624" type="line"/>
      <point x="594" y="712" type="line"/>
      <point x="564" y="724"/>
      <point x="512" y="732"/>
      <point x="456" y="732" type="curve" smooth="yes"/>
      <point x="166" y="732"/>
      <point x="56" y="486"/>
      <point x="56" y="250" type="curve" smooth="yes"/>
      <point x="56" y="90"/>
      <point x="138" y="-12"/>
    </contour>
  </outline>
</glyph>
<glyph name="seven" format="2">
  <advance width="616"/>
  <unicode hex="0037"/>
  <note>
seven
</note>
  <outline>
    <contour>
      <point x="106" y="0" type="line"/>
      <point x="206" y="0" type="line"/>
      <point x="578" y="556" type="line" smooth="yes"/>
      <point x="609" y="602"/>
      <point x="634" y="649"/>
      <point x="634" y="698" type="curve" smooth="yes"/>
      <point x="634" y="701"/>
      <point x="634" y="704"/>
      <point x="634" y="708" type="curve"/>
      <point x="622" y="720" type="line"/>
      <point x="554" y="720" type="line"/>
      <point x="554" y="664" type="line"/>
      <point x="106" y="8" type="line"/>
    </contour>
    <contour>
      <point x="150" y="636" type="line"/>
      <point x="578" y="636" type="line"/>
      <point x="594" y="720" type="line"/>
      <point x="166" y="720" type="line"/>
    </contour>
  </outline>
</glyph>
<glyph name="colon" format="2">
  <advance width="280"/>
  <unicode hex="003A"/>
  <note>
colon
</note>
  <outline>
    <contour>
      <point x="174" y="416" type="curve" smooth="yes"/>
      <point x="216" y="416"/>
      <point x="244" y="456"/>
      <point x="244" y="492" type="curve" smooth="yes"/>
      <point x="244" y="524"/>
      <point x="224" y="544"/>
      <point x="190" y="544" type="curve" smooth="yes"/>
      <point x="146" y="544"/>
      <point x="120" y="504"/>
      <point x="120" y="468" type="curve" smooth="yes"/>
      <point x="120" y="436"/>
      <point x="138" y="416"/>
    </contour>
    <contour>
      <point x="94" y="-8" type="curve" smooth="yes"/>
      <point x="136" y="-8"/>
      <point x="164" y="32"/>
      <point x="164" y="68" type="curve" smooth="yes"/>
      <point x="164" y="100"/>
      <point x="144" y="120"/>
      <point x="110" y="120" type="curve" smooth="yes"/>
      <point x="66" y="120"/>
      <point x="40" y="80"/>
      <point x="40" y="44" type="curve" smooth="yes"/>
      <point x="40" y="12"/>
      <point x="58" y="-8"/>
    </contour>
  </outline>
</glyph>
<glyph name="semicolon" format="2">
  <advance width="280"/>
  <unicode hex="003B"/>
  <note>
semicolon
</note>
  <outline>
    <contour>
      <point x="174" y="416" type="curve" smooth="yes"/>
      <point x="216" y="416"/>
      <point x="244" y="456"/>
      <point x="244" y="492" type="curve" smooth="yes"/>
      <point x="244" y="524"/>
      <point x="224" y="544"/>
      <point x="190" y="544" type="curve" smooth="yes"/>
      <point x="146" y="544"/>
      <point x="120" y="504"/>
      <point x="120" y="468" type="curve" smooth="yes"/>
      <point x="120" y="436"/>
      <point x="138" y="416"/>
    </contour>
    <contour>
      <point x="72" y="-12" type="curve"/>
      <point x="-28" y="-148" type="line"/>
      <point x="-28" y="-156" type="line"/>
      <point x="48" y="-156" type="line"/>
      <point x="132" y="-32" type="line" smooth="yes"/>
      <point x="152" y="-2"/>
      <point x="168" y="28"/>
      <point x="168" y="60" type="curve" smooth="yes"/>
      <point x="168" y="96"/>
      <point x="148" y="120"/>
      <point x="112" y="120" type="curve" smooth="yes"/>
      <point x="71" y="120"/>
      <point x="40" y="84"/>
      <point x="40" y="44" type="curve" smooth="yes"/>
      <point x="40" y="8"/>
      <point x="57" y="-5"/>
    </contour>
  </outline>
</glyph>
<glyph name="greater" format="2">
  <advance width="616"/>
  <unicode hex="003E"/>
  <note>
greater
</note>
  <outline>
    <contour>
      <point x="92" y="64" type="line"/>
      <point x="532" y="288" type="line"/>
      <point x="532" y="344" type="line"/>
      <point x="92" y="572" type="line"/>
      <point x="84" y="572" type="line"/>
      <point x="84" y="484" type="line"/>
      <point x="416" y="316" type="line"/>
      <point x="84" y="152" type="line"/>
      <point x="84" y="64" type="line"/>
    </contour>
  </outline>
</glyph>
<glyph name="question" format="2">
  <advance width="500"/>
  <unicode hex="003F"/>
  <note>
question
</note>
  <outline>
    <contour>
      <point x="148" y="260" type="curve" smooth="yes"/>
      <point x="132" y="188" type="line"/>
      <point x="224" y="188" type="line"/>
      <point x="240" y="256" type="line" smooth="yes"/>
      <point x="246" y="280"/>
      <point x="254" y="310"/>
      <point x="288" y="328" type="curve" smooth="yes"/>
      <point x="340" y="356" type="line" smooth="yes"/>
      <point x="385" y="380"/>
      <point x="512" y="438"/>
      <point x="512" y="564" type="curve" smooth="yes"/>
      <point x="512" y="672"/>
      <point x="441" y="732"/>
      <point x="308" y="732" type="curve" smooth="yes"/>
      <point x="256" y="732"/>
      <point x="204" y="724"/>
      <point x="140" y="696" type="curve"/>
      <point x="124" y="608" type="line"/>
      <point x="132" y="608" type="line"/>
      <point x="187" y="636"/>
      <point x="232" y="648"/>
      <point x="300" y="648" type="curve" smooth="yes"/>
      <point x="370" y="648"/>
      <point x="412" y="620"/>
      <point x="412" y="560" type="curve" smooth="yes"/>
      <point x="412" y="490"/>
      <point x="348" y="451"/>
      <point x="312" y="432" type="curve" smooth="yes"/>
      <point x="244" y="396" type="line" smooth="yes"/>
      <point x="184" y="364"/>
      <point x="160" y="316"/>
    </contour>
    <contour>
      <point x="94" y="44" type="curve" smooth="yes"/>
      <point x="94" y="12"/>
      <point x="112" y="-8"/>
      <point x="148" y="-8" type="curve" smooth="yes"/>
      <point x="190" y="-8"/>
      <point x="218" y="32"/>
      <point x="218" y="68" type="curve" smooth="yes"/>
      <point x="218" y="100"/>
      <point x="198" y="120"/>
      <point x="164" y="120" type="curve" smooth="yes"/>
      <point x="120" y="120"/>
      <point x="94" y="80"/>
    </contour>
  </outline>
</glyph>
<glyph name="A" format="2">
  <advance width="662"/>
  <unicode hex="0041"/>
  <note>
A
</note>
  <anchor x="278" y="0" name="bottom"/>
  <anchor x="518" y="0" name="ogonek"/>
  <anchor x="449" y="720" name="top"/>
  <outline>
    <contour>
      <point x="-2" y="0" type="line"/>
      <point x="98" y="0" type="line"/>
      <point x="268" y="480" type="line" smooth="yes"/>
      <point x="305" y="584"/>
      <point x="362" y="644"/>
      <point x="494" y="644" type="curve" smooth="yes"/>
      <point x="525" y="644"/>
      <point x="556" y="640"/>
      <point x="568" y="632" type="curve"/>
      <point x="560" y="660" type="line"/>
      <point x="547" y="641"/>
      <point x="542" y="618"/>
      <point x="538" y="596" type="curve" smooth="yes"/>
      <point x="422" y="0" type="line"/>
      <point x="518" y="0" type="line"/>
      <point x="626" y="556" type="line" smooth="yes"/>
      <point x="634" y="596"/>
      <point x="644" y="660"/>
      <point x="658" y="700" type="curve"/>
      <point x="658" y="712" type="line"/>
      <point x="608" y="724"/>
      <point x="562" y="728"/>
      <point x="514" y="728" type="curve" smooth="yes"/>
      <point x="314" y="728"/>
      <point x="229" y="648"/>
      <point x="172" y="488" type="curve" smooth="yes"/>
    </contour>
    <contour>
      <point x="156" y="220" type="line"/>
      <point x="484" y="220" type="line"/>
      <point x="500" y="304" type="line"/>
      <point x="184" y="304" type="line"/>
    </contour>
  </outline>
</glyph>
<glyph name="D" format="2">
  <advance width="720"/>
  <unicode hex="0044"/>
  <note>
D
</note>
  <anchor x="302" y="0" name="bottom"/>
  <anchor x="176" y="368" name="center"/>
  <anchor x="455" y="720" name="top"/>
  <outline>
    <contour>
      <point x="248" y="720" type="line"/>
      <point x="232" y="636" type="line"/>
      <point x="408" y="636" type="line" smooth="yes"/>
      <point x="528" y="636"/>
      <point x="592" y="580"/>
      <point x="592" y="456" type="curve" smooth="yes"/>
      <point x="592" y="320"/>
      <point x="500" y="84"/>
      <point x="280" y="84" type="curve" smooth="yes"/>
      <point x="124" y="84" type="line"/>
      <point x="108" y="0" type="line"/>
      <point x="280" y="0" type="line" smooth="yes"/>
      <point x="552" y="0"/>
      <point x="692" y="256"/>
      <point x="692" y="460" type="curve" smooth="yes"/>
      <point x="692" y="628"/>
      <point x="588" y="720"/>
      <point x="408" y="720" type="curve" smooth="yes"/>
    </contour>
    <contour>
      <point x="44" y="0" type="line"/>
      <point x="140" y="0" type="line"/>
      <point x="280" y="720" type="line"/>
      <point x="184" y="720" type="line"/>
    </contour>
  </outline>
</glyph>
<glyph name="F" format="2">
  <advance width="572"/>
  <unicode hex="0046"/>
  <note>
F
</note>
  <anchor x="233" y="0" name="bottom"/>
  <anchor x="373" y="720" name="top"/>
  <outline>
    <contour>
      <point x="44" y="0" type="line"/>
      <point x="140" y="0" type="line"/>
      <point x="280" y="720" type="line"/>
      <point x="184" y="720" type="line"/>
    </contour>
    <contour>
      <point x="152" y="280" type="line"/>
      <point x="486" y="280" type="line"/>
      <point x="502" y="364" type="line"/>
      <point x="168" y="364" type="line"/>
    </contour>
    <contour>
      <point x="232" y="636" type="line"/>
      <point x="610" y="636" type="line"/>
      <point x="626" y="720" type="line"/>
      <point x="248" y="720" type="line"/>
    </contour>
  </outline>
</glyph>
<glyph name="H" format="2">
  <advance width="736"/>
  <unicode hex="0048"/>
  <note>
H
</note>
  <anchor x="315" y="0" name="bottom"/>
  <anchor x="429" y="580" name="center"/>
  <anchor x="455" y="720" name="top"/>
  <anchor x="463" y="720" name="topleft"/>
  <outline>
    <contour>
      <point x="632" y="720" type="line"/>
      <point x="492" y="0" type="line"/>
      <point x="588" y="0" type="line"/>
      <point x="728" y="720" type="line"/>
    </contour>
    <contour>
      <point x="140" y="0" type="line"/>
      <point x="280" y="720" type="line"/>
      <point x="184" y="720" type="line"/>
      <point x="44" y="0" type="line"/>
    </contour>
    <contour>
      <point x="584" y="332" type="line"/>
      <point x="600" y="416" type="line"/>
      <point x="192" y="416" type="line"/>
      <point x="176" y="332" type="line"/>
    </contour>
  </outline>
</glyph>
<glyph name="L" format="2">
  <advance width="532"/>
  <unicode hex="004C"/>
  <note>
L
</note>
  <anchor x="208" y="0" name="bottom"/>
  <anchor x="188" y="390" name="center"/>
  <anchor x="380" y="392" name="periodCAT"/>
  <anchor x="361" y="720" name="top"/>
  <anchor x="429" y="516" name="topright"/>
  <outline>
    <contour>
      <point x="44" y="0" type="line"/>
      <point x="450" y="0" type="line"/>
      <point x="466" y="84" type="line"/>
      <point x="156" y="84" type="line"/>
      <point x="280" y="720" type="line"/>
      <point x="184" y="720" type="line"/>
    </contour>
  </outline>
</glyph>
<glyph name="N" format="2">
  <advance width="736"/>
  <unicode hex="004E"/>
  <note>
N
</note>
  <anchor x="315" y="0" name="bottom"/>
  <anchor x="455" y="720" name="top"/>
  <outline>
    <contour>
      <point x="492" y="0" type="line"/>
      <point x="588" y="0" type="line"/>
      <point x="728" y="720" type="line"/>
      <point x="632" y="720" type="line"/>
    </contour>
    <contour>
      <point x="44" y="0" type="line"/>
      <point x="140" y="0" type="line"/>
      <point x="256" y="608" type="line"/>
      <point x="220" y="616" type="line"/>
      <point x="560" y="156" type="line"/>
      <point x="580" y="284" type="line"/>
      <point x="260" y="720" type="line"/>
      <point x="184" y="720" type="line"/>
    </contour>
  </outline>
</glyph>
<glyph name="O" format="2">
  <advance width="784"/>
  <unicode hex="004F"/>
  <note>
O
</note>
  <anchor x="339" y="0" name="bottom"/>
  <anchor x="409" y="360" name="center"/>
  <anchor x="461" y="0" name="ogonek"/>
  <anchor x="479" y="720" name="top"/>
  <anchor x="107" y="720" name="topleft"/>
  <anchor x="552" y="720" name="topright"/>
  <outline>
    <contour>
      <point x="68" y="284" type="curve" smooth="yes"/>
      <point x="68" y="104"/>
      <point x="176" y="-12"/>
      <point x="364" y="-12" type="curve" smooth="yes"/>
      <point x="628" y="-12"/>
      <point x="756" y="228"/>
      <point x="756" y="436" type="curve" smooth="yes"/>
      <point x="756" y="616"/>
      <point x="648" y="732"/>
      <point x="460" y="732" type="curve" smooth="yes"/>
      <point x="200" y="732"/>
      <point x="68" y="492"/>
    </contour>
    <contour>
      <point x="168" y="284" type="curve" smooth="yes"/>
      <point x="168" y="452"/>
      <point x="260" y="644"/>
      <point x="456" y="644" type="curve" smooth="yes"/>
      <point x="576" y="644"/>
      <point x="656" y="576"/>
      <point x="656" y="436" type="curve" smooth="yes"/>
      <point x="656" y="268"/>
      <point x="564" y="76"/>
      <point x="368" y="76" type="curve" smooth="yes"/>
      <point x="248" y="76"/>
      <point x="168" y="144"/>
    </contour>
  </outline>
</glyph>
<glyph name="P" format="2">
  <advance width="620"/>
  <unicode hex="0050"/>
  <note>
P
</note>
  <anchor x="257" y="0" name="bottom"/>
  <anchor x="397" y="720" name="top"/>
  <outline>
    <contour>
      <point x="156" y="240" type="line"/>
      <point x="328" y="240" type="line" smooth="yes"/>
      <point x="524" y="240"/>
      <point x="632" y="388"/>
      <point x="632" y="532" type="curve" smooth="yes"/>
      <point x="632" y="656"/>
      <point x="548" y="720"/>
      <point x="424" y="720" type="curve" smooth="yes"/>
      <point x="248" y="720" type="line"/>
      <point x="232" y="636" type="line"/>
      <point x="416" y="636" type="line" smooth="yes"/>
      <point x="488" y="636"/>
      <point x="532" y="604"/>
      <point x="532" y="532" type="curve" smooth="yes"/>
      <point x="532" y="420"/>
      <point x="452" y="324"/>
      <point x="328" y="324" type="curve" smooth="yes"/>
      <point x="172" y="324" type="line"/>
    </contour>
    <contour>
      <point x="44" y="0" type="line"/>
      <point x="140" y="0" type="line"/>
      <point x="280" y="720" type="line"/>
      <point x="184" y="720" type="line"/>
    </contour>
  </outline>
</glyph>
<glyph name="Q" format="2">
  <advance width="784"/>
  <unicode hex="0051"/>
  <note>
Q
</note>
  <anchor x="339" y="0" name="bottom"/>
  <anchor x="479" y="720" name="top"/>
  <anchor x="409" y="360" name="center"/>
  <anchor x="461" y="0" name="ogonek"/>
  <anchor x="107" y="720" name="topleft"/>
  <anchor x="552" y="720" name="topright"/>
  <outline>
    <contour>
      <point x="520" y="84" type="line"/>
      <point x="424" y="48" type="line"/>
      <point x="628" y="-160" type="line"/>
      <point x="760" y="-160" type="line"/>
      <point x="760" y="-152" type="line"/>
    </contour>
    <component base="O"/>
  </outline>
</glyph>
<glyph name="R" format="2">
  <advance width="658"/>
  <unicode hex="0052"/>
  <note>
R
</note>
  <anchor x="276" y="0" name="bottom"/>
  <anchor x="416" y="720" name="top"/>
  <outline>
    <contour>
      <point x="152" y="216" type="line"/>
      <point x="348" y="216" type="line"/>
      <point x="484" y="216"/>
      <point x="636" y="352"/>
      <point x="636" y="524" type="curve" smooth="yes"/>
      <point x="636" y="652"/>
      <point x="564" y="720"/>
      <point x="416" y="720" type="curve" smooth="yes"/>
      <point x="248" y="720" type="line"/>
      <point x="232" y="636" type="line"/>
      <point x="416" y="636" type="line" smooth="yes"/>
      <point x="488" y="636"/>
      <point x="536" y="604"/>
      <point x="536" y="524" type="curve" smooth="yes"/>
      <point x="536" y="412"/>
      <point x="452" y="304"/>
      <point x="328" y="304" type="curve" smooth="yes"/>
      <point x="168" y="304" type="line"/>
    </contour>
    <contour>
      <point x="44" y="0" type="line"/>
      <point x="140" y="0" type="line"/>
      <point x="280" y="720" type="line"/>
      <point x="184" y="720" type="line"/>
    </contour>
    <contour>
      <point x="470" y="0" type="line"/>
      <point x="580" y="0" type="line"/>
      <point x="580" y="8" type="line"/>
      <point x="416" y="280" type="line"/>
      <point x="328" y="244" type="line"/>
    </contour>
  </outline>
</glyph>
<glyph name="U" format="2">
  <advance width="704"/>
  <unicode hex="0055"/>
  <note>
U
</note>
  <anchor x="299" y="0" name="bottom"/>
  <anchor x="355" y="10" name="ogonek"/>
  <anchor x="439" y="720" name="top"/>
  <anchor x="696" y="720" name="topright"/>
  <outline>
    <contour>
      <point x="84" y="181" type="curve" smooth="yes"/>
      <point x="84" y="60"/>
      <point x="156" y="-12"/>
      <point x="312" y="-12" type="curve" smooth="yes"/>
      <point x="484" y="-12"/>
      <point x="584" y="84"/>
      <point x="620" y="268" type="curve" smooth="yes"/>
      <point x="708" y="720" type="line"/>
      <point x="612" y="720" type="line"/>
      <point x="524" y="268" type="line" smooth="yes"/>
      <point x="497" y="128"/>
      <point x="428" y="76"/>
      <point x="316" y="76" type="curve" smooth="yes"/>
      <point x="228" y="76"/>
      <point x="180" y="108"/>
      <point x="180" y="196" type="curve" smooth="yes"/>
      <point x="180" y="217"/>
      <point x="183" y="241"/>
      <point x="188" y="268" type="curve" smooth="yes"/>
      <point x="276" y="720" type="line"/>
      <point x="180" y="720" type="line"/>
      <point x="92" y="268" type="line" smooth="yes"/>
      <point x="86" y="236"/>
      <point x="84" y="204"/>
    </contour>
  </outline>
</glyph>
<glyph name="Z" format="2">
  <advance width="586"/>
  <unicode hex="005A"/>
  <note>
Z
</note>
  <anchor x="240" y="0" name="bottom"/>
  <anchor x="380" y="720" name="top"/>
  <outline>
    <contour>
      <point x="135" y="720" type="line"/>
      <point x="119" y="636" type="line"/>
      <point x="508" y="636" type="line"/>
      <point x="504" y="668" type="line"/>
      <point x="27" y="92" type="line" smooth="yes"/>
      <point x="-10" y="47"/>
      <point x="-9" y="23"/>
      <point x="-9" y="8" type="curve"/>
      <point x="-1" y="0" type="line"/>
      <point x="491" y="0" type="line"/>
      <point x="507" y="84" type="line"/>
      <point x="100" y="84" type="line"/>
      <point x="108" y="56" type="line"/>
      <point x="583" y="628" type="line" smooth="yes"/>
      <point x="620" y="673"/>
      <point x="619" y="697"/>
      <point x="619" y="712" type="curve"/>
      <point x="611" y="720" type="line"/>
    </contour>
  </outline>
</glyph>
<glyph name="asciicircum" format="2">
  <advance width="616"/>
  <unicode hex="005E"/>
  <note>
asciicircum
</note>
  <outline>
    <contour>
      <point x="85" y="400" type="line"/>
      <point x="173" y="400" type="line"/>
      <point x="308" y="620" type="line"/>
      <point x="443" y="400" type="line"/>
      <point x="531" y="400" type="line"/>
      <point x="531" y="408" type="line"/>
      <point x="336" y="732" type="line"/>
      <point x="280" y="732" type="line"/>
      <point x="85" y="408" type="line"/>
    </contour>
  </outline>
</glyph>
<glyph name="d" format="2">
  <advance width="618"/>
  <unicode hex="0064"/>
  <note>
d
</note>
  <anchor x="251" y="0" name="bottom"/>
  <anchor x="526" y="656" name="center"/>
  <anchor x="413" y="760" name="top"/>
  <anchor x="703" y="544" name="topright"/>
  <outline>
    <contour>
      <point x="484" y="452" type="curve"/>
      <point x="500" y="532" type="line"/>
      <point x="476" y="544"/>
      <point x="426" y="556"/>
      <point x="374" y="556" type="curve" smooth="yes"/>
      <point x="182" y="556"/>
      <point x="48" y="424"/>
      <point x="48" y="224" type="curve" smooth="yes"/>
      <point x="48" y="68"/>
      <point x="146" y="-12"/>
      <point x="292" y="-12" type="curve" smooth="yes"/>
      <point x="360" y="-12"/>
      <point x="420" y="0"/>
      <point x="484" y="24" type="curve"/>
      <point x="488" y="32" type="line"/>
      <point x="490" y="68"/>
      <point x="496" y="116"/>
      <point x="504" y="156" type="curve" smooth="yes"/>
      <point x="622" y="760" type="line"/>
      <point x="524" y="760" type="line"/>
      <point x="520" y="752" type="line"/>
      <point x="521" y="716"/>
      <point x="504" y="628"/>
      <point x="496" y="588" type="curve" smooth="yes"/>
      <point x="412" y="156" type="line" smooth="yes"/>
      <point x="406" y="126"/>
      <point x="404" y="92"/>
      <point x="404" y="64" type="curve"/>
      <point x="424" y="92" type="line"/>
      <point x="396" y="76"/>
      <point x="352" y="68"/>
      <point x="304" y="68" type="curve" smooth="yes"/>
      <point x="196" y="68"/>
      <point x="142" y="116"/>
      <point x="142" y="224" type="curve" smooth="yes"/>
      <point x="142" y="384"/>
      <point x="236" y="476"/>
      <point x="368" y="476" type="curve" smooth="yes"/>
      <point x="432" y="476"/>
      <point x="464" y="464"/>
    </contour>
  </outline>
</glyph>
<glyph name="f" format="2">
  <advance width="336"/>
  <unicode hex="0066"/>
  <note>
f
</note>
  <anchor x="115" y="0" name="bottom"/>
  <anchor x="263" y="760" name="top"/>
  <outline>
    <contour>
      <point x="52" y="0" type="line"/>
      <point x="144" y="0" type="line"/>
      <point x="250" y="544" type="line"/>
      <point x="264" y="632"/>
      <point x="300" y="680"/>
      <point x="380" y="680" type="curve" smooth="yes"/>
      <point x="412" y="680"/>
      <point x="428" y="676"/>
      <point x="448" y="668" type="curve"/>
      <point x="456" y="668" type="line"/>
      <point x="472" y="748" type="line"/>
      <point x="454" y="756"/>
      <point x="420" y="760"/>
      <point x="388" y="760" type="curve" smooth="yes"/>
      <point x="264" y="760"/>
      <point x="188" y="696"/>
      <point x="158" y="544" type="curve" smooth="yes"/>
    </contour>
    <contour>
      <point x="60" y="464" type="line"/>
      <point x="388" y="464" type="line"/>
      <point x="404" y="544" type="line"/>
      <point x="76" y="544" type="line"/>
    </contour>
  </outline>
</glyph>
<glyph name="h" format="2">
  <advance width="640"/>
  <unicode hex="0068"/>
  <note>
h
</note>
  <anchor x="270" y="0" name="bottom"/>
  <anchor x="246" y="656" name="center"/>
  <anchor x="223" y="760" name="top"/>
  <outline>
    <contour>
      <point x="136" y="0" type="line"/>
      <point x="284" y="760" type="line"/>
      <point x="186" y="760" type="line"/>
      <point x="182" y="752" type="line"/>
      <point x="183" y="716"/>
      <point x="166" y="628"/>
      <point x="158" y="588" type="curve" smooth="yes"/>
      <point x="44" y="0" type="line"/>
    </contour>
    <contour>
      <point x="228" y="532" type="curve"/>
      <point x="204" y="444" type="line"/>
      <point x="246" y="462"/>
      <point x="296" y="476"/>
      <point x="344" y="476" type="curve" smooth="yes"/>
      <point x="420" y="476"/>
      <point x="470" y="452"/>
      <point x="470" y="370" type="curve" smooth="yes"/>
      <point x="470" y="354"/>
      <point x="468" y="334"/>
      <point x="464" y="312" type="curve" smooth="yes"/>
      <point x="404" y="0" type="line"/>
      <point x="496" y="0" type="line"/>
      <point x="556" y="312" type="line" smooth="yes"/>
      <point x="561" y="339"/>
      <point x="564" y="364"/>
      <point x="564" y="384" type="curve" smooth="yes"/>
      <point x="564" y="512"/>
      <point x="476" y="556"/>
      <point x="364" y="556" type="curve" smooth="yes"/>
      <point x="316" y="556"/>
      <point x="264" y="544"/>
    </contour>
  </outline>
</glyph>
<glyph name="n" format="2">
  <advance width="640"/>
  <unicode hex="006E"/>
  <note>
n
</note>
  <anchor x="267" y="0" name="bottom"/>
  <anchor x="373" y="544" name="top"/>
  <outline>
    <contour>
      <point x="44" y="0" type="line"/>
      <point x="136" y="0" type="line"/>
      <point x="212" y="392" type="line" smooth="yes"/>
      <point x="217" y="422"/>
      <point x="219" y="453"/>
      <point x="220" y="476" type="curve"/>
      <point x="200" y="452" type="line"/>
      <point x="236" y="464"/>
      <point x="288" y="476"/>
      <point x="336" y="476" type="curve" smooth="yes"/>
      <point x="420" y="476"/>
      <point x="470" y="452"/>
      <point x="470" y="370" type="curve" smooth="yes"/>
      <point x="470" y="353"/>
      <point x="468" y="334"/>
      <point x="464" y="312" type="curve" smooth="yes"/>
      <point x="404" y="0" type="line"/>
      <point x="496" y="0" type="line"/>
      <point x="556" y="312" type="line" smooth="yes"/>
      <point x="561" y="339"/>
      <point x="564" y="364"/>
      <point x="564" y="384" type="curve" smooth="yes"/>
      <point x="564" y="512"/>
      <point x="476" y="556"/>
      <point x="352" y="556" type="curve" smooth="yes"/>
      <point x="300" y="556"/>
      <point x="200" y="540"/>
      <point x="140" y="516" type="curve"/>
      <point x="136" y="508" type="line"/>
      <point x="134" y="472"/>
      <point x="128" y="432"/>
      <point x="120" y="392" type="curve" smooth="yes"/>
    </contour>
  </outline>
</glyph>
<glyph name="o" format="2">
  <advance width="604"/>
  <unicode hex="006F"/>
  <note>
o
</note>
  <anchor x="249" y="0" name="bottom"/>
  <anchor x="302" y="272" name="center"/>
  <anchor x="334" y="0" name="ogonek"/>
  <anchor x="355" y="544" name="top"/>
  <anchor x="424" y="544" name="topright"/>
  <outline>
    <contour>
      <point x="48" y="208" type="curve" smooth="yes"/>
      <point x="48" y="76"/>
      <point x="128" y="-8"/>
      <point x="264" y="-8" type="curve" smooth="yes"/>
      <point x="464" y="-8"/>
      <point x="564" y="168"/>
      <point x="564" y="340" type="curve" smooth="yes"/>
      <point x="564" y="472"/>
      <point x="484" y="556"/>
      <point x="348" y="556" type="curve" smooth="yes"/>
      <point x="148" y="556"/>
      <point x="48" y="380"/>
    </contour>
    <contour>
      <point x="142" y="208" type="curve" smooth="yes"/>
      <point x="142" y="332"/>
      <point x="200" y="476"/>
      <point x="340" y="476" type="curve" smooth="yes"/>
      <point x="420" y="476"/>
      <point x="470" y="432"/>
      <point x="470" y="340" type="curve" smooth="yes"/>
      <point x="470" y="216"/>
      <point x="412" y="72"/>
      <point x="272" y="72" type="curve" smooth="yes"/>
      <point x="192" y="72"/>
      <point x="142" y="116"/>
    </contour>
  </outline>
</glyph>
<glyph name="r" format="2">
  <advance width="384"/>
  <unicode hex="0072"/>
  <note>
r
</note>
  <anchor x="88" y="0" name="bottom"/>
  <anchor x="245" y="544" name="top"/>
  <outline>
    <contour>
      <point x="120" y="392" type="curve" smooth="yes"/>
      <point x="44" y="0" type="line"/>
      <point x="136" y="0" type="line"/>
      <point x="212" y="392" type="line" smooth="yes"/>
      <point x="217" y="421"/>
      <point x="219" y="452"/>
      <point x="220" y="476" type="curve"/>
      <point x="201" y="453" type="line"/>
      <point x="236" y="461"/>
      <point x="284" y="468"/>
      <point x="328" y="468" type="curve" smooth="yes"/>
      <point x="348" y="468"/>
      <point x="372" y="466"/>
      <point x="388" y="464" type="curve"/>
      <point x="396" y="464" type="line"/>
      <point x="412" y="544" type="line"/>
      <point x="398" y="546"/>
      <point x="368" y="548"/>
      <point x="336" y="548" type="curve" smooth="yes"/>
      <point x="284" y="548"/>
      <point x="195" y="536"/>
      <point x="140" y="516" type="curve"/>
      <point x="136" y="508" type="line"/>
      <point x="134" y="472"/>
      <point x="128" y="432"/>
    </contour>
  </outline>
</glyph>
<glyph name="s" format="2">
  <advance width="500"/>
  <unicode hex="0073"/>
  <note>
s
</note>
  <anchor x="197" y="0" name="bottom"/>
  <anchor x="303" y="544" name="top"/>
  <outline>
    <contour>
      <point x="28" y="106" type="line"/>
      <point x="12" y="20" type="line"/>
      <point x="60" y="0"/>
      <point x="136" y="-8"/>
      <point x="200" y="-8" type="curve" smooth="yes"/>
      <point x="344" y="-8"/>
      <point x="442" y="44"/>
      <point x="442" y="156" type="curve" smooth="yes"/>
      <point x="442" y="240"/>
      <point x="374" y="280"/>
      <point x="296" y="300" type="curve" smooth="yes"/>
      <point x="264" y="308" type="line" smooth="yes"/>
      <point x="205" y="323"/>
      <point x="160" y="332"/>
      <point x="160" y="384" type="curve" smooth="yes"/>
      <point x="160" y="444"/>
      <point x="224" y="472"/>
      <point x="316" y="472" type="curve" smooth="yes"/>
      <point x="376" y="472"/>
      <point x="407" y="462"/>
      <point x="448" y="446" type="curve"/>
      <point x="456" y="446" type="line"/>
      <point x="472" y="528" type="line"/>
      <point x="432" y="544"/>
      <point x="388" y="552"/>
      <point x="324" y="552" type="curve" smooth="yes"/>
      <point x="152" y="552"/>
      <point x="70" y="472"/>
      <point x="70" y="376" type="curve" smooth="yes"/>
      <point x="70" y="296"/>
      <point x="126" y="260"/>
      <point x="220" y="236" type="curve" smooth="yes"/>
      <point x="252" y="228" type="line" smooth="yes"/>
      <point x="310" y="214"/>
      <point x="352" y="200"/>
      <point x="352" y="152" type="curve" smooth="yes"/>
      <point x="352" y="80"/>
      <point x="268" y="72"/>
      <point x="204" y="72" type="curve" smooth="yes"/>
      <point x="140" y="72"/>
      <point x="80" y="84"/>
      <point x="36" y="106" type="curve"/>
    </contour>
  </outline>
</glyph>
<glyph name="v" format="2">
  <advance width="536"/>
  <unicode hex="0076"/>
  <note>
v
</note>
  <anchor x="215" y="0" name="bottom"/>
  <anchor x="321" y="544" name="top"/>
  <outline>
    <contour>
      <point x="68" y="532" type="line"/>
      <point x="160" y="0" type="line"/>
      <point x="280" y="0" type="line"/>
      <point x="580" y="532" type="line"/>
      <point x="580" y="544" type="line"/>
      <point x="488" y="544" type="line"/>
      <point x="220" y="56" type="line"/>
      <point x="240" y="48" type="line"/>
      <point x="164" y="544" type="line"/>
      <point x="68" y="544" type="line"/>
    </contour>
  </outline>
</glyph>
<glyph name="x" format="2">
  <advance width="532"/>
  <unicode hex="0078"/>
  <note>
x
</note>
  <anchor x="213" y="0" name="bottom"/>
  <anchor x="319" y="544" name="top"/>
  <outline>
    <contour>
      <point x="-20" y="0" type="line"/>
      <point x="76" y="0" type="line"/>
      <point x="288" y="236" type="line"/>
      <point x="564" y="536" type="line"/>
      <point x="564" y="544" type="line"/>
      <point x="468" y="544" type="line"/>
      <point x="252" y="304" type="line"/>
      <point x="-20" y="8" type="line"/>
    </contour>
    <contour>
      <point x="360" y="0" type="line"/>
      <point x="452" y="0" type="line"/>
      <point x="452" y="8" type="line"/>
      <point x="296" y="300" type="line"/>
      <point x="168" y="544" type="line"/>
      <point x="76" y="544" type="line"/>
      <point x="76" y="536" type="line"/>
      <point x="236" y="232" type="line"/>
    </contour>
  </outline>
</glyph>
<glyph name="z" format="2">
  <advance width="520"/>
  <unicode hex="007A"/>
  <note>
z
</note>
  <guideline x="220" y="294" angle="42.4209"/>
  <anchor x="207" y="0" name="bottom"/>
  <anchor x="313" y="544" name="top"/>
  <outline>
    <contour>
      <point x="92" y="462" type="line"/>
      <point x="428" y="462" type="line"/>
      <point x="408" y="484" type="line"/>
      <point x="392" y="448"/>
      <point x="364" y="425"/>
      <point x="336" y="400" type="curve"/>
      <point x="104" y="188" type="line" smooth="yes"/>
      <point x="63" y="150"/>
      <point x="-4" y="100"/>
      <point x="-4" y="8" type="curve"/>
      <point x="4" y="0" type="line"/>
      <point x="432" y="0" type="line"/>
      <point x="446" y="78" type="line"/>
      <point x="80" y="78" type="line"/>
      <point x="104" y="60" type="line"/>
      <point x="112" y="88"/>
      <point x="150" y="121"/>
      <point x="176" y="144" type="curve" smooth="yes"/>
      <point x="408" y="356" type="line" smooth="yes"/>
      <point x="449" y="394"/>
      <point x="516" y="444"/>
      <point x="516" y="536" type="curve"/>
      <point x="508" y="544" type="line"/>
      <point x="108" y="544" type="line"/>
    </contour>
  </outline>
</glyph>
<glyph name="braceleft" format="2">
  <advance width="372"/>
  <unicode hex="007B"/>
  <note>
braceleft
</note>
  <outline>
    <contour>
      <point x="120" y="220" type="curve" smooth="yes"/>
      <point x="88" y="60" type="line" smooth="yes"/>
      <point x="70" y="-32"/>
      <point x="108" y="-88"/>
      <point x="208" y="-88" type="curve" smooth="yes"/>
      <point x="280" y="-88" type="line"/>
      <point x="294" y="-12" type="line"/>
      <point x="220" y="-12" type="line" smooth="yes"/>
      <point x="180" y="-12"/>
      <point x="164" y="8"/>
      <point x="172" y="52" type="curve" smooth="yes"/>
      <point x="204" y="216" type="line" smooth="yes"/>
      <point x="218" y="288"/>
      <point x="186" y="326"/>
      <point x="136" y="336" type="curve"/>
      <point x="190" y="346"/>
      <point x="238" y="384"/>
      <point x="252" y="456" type="curve" smooth="yes"/>
      <point x="282" y="612" type="line" smooth="yes"/>
      <point x="292" y="664"/>
      <point x="316" y="684"/>
      <point x="356" y="684" type="curve" smooth="yes"/>
      <point x="432" y="684" type="line"/>
      <point x="448" y="760" type="line"/>
      <point x="364" y="760" type="line" smooth="yes"/>
      <point x="264" y="760"/>
      <point x="214" y="704"/>
      <point x="196" y="612" type="curve" smooth="yes"/>
      <point x="164" y="452" type="line" smooth="yes"/>
      <point x="156" y="412"/>
      <point x="132" y="380"/>
      <point x="84" y="380" type="curve" smooth="yes"/>
      <point x="37" y="380" type="line"/>
      <point x="20" y="292" type="line"/>
      <point x="68" y="292" type="line" smooth="yes"/>
      <point x="120" y="292"/>
      <point x="128" y="260"/>
    </contour>
  </outline>
</glyph>
<glyph name="bar" format="2">
  <advance width="308"/>
  <unicode hex="007C"/>
  <note>
bar
</note>
  <outline>
    <contour>
      <point x="212" y="760" type="line"/>
      <point x="12" y="-252" type="line"/>
      <point x="96" y="-252" type="line"/>
      <point x="296" y="760" type="line"/>
    </contour>
  </outline>
</glyph>
<glyph name="exclamdown" format="2">
  <advance width="296"/>
  <unicode hex="00A1"/>
  <note>
exclamdown
</note>
  <outline>
    <contour>
      <point x="12" y="-184" type="line"/>
      <point x="112" y="-184" type="line"/>
      <point x="168" y="120" type="line" smooth="yes"/>
      <point x="188" y="227"/>
      <point x="196" y="280"/>
      <point x="200" y="336" type="curve"/>
      <point x="128" y="336" type="line"/>
      <point x="116" y="300"/>
      <point x="98" y="237"/>
      <point x="76" y="120" type="curve" smooth="yes"/>
      <point x="48" y="-28" type="line" smooth="yes"/>
      <point x="44" y="-49"/>
      <point x="27" y="-140"/>
      <point x="12" y="-176" type="curve"/>
    </contour>
    <contour>
      <point x="182" y="416" type="curve" smooth="yes"/>
      <point x="226" y="416"/>
      <point x="252" y="456"/>
      <point x="252" y="492" type="curve" smooth="yes"/>
      <point x="252" y="524"/>
      <point x="234" y="544"/>
      <point x="198" y="544" type="curve" smooth="yes"/>
      <point x="156" y="544"/>
      <point x="128" y="504"/>
      <point x="128" y="468" type="curve" smooth="yes"/>
      <point x="128" y="436"/>
      <point x="148" y="416"/>
    </contour>
  </outline>
</glyph>
<glyph name="sterling" format="2">
  <advance width="616"/>
  <unicode hex="00A3"/>
  <note>
sterling
</note>
  <outline>
    <contour>
      <point x="144" y="36" type="line"/>
      <point x="236" y="36" type="line"/>
      <point x="320" y="468" type="line" smooth="yes"/>
      <point x="342" y="580"/>
      <point x="388" y="652"/>
      <point x="500" y="652" type="curve" smooth="yes"/>
      <point x="560" y="652"/>
      <point x="592" y="640"/>
      <point x="616" y="628" type="curve"/>
      <point x="624" y="628" type="line"/>
      <point x="640" y="712" type="line"/>
      <point x="608" y="724"/>
      <point x="564" y="732"/>
      <point x="508" y="732" type="curve" smooth="yes"/>
      <point x="328" y="732"/>
      <point x="255" y="608"/>
      <point x="228" y="468" type="curve" smooth="yes"/>
    </contour>
    <contour>
      <point x="72" y="336" type="line"/>
      <point x="492" y="336" type="line"/>
      <point x="508" y="420" type="line"/>
      <point x="88" y="420" type="line"/>
    </contour>
    <contour>
      <point x="0" y="0" type="line"/>
      <point x="504" y="0" type="line"/>
      <point x="520" y="84" type="line"/>
      <point x="16" y="84" type="line"/>
    </contour>
  </outline>
</glyph>
<glyph name="currency" format="2">
  <advance width="616"/>
  <unicode hex="00A4"/>
  <note>
currency
</note>
  <outline>
    <contour>
      <point x="439" y="151" type="line"/>
      <point x="499" y="201" type="line"/>
      <point x="460" y="251" type="line"/>
      <point x="493" y="291"/>
      <point x="515" y="348"/>
      <point x="515" y="405" type="curve" smooth="yes"/>
      <point x="515" y="429"/>
      <point x="510" y="451"/>
      <point x="502" y="470" type="curve"/>
      <point x="561" y="519" type="line"/>
      <point x="520" y="568" type="line"/>
      <point x="464" y="521" type="line"/>
      <point x="439" y="539"/>
      <point x="405" y="550"/>
      <point x="362" y="550" type="curve" smooth="yes"/>
      <point x="319" y="550"/>
      <point x="281" y="538"/>
      <point x="248" y="520" type="curve"/>
      <point x="211" y="569" type="line"/>
      <point x="151" y="519" type="line"/>
      <point x="190" y="469" type="line"/>
      <point x="157" y="429"/>
      <point x="135" y="372"/>
      <point x="135" y="315" type="curve" smooth="yes"/>
      <point x="135" y="291"/>
      <point x="140" y="269"/>
      <point x="148" y="250" type="curve"/>
      <point x="89" y="201" type="line"/>
      <point x="130" y="152" type="line"/>
      <point x="186" y="199" type="line"/>
      <point x="211" y="181"/>
      <point x="245" y="170"/>
      <point x="288" y="170" type="curve" smooth="yes"/>
      <point x="331" y="170"/>
      <point x="369" y="182"/>
      <point x="402" y="200" type="curve"/>
    </contour>
    <contour>
      <point x="302" y="241" type="curve"/>
      <point x="245" y="241"/>
      <point x="214" y="275"/>
      <point x="214" y="329" type="curve" smooth="yes"/>
      <point x="214" y="415"/>
      <point x="274" y="478"/>
      <point x="348" y="478" type="curve" smooth="yes"/>
      <point x="405" y="479"/>
      <point x="436" y="445"/>
      <point x="436" y="391" type="curve" smooth="yes"/>
      <point x="436" y="305"/>
      <point x="376" y="242"/>
    </contour>
  </outline>
</glyph>
<glyph name="brokenbar" format="2">
  <advance width="308"/>
  <unicode hex="00A6"/>
  <note>
brokenbar
</note>
  <outline>
    <contour>
      <point x="208" y="760" type="line"/>
      <point x="143" y="424" type="line"/>
      <point x="227" y="424" type="line"/>
      <point x="292" y="760" type="line"/>
    </contour>
    <contour>
      <point x="162" y="88" type="line"/>
      <point x="78" y="88" type="line"/>
      <point x="12" y="-252" type="line"/>
      <point x="96" y="-252" type="line"/>
    </contour>
  </outline>
</glyph>
<glyph name="section" format="2">
  <advance width="600"/>
  <unicode hex="00A7"/>
  <note>
section
</note>
  <outline>
    <contour>
      <point x="300" y="68" type="line"/>
      <point x="368" y="68" type="line"/>
      <point x="448" y="100"/>
      <point x="516" y="152"/>
      <point x="516" y="244" type="curve" smooth="yes"/>
      <point x="516" y="340"/>
      <point x="458" y="376"/>
      <point x="380" y="408" type="curve" smooth="yes"/>
      <point x="332" y="428" type="line" smooth="yes"/>
      <point x="274" y="452"/>
      <point x="236" y="464"/>
      <point x="236" y="520" type="curve" smooth="yes"/>
      <point x="236" y="600"/>
      <point x="304" y="644"/>
      <point x="404" y="644" type="curve" smooth="yes"/>
      <point x="476" y="644"/>
      <point x="512" y="632"/>
      <point x="548" y="616" type="curve"/>
      <point x="556" y="616" type="line"/>
      <point x="574" y="708" type="line"/>
      <point x="540" y="720"/>
      <point x="488" y="732"/>
      <point x="412" y="732" type="curve" smooth="yes"/>
      <point x="265" y="732"/>
      <point x="140" y="660"/>
      <point x="140" y="516" type="curve" smooth="yes"/>
      <point x="140" y="416"/>
      <point x="208" y="381"/>
      <point x="288" y="348" type="curve" smooth="yes"/>
      <point x="336" y="328" type="line" smooth="yes"/>
      <point x="391" y="305"/>
      <point x="420" y="288"/>
      <point x="420" y="236" type="curve" smooth="yes"/>
      <point x="420" y="180"/>
      <point x="380" y="140"/>
      <point x="300" y="124" type="curve"/>
    </contour>
    <contour>
      <point x="12" y="-116" type="line"/>
      <point x="-6" y="-208" type="line"/>
      <point x="28" y="-220"/>
      <point x="80" y="-232"/>
      <point x="156" y="-232" type="curve" smooth="yes"/>
      <point x="303" y="-232"/>
      <point x="428" y="-160"/>
      <point x="428" y="-16" type="curve" smooth="yes"/>
      <point x="428" y="84"/>
      <point x="360" y="119"/>
      <point x="280" y="152" type="curve" smooth="yes"/>
      <point x="232" y="172" type="line" smooth="yes"/>
      <point x="177" y="195"/>
      <point x="148" y="212"/>
      <point x="148" y="264" type="curve" smooth="yes"/>
      <point x="148" y="320"/>
      <point x="188" y="360"/>
      <point x="268" y="376" type="curve"/>
      <point x="268" y="432" type="line"/>
      <point x="200" y="432" type="line"/>
      <point x="120" y="400"/>
      <point x="52" y="348"/>
      <point x="52" y="256" type="curve" smooth="yes"/>
      <point x="52" y="160"/>
      <point x="110" y="124"/>
      <point x="188" y="92" type="curve" smooth="yes"/>
      <point x="236" y="72" type="line" smooth="yes"/>
      <point x="294" y="48"/>
      <point x="332" y="36"/>
      <point x="332" y="-20" type="curve" smooth="yes"/>
      <point x="332" y="-100"/>
      <point x="264" y="-144"/>
      <point x="164" y="-144" type="curve" smooth="yes"/>
      <point x="92" y="-144"/>
      <point x="56" y="-132"/>
      <point x="20" y="-116" type="curve"/>
    </contour>
  </outline>
</glyph>
<glyph name="copyright" format="2">
  <advance width="792"/>
  <unicode hex="00A9"/>
  <note>
copyright
</note>
  <outline>
    <contour>
      <point x="68" y="360" type="curve" smooth="yes"/>
      <point x="68" y="128"/>
      <point x="208" y="-12"/>
      <point x="416" y="-12" type="curve" smooth="yes"/>
      <point x="624" y="-12"/>
      <point x="764" y="128"/>
      <point x="764" y="360" type="curve" smooth="yes"/>
      <point x="764" y="592"/>
      <point x="624" y="732"/>
      <point x="416" y="732" type="curve" smooth="yes"/>
      <point x="208" y="732"/>
      <point x="68" y="592"/>
    </contour>
    <contour>
      <point x="140" y="360" type="curve" smooth="yes"/>
      <point x="140" y="568"/>
      <point x="252" y="668"/>
      <point x="416" y="668" type="curve" smooth="yes"/>
      <point x="580" y="668"/>
      <point x="692" y="564"/>
      <point x="692" y="360" type="curve" smooth="yes"/>
      <point x="692" y="156"/>
      <point x="580" y="52"/>
      <point x="416" y="52" type="curve" smooth="yes"/>
      <point x="252" y="52"/>
      <point x="140" y="152"/>
    </contour>
    <contour>
      <point x="236" y="360" type="curve" smooth="yes"/>
      <point x="236" y="240"/>
      <point x="312" y="156"/>
      <point x="448" y="156" type="curve" smooth="yes"/>
      <point x="482" y="156"/>
      <point x="518" y="162"/>
      <point x="540" y="171" type="curve"/>
      <point x="540" y="232" type="line"/>
      <point x="536" y="232" type="line"/>
      <point x="514" y="222"/>
      <point x="482" y="216"/>
      <point x="448" y="216" type="curve" smooth="yes"/>
      <point x="360" y="216"/>
      <point x="304" y="260"/>
      <point x="304" y="360" type="curve" smooth="yes"/>
      <point x="304" y="460"/>
      <point x="360" y="504"/>
      <point x="448" y="504" type="curve" smooth="yes"/>
      <point x="482" y="504"/>
      <point x="514" y="498"/>
      <point x="536" y="488" type="curve"/>
      <point x="540" y="488" type="line"/>
      <point x="540" y="549" type="line"/>
      <point x="518" y="558"/>
      <point x="482" y="564"/>
      <point x="448" y="564" type="curve" smooth="yes"/>
      <point x="312" y="564"/>
      <point x="236" y="480"/>
    </contour>
  </outline>
</glyph>
<glyph name="registered" format="2">
  <advance width="792"/>
  <unicode hex="00AE"/>
  <note>
registered
</note>
  <outline>
    <contour>
      <point x="416" y="-12" type="curve" smooth="yes"/>
      <point x="624" y="-12"/>
      <point x="764" y="128"/>
      <point x="764" y="360" type="curve" smooth="yes"/>
      <point x="764" y="592"/>
      <point x="624" y="732"/>
      <point x="416" y="732" type="curve" smooth="yes"/>
      <point x="208" y="732"/>
      <point x="68" y="592"/>
      <point x="68" y="360" type="curve" smooth="yes"/>
      <point x="68" y="128"/>
      <point x="208" y="-12"/>
    </contour>
    <contour>
      <point x="276" y="168" type="line"/>
      <point x="338" y="168" type="line"/>
      <point x="338" y="562" type="line"/>
      <point x="276" y="562" type="line"/>
      <point x="276" y="472" type="line"/>
    </contour>
    <contour>
      <point x="536" y="168" type="line"/>
      <point x="604" y="168" type="line"/>
      <point x="604" y="176" type="line"/>
      <point x="470" y="332" type="line"/>
      <point x="412" y="312" type="line"/>
    </contour>
    <contour>
      <point x="416" y="52" type="curve" smooth="yes"/>
      <point x="252" y="52"/>
      <point x="140" y="152"/>
      <point x="140" y="360" type="curve" smooth="yes"/>
      <point x="140" y="568"/>
      <point x="252" y="668"/>
      <point x="416" y="668" type="curve" smooth="yes"/>
      <point x="580" y="668"/>
      <point x="692" y="564"/>
      <point x="692" y="360" type="curve" smooth="yes"/>
      <point x="692" y="156"/>
      <point x="580" y="52"/>
    </contour>
    <contour>
      <point x="306" y="280" type="line"/>
      <point x="414" y="280" type="line" smooth="yes"/>
      <point x="528" y="280"/>
      <point x="576" y="360"/>
      <point x="576" y="436" type="curve" smooth="yes"/>
      <point x="576" y="519"/>
      <point x="528" y="562"/>
      <point x="436" y="562" type="curve" smooth="yes"/>
      <point x="306" y="562" type="line"/>
      <point x="306" y="508" type="line"/>
      <point x="434" y="508" type="line" smooth="yes"/>
      <point x="484" y="508"/>
      <point x="514" y="489"/>
      <point x="514" y="436" type="curve" smooth="yes"/>
      <point x="514" y="380"/>
      <point x="481" y="332"/>
      <point x="414" y="332" type="curve" smooth="yes"/>
      <point x="306" y="332" type="line"/>
    </contour>
  </outline>
</glyph>
<glyph name="paragraph" format="2">
  <advance width="692"/>
  <unicode hex="00B6"/>
  <note>
paragraph
</note>
  <outline>
    <contour>
      <point x="296" y="248" type="curve" smooth="yes"/>
      <point x="312" y="248" type="line"/>
      <point x="216" y="-252" type="line"/>
      <point x="300" y="-252" type="line"/>
      <point x="473" y="644" type="line"/>
      <point x="589" y="644" type="line"/>
      <point x="416" y="-252" type="line"/>
      <point x="500" y="-252" type="line"/>
      <point x="688" y="720" type="line"/>
      <point x="380" y="720" type="line" smooth="yes"/>
      <point x="240" y="720"/>
      <point x="100" y="615"/>
      <point x="100" y="440" type="curve" smooth="yes"/>
      <point x="100" y="311"/>
      <point x="185" y="248"/>
    </contour>
  </outline>
</glyph>
<glyph name="periodcentered" format="2">
  <advance width="280"/>
  <unicode hex="00B7"/>
  <note>
periodcentered
</note>
  <outline>
    <contour>
      <point x="152" y="300" type="curve" smooth="yes"/>
      <point x="194" y="300"/>
      <point x="222" y="340"/>
      <point x="222" y="376" type="curve" smooth="yes"/>
      <point x="222" y="408"/>
      <point x="202" y="428"/>
      <point x="168" y="428" type="curve" smooth="yes"/>
      <point x="124" y="428"/>
      <point x="98" y="388"/>
      <point x="98" y="352" type="curve" smooth="yes"/>
      <point x="98" y="320"/>
      <point x="116" y="300"/>
    </contour>
  </outline>
</glyph>
<glyph name="AE" format="2">
  <advance width="994"/>
  <unicode hex="00C6"/>
  <note>
AE
</note>
  <anchor x="439" y="0" name="bottom"/>
  <anchor x="592" y="720" name="top"/>
  <outline>
    <contour>
      <point x="-2" y="0" type="line"/>
      <point x="98" y="0" type="line"/>
      <point x="268" y="480" type="line" smooth="yes"/>
      <point x="305" y="584"/>
      <point x="362" y="644"/>
      <point x="494" y="644" type="curve" smooth="yes"/>
      <point x="525" y="644"/>
      <point x="556" y="640"/>
      <point x="568" y="632" type="curve"/>
      <point x="560" y="660" type="line"/>
      <point x="547" y="641"/>
      <point x="542" y="618"/>
      <point x="538" y="596" type="curve" smooth="yes"/>
      <point x="422" y="0" type="line"/>
      <point x="518" y="0" type="line"/>
      <point x="626" y="556" type="line" smooth="yes"/>
      <point x="634" y="596"/>
      <point x="644" y="660"/>
      <point x="658" y="700" type="curve"/>
      <point x="658" y="712" type="line"/>
      <point x="608" y="724"/>
      <point x="562" y="728"/>
      <point x="514" y="728" type="curve" smooth="yes"/>
      <point x="314" y="728"/>
      <point x="229" y="648"/>
      <point x="172" y="488" type="curve" smooth="yes"/>
    </contour>
    <contour>
      <point x="156" y="220" type="line"/>
      <point x="484" y="220" type="line"/>
      <point x="500" y="304" type="line"/>
      <point x="184" y="304" type="line"/>
    </contour>
    <contour>
      <point x="484" y="0" type="line"/>
      <point x="888" y="0" type="line"/>
      <point x="904" y="84" type="line"/>
      <point x="500" y="84" type="line"/>
    </contour>
    <contour>
      <point x="552" y="336" type="line"/>
      <point x="888" y="336" type="line"/>
      <point x="904" y="420" type="line"/>
      <point x="568" y="420" type="line"/>
    </contour>
    <contour>
      <point x="588" y="636" type="line"/>
      <point x="1000" y="636" type="line"/>
      <point x="1016" y="720" type="line"/>
      <point x="604" y="720" type="line"/>
    </contour>
  </outline>
</glyph>
<glyph name="eth" format="2">
  <advance width="610"/>
  <unicode hex="00F0"/>
  <note>
eth
</note>
  <outline>
    <contour>
      <point x="252" y="-12" type="curve" smooth="yes"/>
      <point x="488" y="-12"/>
      <point x="586" y="236"/>
      <point x="586" y="456" type="curve" smooth="yes"/>
      <point x="586" y="628"/>
      <point x="488" y="732"/>
      <point x="324" y="732" type="curve" smooth="yes"/>
      <point x="268" y="732"/>
      <point x="224" y="722"/>
      <point x="188" y="708" type="curve"/>
      <point x="172" y="624" type="line"/>
      <point x="180" y="624" type="line"/>
      <point x="212" y="640"/>
      <point x="248" y="652"/>
      <point x="304" y="652" type="curve" smooth="yes"/>
      <point x="436" y="652"/>
      <point x="492" y="584"/>
      <point x="492" y="456" type="curve"/>
      <point x="492" y="304"/>
      <point x="432" y="68"/>
      <point x="256" y="68" type="curve" smooth="yes"/>
      <point x="168" y="68"/>
      <point x="132" y="116"/>
      <point x="132" y="184" type="curve" smooth="yes"/>
      <point x="132" y="304"/>
      <point x="204" y="388"/>
      <point x="324" y="388" type="curve" smooth="yes"/>
      <point x="408" y="388"/>
      <point x="460" y="348"/>
      <point x="488" y="280" type="curve"/>
      <point x="512" y="368" type="line"/>
      <point x="480" y="428"/>
      <point x="432" y="468"/>
      <point x="324" y="468" type="curve" smooth="yes"/>
      <point x="184" y="468"/>
      <point x="40" y="368"/>
      <point x="40" y="184" type="curve" smooth="yes"/>
      <point x="40" y="68"/>
      <point x="104" y="-12"/>
    </contour>
    <contour>
      <point x="352" y="532" type="line"/>
      <point x="592" y="732" type="line"/>
      <point x="552" y="780" type="line"/>
      <point x="312" y="580" type="line"/>
    </contour>
  </outline>
</glyph>
<glyph name="thorn" format="2">
  <advance width="618"/>
  <unicode hex="00FE"/>
  <note>
thorn
</note>
  <outline>
    <contour>
      <point x="0" y="-232" type="line"/>
      <point x="92" y="-232" type="line"/>
      <point x="286" y="760" type="line"/>
      <point x="188" y="760" type="line"/>
      <point x="184" y="752" type="line"/>
      <point x="185" y="716"/>
      <point x="168" y="628"/>
      <point x="160" y="588" type="curve" smooth="yes"/>
    </contour>
    <contour>
      <point x="252" y="-12" type="curve" smooth="yes"/>
      <point x="444" y="-12"/>
      <point x="578" y="120"/>
      <point x="578" y="320" type="curve" smooth="yes"/>
      <point x="578" y="476"/>
      <point x="480" y="556"/>
      <point x="344" y="556" type="curve" smooth="yes"/>
      <point x="304" y="556"/>
      <point x="264" y="552"/>
      <point x="228" y="544" type="curve"/>
      <point x="200" y="456" type="line"/>
      <point x="212" y="456" type="line"/>
      <point x="244" y="468"/>
      <point x="284" y="476"/>
      <point x="328" y="476" type="curve" smooth="yes"/>
      <point x="428" y="476"/>
      <point x="484" y="428"/>
      <point x="484" y="320" type="curve" smooth="yes"/>
      <point x="484" y="160"/>
      <point x="392" y="68"/>
      <point x="256" y="68" type="curve" smooth="yes"/>
      <point x="204" y="68"/>
      <point x="164" y="76"/>
      <point x="140" y="92" type="curve"/>
      <point x="112" y="92" type="line"/>
      <point x="100" y="12" type="line"/>
      <point x="124" y="12" type="line"/>
      <point x="148" y="0"/>
      <point x="200" y="-12"/>
    </contour>
  </outline>
</glyph>
<glyph name="Eng" format="2">
  <advance width="736"/>
  <unicode hex="014A"/>
  <note>
Eng
</note>
  <outline>
    <contour>
      <point x="560" y="156" type="line"/>
      <point x="580" y="284" type="line"/>
      <point x="260" y="720" type="line"/>
      <point x="184" y="720" type="line"/>
      <point x="44" y="0" type="line"/>
      <point x="140" y="0" type="line"/>
      <point x="256" y="608" type="line"/>
      <point x="220" y="616" type="line"/>
    </contour>
    <contour>
      <point x="329" y="-240" type="curve" smooth="yes"/>
      <point x="465" y="-240"/>
      <point x="551" y="-177"/>
      <point x="579" y="-34" type="curve" smooth="yes"/>
      <point x="728" y="720" type="line"/>
      <point x="632" y="720" type="line"/>
      <point x="483" y="-34" type="line" smooth="yes"/>
      <point x="464" y="-129"/>
      <point x="413" y="-156"/>
      <point x="333" y="-156" type="curve" smooth="yes"/>
      <point x="297" y="-156"/>
      <point x="261" y="-148"/>
      <point x="245" y="-140" type="curve"/>
      <point x="237" y="-140" type="line"/>
      <point x="221" y="-224" type="line"/>
      <point x="245" y="-232"/>
      <point x="281" y="-240"/>
    </contour>
  </outline>
</glyph>
<glyph name="eng" format="2">
  <advance width="640"/>
  <unicode hex="014B"/>
  <note>
eng
</note>
  <anchor x="267" y="0" name="bottom"/>
  <anchor x="373" y="544" name="top"/>
  <outline>
    <contour>
      <point x="266" y="-240" type="curve" smooth="yes"/>
      <point x="410" y="-240"/>
      <point x="467" y="-152"/>
      <point x="486" y="-52" type="curve" smooth="yes"/>
      <point x="506" y="52" type="line"/>
      <point x="414" y="52" type="line"/>
      <point x="394" y="-52" type="line" smooth="yes"/>
      <point x="380" y="-124"/>
      <point x="344" y="-160"/>
      <point x="274" y="-160" type="curve" smooth="yes"/>
      <point x="250" y="-160"/>
      <point x="228" y="-156"/>
      <point x="206" y="-148" type="curve"/>
      <point x="198" y="-148" type="line"/>
      <point x="182" y="-228" type="line"/>
      <point x="196" y="-234"/>
      <point x="230" y="-240"/>
    </contour>
    <component base="n"/>
  </outline>
</glyph>
<glyph name="oe" format="2">
  <advance width="1009"/>
  <unicode hex="0153"/>
  <outline>
    <contour>
      <point x="264" y="-8" type="curve" smooth="yes"/>
      <point x="464" y="-8"/>
      <point x="564" y="168"/>
      <point x="564" y="340" type="curve" smooth="yes"/>
      <point x="564" y="472"/>
      <point x="484" y="556"/>
      <point x="348" y="556" type="curve" smooth="yes"/>
      <point x="148" y="556"/>
      <point x="48" y="380"/>
      <point x="48" y="208" type="curve" smooth="yes"/>
      <point x="48" y="76"/>
      <point x="128" y="-8"/>
    </contour>
    <contour>
      <point x="272" y="72" type="curve" smooth="yes"/>
      <point x="192" y="72"/>
      <point x="142" y="116"/>
      <point x="142" y="208" type="curve" smooth="yes"/>
      <point x="142" y="332"/>
      <point x="200" y="476"/>
      <point x="340" y="476" type="curve" smooth="yes"/>
      <point x="420" y="476"/>
      <point x="470" y="432"/>
      <point x="470" y="340" type="curve" smooth="yes"/>
      <point x="470" y="216"/>
      <point x="412" y="72"/>
    </contour>
    <contour>
      <point x="716" y="-8" type="curve" smooth="yes"/>
      <point x="780" y="-8"/>
      <point x="840" y="4"/>
      <point x="872" y="20" type="curve"/>
      <point x="888" y="104" type="line"/>
      <point x="880" y="104" type="line"/>
      <point x="849" y="88"/>
      <point x="792" y="72"/>
      <point x="724" y="72" type="curve" smooth="yes"/>
      <point x="620" y="72"/>
      <point x="554" y="120"/>
      <point x="554" y="220" type="curve" smooth="yes"/>
      <point x="554" y="240" type="line" smooth="yes"/>
      <point x="554" y="352"/>
      <point x="628" y="476"/>
      <point x="756" y="476" type="curve" smooth="yes"/>
      <point x="844" y="476"/>
      <point x="878" y="432"/>
      <point x="878" y="360" type="curve" smooth="yes"/>
      <point x="878" y="350"/>
      <point x="876" y="332"/>
      <point x="872" y="316" type="curve"/>
      <point x="524" y="316" type="line"/>
      <point x="524" y="240" type="line"/>
      <point x="952" y="240" type="line"/>
      <point x="962" y="276"/>
      <point x="972" y="320"/>
      <point x="972" y="364" type="curve" smooth="yes"/>
      <point x="972" y="476"/>
      <point x="900" y="556"/>
      <point x="760" y="556" type="curve" smooth="yes"/>
      <point x="575" y="556"/>
      <point x="464" y="392"/>
      <point x="464" y="220" type="curve" smooth="yes"/>
      <point x="464" y="76"/>
      <point x="551" y="-8"/>
    </contour>
  </outline>
</glyph>
<glyph name="tbar" format="2">
  <advance width="404"/>
  <unicode hex="0167"/>
  <note>
tbar
</note>
  <anchor x="144" y="0" name="bottom"/>
  <anchor x="182" y="280" name="center"/>
  <anchor x="238" y="692" name="top"/>
  <anchor x="394" y="568" name="topright"/>
  <outline>
    <contour>
      <point x="370" y="316" type="line"/>
      <point x="38" y="316" type="line"/>
      <point x="24" y="248" type="line"/>
      <point x="356" y="248" type="line"/>
    </contour>
    <component base="t"/>
  </outline>
</glyph>
<glyph name="Schwa" format="2">
  <advance width="728"/>
  <unicode hex="018F"/>
  <outline>
    <contour>
      <point x="384" y="732" type="curve" smooth="yes"/>
      <point x="308" y="732"/>
      <point x="220" y="716"/>
      <point x="172" y="696" type="curve"/>
      <point x="154" y="602" type="line"/>
      <point x="165" y="602" type="line"/>
      <point x="205" y="623"/>
      <point x="296" y="644"/>
      <point x="372" y="644" type="curve" smooth="yes"/>
      <point x="512" y="644"/>
      <point x="600" y="588"/>
      <point x="600" y="436" type="curve" smooth="yes"/>
      <point x="600" y="252"/>
      <point x="500" y="76"/>
      <point x="320" y="76" type="curve" smooth="yes"/>
      <point x="198" y="76"/>
      <point x="146" y="132"/>
      <point x="146" y="228" type="curve" smooth="yes"/>
      <point x="146" y="256"/>
      <point x="152" y="296"/>
      <point x="160" y="316" type="curve"/>
      <point x="598" y="316" type="line"/>
      <point x="615" y="400" type="line"/>
      <point x="76" y="400" type="line"/>
      <point x="60" y="360"/>
      <point x="48" y="284"/>
      <point x="48" y="232" type="curve" smooth="yes"/>
      <point x="48" y="81"/>
      <point x="121" y="-12"/>
      <point x="308" y="-12" type="curve" smooth="yes"/>
      <point x="552" y="-12"/>
      <point x="700" y="208"/>
      <point x="700" y="440" type="curve" smooth="yes"/>
      <point x="700" y="624"/>
      <point x="598" y="732"/>
    </contour>
  </outline>
</glyph>
<glyph name="florin" format="2">
  <advance width="616"/>
  <unicode hex="0192"/>
  <note>
florin
</note>
  <outline>
    <contour>
      <point x="24" y="-168" type="curve" smooth="yes"/>
      <point x="-8" y="-168"/>
      <point x="-34" y="-162"/>
      <point x="-56" y="-152" type="curve"/>
      <point x="-64" y="-152" type="line"/>
      <point x="-80" y="-234" type="line"/>
      <point x="-58" y="-242"/>
      <point x="-20" y="-248"/>
      <point x="24" y="-248" type="curve" smooth="yes"/>
      <point x="196" y="-248"/>
      <point x="260" y="-128"/>
      <point x="284" y="-4" type="curve" smooth="yes"/>
      <point x="380" y="488" type="line" smooth="yes"/>
      <point x="399" y="584"/>
      <point x="436" y="652"/>
      <point x="548" y="652" type="curve" smooth="yes"/>
      <point x="580" y="652"/>
      <point x="606" y="646"/>
      <point x="628" y="636" type="curve"/>
      <point x="636" y="636" type="line"/>
      <point x="652" y="718" type="line"/>
      <point x="630" y="726"/>
      <point x="592" y="732"/>
      <point x="548" y="732" type="curve" smooth="yes"/>
      <point x="384" y="732"/>
      <point x="312" y="612"/>
      <point x="288" y="488" type="curve" smooth="yes"/>
      <point x="192" y="-4" type="line" smooth="yes"/>
      <point x="173" y="-100"/>
      <point x="136" y="-168"/>
    </contour>
    <contour>
      <point x="112" y="304" type="line"/>
      <point x="502" y="304" type="line"/>
      <point x="518" y="384" type="line"/>
      <point x="128" y="384" type="line"/>
    </contour>
  </outline>
</glyph>
<glyph name="jdotless" format="2">
  <advance width="284"/>
  <unicode hex="0237"/>
  <note>
dotlessj
</note>
  <anchor x="42" y="-240" name="bottom"/>
  <anchor x="195" y="544" name="top"/>
  <outline>
    <contour>
      <point x="-176" y="-228" type="line"/>
      <point x="-162" y="-234"/>
      <point x="-128" y="-240"/>
      <point x="-92" y="-240" type="curve" smooth="yes"/>
      <point x="48" y="-240"/>
      <point x="108" y="-156"/>
      <point x="128" y="-52" type="curve" smooth="yes"/>
      <point x="244" y="544" type="line"/>
      <point x="146" y="544" type="line"/>
      <point x="142" y="536" type="line"/>
      <point x="143" y="500"/>
      <point x="126" y="412"/>
      <point x="118" y="372" type="curve" smooth="yes"/>
      <point x="36" y="-52" type="line" smooth="yes"/>
      <point x="22" y="-124"/>
      <point x="-12" y="-160"/>
      <point x="-84" y="-160" type="curve" smooth="yes"/>
      <point x="-108" y="-160"/>
      <point x="-130" y="-156"/>
      <point x="-152" y="-148" type="curve"/>
      <point x="-160" y="-148" type="line"/>
    </contour>
  </outline>
</glyph>
<glyph name="apostrophemod" format="2">
  <advance width="212"/>
  <unicode hex="02BC"/>
  <outline>
    <contour>
      <point x="175" y="692" type="curve"/>
      <point x="115" y="610" type="line"/>
      <point x="115" y="604" type="line"/>
      <point x="171" y="604" type="line"/>
      <point x="227" y="680" type="line" smooth="yes"/>
      <point x="237" y="693"/>
      <point x="255" y="714"/>
      <point x="255" y="744" type="curve" smooth="yes"/>
      <point x="255" y="770"/>
      <point x="236" y="788"/>
      <point x="211" y="788" type="curve" smooth="yes"/>
      <point x="180" y="788"/>
      <point x="151" y="767"/>
      <point x="151" y="728" type="curve" smooth="yes"/>
      <point x="151" y="708"/>
      <point x="164" y="696"/>
    </contour>
  </outline>
</glyph>
<glyph name="gravecomb" format="2">
  <unicode hex="0300"/>
  <note>
grave
</note>
  <anchor x="359" y="544" name="_top"/>
  <anchor x="401" y="760" name="top"/>
  <outline>
    <contour>
      <point x="332" y="604" type="line"/>
      <point x="404" y="604" type="line"/>
      <point x="404" y="608" type="line"/>
      <point x="344" y="760" type="line"/>
      <point x="232" y="760" type="line"/>
      <point x="232" y="756" type="line"/>
    </contour>
  </outline>
</glyph>
<glyph name="tildecomb" format="2">
  <unicode hex="0303"/>
  <note>
tilde
</note>
  <anchor x="359" y="544" name="_top"/>
  <anchor x="401" y="760" name="top"/>
  <outline>
    <contour>
      <point x="208" y="632" type="curve"/>
      <point x="268" y="632" type="line"/>
      <point x="272" y="668"/>
      <point x="288" y="700"/>
      <point x="324" y="700" type="curve" smooth="yes"/>
      <point x="344" y="700"/>
      <point x="359" y="688"/>
      <point x="372" y="672" type="curve" smooth="yes"/>
      <point x="389" y="651"/>
      <point x="412" y="632"/>
      <point x="452" y="632" type="curve" smooth="yes"/>
      <point x="516" y="632"/>
      <point x="564" y="688"/>
      <point x="572" y="760" type="curve"/>
      <point x="512" y="760" type="line"/>
      <point x="508" y="724"/>
      <point x="492" y="692"/>
      <point x="456" y="692" type="curve" smooth="yes"/>
      <point x="436" y="692"/>
      <point x="421" y="704"/>
      <point x="408" y="720" type="curve" smooth="yes"/>
      <point x="391" y="741"/>
      <point x="368" y="760"/>
      <point x="328" y="760" type="curve" smooth="yes"/>
      <point x="264" y="760"/>
      <point x="216" y="704"/>
    </contour>
  </outline>
</glyph>
<glyph name="ringcomb" format="2">
  <unicode hex="030A"/>
  <note>
ring
</note>
  <anchor x="359" y="544" name="_top"/>
  <anchor x="416" y="836" name="top"/>
  <outline>
    <contour>
      <point x="386" y="604" type="curve" smooth="yes"/>
      <point x="454" y="604"/>
      <point x="518" y="656"/>
      <point x="518" y="736" type="curve" smooth="yes"/>
      <point x="518" y="800"/>
      <point x="474" y="836"/>
      <point x="406" y="836" type="curve" smooth="yes"/>
      <point x="338" y="836"/>
      <point x="274" y="784"/>
      <point x="274" y="704" type="curve" smooth="yes"/>
      <point x="274" y="640"/>
      <point x="318" y="604"/>
    </contour>
    <contour>
      <point x="386" y="652" type="curve" smooth="yes"/>
      <point x="353" y="652"/>
      <point x="328" y="667"/>
      <point x="328" y="708" type="curve" smooth="yes"/>
      <point x="328" y="755"/>
      <point x="364" y="788"/>
      <point x="406" y="788" type="curve" smooth="yes"/>
      <point x="439" y="788"/>
      <point x="464" y="773"/>
      <point x="464" y="732" type="curve" smooth="yes"/>
      <point x="464" y="685"/>
      <point x="428" y="652"/>
    </contour>
  </outline>
</glyph>
<glyph name="hungarumlautcomb" format="2">
  <unicode hex="030B"/>
  <note>
hungarumlaut
</note>
  <anchor x="407" y="544" name="_top"/>
  <anchor x="453" y="760" name="top"/>
  <outline>
    <contour>
      <point x="408" y="604" type="line"/>
      <point x="480" y="604" type="line"/>
      <point x="640" y="756" type="line"/>
      <point x="640" y="760" type="line"/>
      <point x="532" y="760" type="line"/>
      <point x="408" y="608" type="line"/>
    </contour>
    <contour>
      <point x="232" y="604" type="line"/>
      <point x="304" y="604" type="line"/>
      <point x="464" y="756" type="line"/>
      <point x="464" y="760" type="line"/>
      <point x="356" y="760" type="line"/>
      <point x="232" y="608" type="line"/>
    </contour>
  </outline>
</glyph>
<glyph name="breveinvertedcomb" format="2">
  <unicode hex="0311"/>
  <anchor x="341" y="544" name="_top"/>
  <anchor x="383" y="760" name="top"/>
  <outline>
    <contour>
      <point x="383" y="760" type="curve" smooth="yes"/>
      <point x="291" y="760"/>
      <point x="239" y="700"/>
      <point x="227" y="620" type="curve"/>
      <point x="291" y="620" type="line"/>
      <point x="303" y="668"/>
      <point x="323" y="700"/>
      <point x="379" y="700" type="curve" smooth="yes"/>
      <point x="431" y="700"/>
      <point x="443" y="668"/>
      <point x="439" y="620" type="curve"/>
      <point x="503" y="620" type="line"/>
      <point x="519" y="696"/>
      <point x="471" y="760"/>
    </contour>
  </outline>
</glyph>
<glyph name="commaturnedabovecomb" format="2">
  <unicode hex="0312"/>
  <anchor x="357" y="544" name="_top"/>
  <anchor x="405" y="788" name="top"/>
  <outline>
    <contour>
      <point x="397" y="700" type="curve"/>
      <point x="457" y="782" type="line"/>
      <point x="457" y="788" type="line"/>
      <point x="401" y="788" type="line"/>
      <point x="345" y="712" type="line" smooth="yes"/>
      <point x="335" y="699"/>
      <point x="317" y="678"/>
      <point x="317" y="648" type="curve" smooth="yes"/>
      <point x="317" y="622"/>
      <point x="336" y="604"/>
      <point x="361" y="604" type="curve" smooth="yes"/>
      <point x="392" y="604"/>
      <point x="421" y="625"/>
      <point x="421" y="664" type="curve" smooth="yes"/>
      <point x="421" y="684"/>
      <point x="408" y="696"/>
    </contour>
  </outline>
</glyph>
<glyph name="dieresisbelowcomb" format="2">
  <unicode hex="0324"/>
  <anchor x="253" y="0" name="_bottom"/>
  <anchor x="213" y="-204" name="bottom"/>
  <outline>
    <contour>
      <point x="315" y="-204" type="curve" smooth="yes"/>
      <point x="349" y="-204"/>
      <point x="383" y="-176"/>
      <point x="383" y="-132" type="curve" smooth="yes"/>
      <point x="383" y="-104"/>
      <point x="367" y="-84"/>
      <point x="331" y="-84" type="curve" smooth="yes"/>
      <point x="297" y="-84"/>
      <point x="263" y="-112"/>
      <point x="263" y="-156" type="curve" smooth="yes"/>
      <point x="263" y="-184"/>
      <point x="279" y="-204"/>
    </contour>
    <contour>
      <point x="119" y="-204" type="curve" smooth="yes"/>
      <point x="153" y="-204"/>
      <point x="187" y="-176"/>
      <point x="187" y="-132" type="curve" smooth="yes"/>
      <point x="187" y="-104"/>
      <point x="171" y="-84"/>
      <point x="135" y="-84" type="curve" smooth="yes"/>
      <point x="101" y="-84"/>
      <point x="67" y="-112"/>
      <point x="67" y="-156" type="curve" smooth="yes"/>
      <point x="67" y="-184"/>
      <point x="83" y="-204"/>
    </contour>
  </outline>
</glyph>
<glyph name="commaaccentcomb" format="2">
  <unicode hex="0326"/>
  <note>
commaaccent
</note>
  <anchor x="251" y="0" name="_bottom"/>
  <anchor x="200" y="-236" name="bottom"/>
  <outline>
    <contour>
      <point x="210" y="-148" type="curve"/>
      <point x="150" y="-230" type="line"/>
      <point x="150" y="-236" type="line"/>
      <point x="206" y="-236" type="line"/>
      <point x="262" y="-160" type="line" smooth="yes"/>
      <point x="272" y="-147"/>
      <point x="290" y="-126"/>
      <point x="290" y="-96" type="curve" smooth="yes"/>
      <point x="290" y="-70"/>
      <point x="271" y="-52"/>
      <point x="246" y="-52" type="curve" smooth="yes"/>
      <point x="215" y="-52"/>
      <point x="186" y="-73"/>
      <point x="186" y="-112" type="curve" smooth="yes"/>
      <point x="186" y="-132"/>
      <point x="199" y="-144"/>
    </contour>
  </outline>
</glyph>
<glyph name="brevebelowcomb" format="2">
  <unicode hex="032E"/>
  <note>
breve.below
</note>
  <anchor x="253" y="0" name="_bottom"/>
  <anchor x="210" y="-224" name="bottom"/>
  <outline>
    <contour>
      <point x="224" y="-224" type="curve" smooth="yes"/>
      <point x="316" y="-224"/>
      <point x="368" y="-164"/>
      <point x="380" y="-84" type="curve"/>
      <point x="316" y="-84" type="line"/>
      <point x="304" y="-132"/>
      <point x="284" y="-164"/>
      <point x="228" y="-164" type="curve" smooth="yes"/>
      <point x="176" y="-164"/>
      <point x="164" y="-132"/>
      <point x="168" y="-84" type="curve"/>
      <point x="104" y="-84" type="line"/>
      <point x="88" y="-160"/>
      <point x="136" y="-224"/>
    </contour>
  </outline>
</glyph>
<glyph name="strokeshortcomb" format="2">
  <unicode hex="0335"/>
  <anchor x="250" y="280" name="_center"/>
  <outline>
    <contour>
      <point x="404" y="312" type="line"/>
      <point x="108" y="312" type="line"/>
      <point x="96" y="248" type="line"/>
      <point x="392" y="248" type="line"/>
    </contour>
  </outline>
</glyph>
<glyph name="mu" format="2">
  <advance width="632"/>
  <unicode hex="03BC"/>
  <note>
uni03BC
</note>
  <anchor x="263" y="0" name="bottom"/>
  <anchor x="500" y="28" name="ogonek"/>
  <anchor x="369" y="544" name="top"/>
  <anchor x="529" y="544" name="topright"/>
  <outline>
    <contour>
      <point x="-8" y="-232" type="line"/>
      <point x="90" y="-232" type="line"/>
      <point x="94" y="-224" type="line"/>
      <point x="94" y="-188"/>
      <point x="108" y="-108"/>
      <point x="116" y="-68" type="curve" smooth="yes"/>
      <point x="176" y="232" type="line"/>
      <point x="112" y="380" type="line"/>
    </contour>
    <component base="u"/>
  </outline>
</glyph>
<glyph name="footnotemarker-ar" format="2">
  <advance width="1330"/>
  <unicode hex="0602"/>
  <outline>
    <contour>
      <point x="464" y="132" type="curve" smooth="yes"/>
      <point x="465" y="46" type="line"/>
      <point x="556" y="46" type="line"/>
      <point x="556" y="156" type="line" smooth="yes"/>
      <point x="556" y="329"/>
      <point x="429" y="476"/>
      <point x="296" y="476" type="curve" smooth="yes"/>
      <point x="183" y="476"/>
      <point x="60" y="364"/>
      <point x="60" y="224" type="curve" smooth="yes"/>
      <point x="60" y="71"/>
      <point x="184" y="0"/>
      <point x="328" y="0" type="curve" smooth="yes"/>
      <point x="1250" y="0" type="line" name="hr00"/>
      <point x="1250" y="85" type="line"/>
      <point x="348" y="85" type="line" smooth="yes"/>
      <point x="225" y="85"/>
      <point x="152" y="138"/>
      <point x="152" y="226" type="curve" smooth="yes"/>
      <point x="152" y="303"/>
      <point x="202" y="386"/>
      <point x="317" y="428" type="curve"/>
      <point x="259" y="416" type="line"/>
      <point x="410" y="382"/>
      <point x="463" y="244"/>
    </contour>
  </outline>
</glyph>
<glyph name="comma-ar" format="2">
  <advance width="288"/>
  <unicode hex="060C"/>
  <note>
uni060C
</note>
  <outline>
    <contour>
      <point x="78" y="79" type="curve" smooth="yes"/>
      <point x="78" y="27"/>
      <point x="108" y="-5"/>
      <point x="149" y="-5" type="curve" smooth="yes"/>
      <point x="187" y="-5"/>
      <point x="211" y="21"/>
      <point x="211" y="54" type="curve" smooth="yes"/>
      <point x="211" y="86"/>
      <point x="188" y="107"/>
      <point x="152" y="108" type="curve"/>
      <point x="163" y="148"/>
      <point x="202" y="176"/>
      <point x="202" y="176" type="curve"/>
      <point x="202" y="184" type="line"/>
      <point x="156" y="202" type="line"/>
      <point x="113" y="177"/>
      <point x="78" y="127"/>
    </contour>
  </outline>
</glyph>
<glyph name="ain-ar" format="2">
  <advance width="496"/>
  <unicode hex="0639"/>
  <note>
uni0639
</note>
  <anchor x="224" y="-256" name="bottom"/>
  <anchor x="204" y="442" name="top"/>
  <outline>
    <contour>
      <point x="9" y="-100" type="curve" smooth="yes"/>
      <point x="9" y="-202"/>
      <point x="102" y="-256"/>
      <point x="232" y="-256" type="curve" smooth="yes"/>
      <point x="404" y="-256" type="line"/>
      <point x="432" y="-179" type="line"/>
      <point x="432" y="-171" type="line"/>
      <point x="277" y="-171" type="line" smooth="yes"/>
      <point x="156" y="-171"/>
      <point x="80" y="-155"/>
      <point x="58" y="-84" type="curve"/>
      <point x="71" y="-126" type="line"/>
      <point x="75" y="-61"/>
      <point x="137" y="0"/>
      <point x="272" y="0" type="curve" smooth="yes"/>
      <point x="428" y="0" type="line"/>
      <point x="456" y="77" type="line"/>
      <point x="456" y="85" type="line"/>
      <point x="308" y="85" type="line" smooth="yes"/>
      <point x="234" y="85"/>
      <point x="172" y="128"/>
      <point x="172" y="194" type="curve" smooth="yes"/>
      <point x="172" y="274"/>
      <point x="229" y="338"/>
      <point x="416" y="468" type="curve"/>
      <point x="384" y="544" type="line"/>
      <point x="376" y="544" type="line"/>
      <point x="184" y="415"/>
      <point x="84" y="307"/>
      <point x="84" y="196" type="curve" smooth="yes"/>
      <point x="84" y="111"/>
      <point x="132" y="71"/>
      <point x="183" y="50" type="curve"/>
      <point x="226" y="76" type="line"/>
      <point x="65" y="57"/>
      <point x="9" y="-31"/>
    </contour>
  </outline>
</glyph>
<glyph name="lam-ar" format="2">
  <advance width="536"/>
  <unicode hex="0644"/>
  <note>
uni0644
</note>
  <anchor x="444" y="0" name="*entry"/>
  <anchor x="391" y="424" name="bar"/>
  <anchor x="200" y="-256" name="bottom"/>
  <anchor x="103" y="304" name="top"/>
  <outline>
    <contour>
      <point x="4" y="-35" type="curve"/>
      <point x="-4" y="-35" type="line"/>
      <point x="-36" y="-116" type="line"/>
      <point x="21" y="-196"/>
      <point x="113" y="-256"/>
      <point x="200" y="-256" type="curve" smooth="yes"/>
      <point x="328" y="-256"/>
      <point x="440" y="-154"/>
      <point x="440" y="80" type="curve" smooth="yes"/>
      <point x="440" y="760" type="line"/>
      <point x="432" y="760" type="line"/>
      <point x="348" y="748" type="line"/>
      <point x="348" y="48" type="line" smooth="yes"/>
      <point x="348" y="-48"/>
      <point x="332" y="-134"/>
      <point x="308" y="-178" type="curve"/>
      <point x="356" y="-122" type="line"/>
      <point x="308" y="-161"/>
      <point x="277" y="-171"/>
      <point x="236" y="-171" type="curve" smooth="yes"/>
      <point x="163" y="-171"/>
      <point x="79" y="-139"/>
    </contour>
  </outline>
</glyph>
<glyph name="alefMaksura-ar" format="2">
  <advance width="689"/>
  <unicode hex="0649"/>
  <note>
uni0649
</note>
  <anchor x="173" y="-264" name="bottom"/>
  <anchor x="110" y="50" name="center"/>
  <anchor x="493" y="460" name="high"/>
  <anchor x="173" y="-264" name="ring"/>
  <anchor x="9" y="-142" name="tail"/>
  <anchor x="61" y="220" name="top"/>
  <outline>
    <contour>
      <point x="173" y="-264" type="curve" smooth="yes"/>
      <point x="399" y="-264"/>
      <point x="537" y="-142"/>
      <point x="537" y="-36" type="curve" smooth="yes"/>
      <point x="537" y="31"/>
      <point x="321" y="111"/>
      <point x="321" y="204" type="curve" smooth="yes"/>
      <point x="321" y="285"/>
      <point x="464" y="359"/>
      <point x="471" y="363" type="curve"/>
      <point x="454" y="378" type="line"/>
      <point x="484" y="325"/>
      <point x="542" y="266"/>
      <point x="601" y="212" type="curve"/>
      <point x="609" y="212" type="line"/>
      <point x="661" y="276" type="line"/>
      <point x="612" y="317"/>
      <point x="549" y="397"/>
      <point x="501" y="460" type="curve"/>
      <point x="493" y="460" type="line"/>
      <point x="358" y="400"/>
      <point x="233" y="308"/>
      <point x="233" y="188" type="curve" smooth="yes"/>
      <point x="233" y="64"/>
      <point x="419" y="-35"/>
      <point x="477" y="-86" type="curve"/>
      <point x="480" y="-46" type="line"/>
      <point x="440" y="-113"/>
      <point x="321" y="-179"/>
      <point x="205" y="-179" type="curve" smooth="yes"/>
      <point x="118" y="-179"/>
      <point x="46" y="-157"/>
      <point x="9" y="-142" type="curve"/>
      <point x="1" y="-142" type="line"/>
      <point x="-20" y="-224" type="line"/>
      <point x="21" y="-240"/>
      <point x="97" y="-264"/>
    </contour>
  </outline>
</glyph>
<glyph name="sukun-ar" format="2">
  <unicode hex="0652"/>
  <note>
uni0652
</note>
  <anchor x="179" y="548" name="_top"/>
  <anchor x="179" y="825" name="top"/>
  <outline>
    <contour>
      <point x="173" y="623" type="curve" smooth="yes"/>
      <point x="228" y="623"/>
      <point x="268" y="669"/>
      <point x="268" y="719" type="curve" smooth="yes"/>
      <point x="268" y="777"/>
      <point x="226" y="812"/>
      <point x="183" y="812" type="curve" smooth="yes"/>
      <point x="126" y="812"/>
      <point x="83" y="764"/>
      <point x="83" y="710" type="curve" smooth="yes"/>
      <point x="83" y="664"/>
      <point x="116" y="623"/>
    </contour>
    <contour>
      <point x="175" y="666" type="curve" smooth="yes"/>
      <point x="153" y="666"/>
      <point x="136" y="685"/>
      <point x="136" y="710" type="curve" smooth="yes"/>
      <point x="136" y="739"/>
      <point x="160" y="778"/>
      <point x="212" y="776" type="curve"/>
      <point x="191" y="792" type="line"/>
      <point x="165" y="782" type="line"/>
      <point x="193" y="770"/>
      <point x="219" y="739"/>
      <point x="222" y="700" type="curve"/>
      <point x="215" y="683"/>
      <point x="195" y="666"/>
    </contour>
  </outline>
</glyph>
<glyph name="madda-ar" format="2">
  <unicode hex="0653"/>
  <note>
uni0653
</note>
  <anchor x="161" y="-50" name="_top"/>
  <anchor x="161" y="119" name="top"/>
  <outline>
    <contour>
      <point x="215" y="12" type="curve" smooth="yes"/>
      <point x="256" y="12"/>
      <point x="290" y="30"/>
      <point x="310" y="51" type="curve"/>
      <point x="279" y="93" type="line"/>
      <point x="273" y="93" type="line"/>
      <point x="234" y="61"/>
      <point x="182" y="67"/>
      <point x="170" y="67" type="curve"/>
      <point x="230" y="33" type="line"/>
      <point x="224" y="45"/>
      <point x="179" y="97"/>
      <point x="125" y="97" type="curve" smooth="yes"/>
      <point x="84" y="97"/>
      <point x="50" y="79"/>
      <point x="30" y="58" type="curve"/>
      <point x="61" y="16" type="line"/>
      <point x="67" y="16" type="line"/>
      <point x="100" y="43"/>
      <point x="138" y="42"/>
      <point x="178" y="44" type="curve"/>
      <point x="121" y="64" type="line"/>
      <point x="127" y="51"/>
      <point x="171" y="12"/>
    </contour>
  </outline>
</glyph>
<glyph name="five-ar" format="2">
  <advance width="630"/>
  <unicode hex="0665"/>
  <note>
uni0665
</note>
  <outline>
    <contour>
      <point x="52" y="364" type="curve" smooth="yes"/>
      <point x="52" y="175"/>
      <point x="172" y="69"/>
      <point x="311" y="69" type="curve" smooth="yes"/>
      <point x="443" y="69"/>
      <point x="578" y="173"/>
      <point x="578" y="372" type="curve" smooth="yes"/>
      <point x="578" y="502"/>
      <point x="502" y="708"/>
      <point x="327" y="708" type="curve" smooth="yes"/>
      <point x="150" y="708"/>
      <point x="52" y="506"/>
    </contour>
    <contour>
      <point x="144" y="363" type="curve" smooth="yes"/>
      <point x="144" y="521"/>
      <point x="242" y="623"/>
      <point x="321" y="623" type="curve" smooth="yes"/>
      <point x="449" y="623"/>
      <point x="504" y="412"/>
      <point x="504" y="283" type="curve"/>
      <point x="509" y="333" type="line"/>
      <point x="485" y="236"/>
      <point x="417" y="154"/>
      <point x="321" y="154" type="curve" smooth="yes"/>
      <point x="211" y="154"/>
      <point x="144" y="250"/>
    </contour>
  </outline>
</glyph>
<glyph name="six-ar" format="2">
  <advance width="562"/>
  <unicode hex="0666"/>
  <note>
uni0666
</note>
  <outline>
    <contour>
      <point x="369" y="0" type="line"/>
      <point x="462" y="0" type="line"/>
      <point x="462" y="586" type="line" smooth="yes"/>
      <point x="462" y="626"/>
      <point x="462" y="696"/>
      <point x="470" y="732" type="curve"/>
      <point x="460" y="739" type="line"/>
      <point x="398" y="723"/>
      <point x="341" y="716"/>
      <point x="256" y="716" type="curve" smooth="yes"/>
      <point x="200" y="716"/>
      <point x="113" y="721"/>
      <point x="68" y="748" type="curve"/>
      <point x="55" y="748" type="line"/>
      <point x="40" y="673" type="line"/>
      <point x="84" y="639"/>
      <point x="164" y="631"/>
      <point x="226" y="631" type="curve" smooth="yes"/>
      <point x="288" y="631"/>
      <point x="334" y="637"/>
      <point x="395" y="656" type="curve"/>
      <point x="369" y="691" type="line"/>
    </contour>
  </outline>
</glyph>
<glyph name="behDotless-ar" format="2">
  <advance width="1128"/>
  <unicode hex="066E"/>
  <note>
uni066E
</note>
  <anchor x="848" y="0" name="*entry"/>
  <anchor x="574" y="0" name="bottom"/>
  <anchor x="564" y="0" name="ring"/>
  <anchor x="574" y="336" name="top"/>
  <outline>
    <contour>
      <point x="66" y="150" type="line"/>
      <point x="48" y="69" type="line"/>
      <point x="73" y="58"/>
      <point x="108" y="44"/>
      <point x="147" y="35" type="curve" smooth="yes"/>
      <point x="292" y="1"/>
      <point x="404" y="0"/>
      <point x="524" y="0" type="curve" smooth="yes"/>
      <point x="848" y="0" type="line" smooth="yes"/>
      <point x="932" y="0"/>
      <point x="1000" y="8"/>
      <point x="1040" y="24" type="curve"/>
      <point x="1040" y="32" type="line"/>
      <point x="1032" y="68"/>
      <point x="1032" y="132"/>
      <point x="1032" y="172" type="curve" smooth="yes"/>
      <point x="1032" y="504" type="line"/>
      <point x="1024" y="504" type="line"/>
      <point x="940" y="492" type="line"/>
      <point x="940" y="160" type="line" smooth="yes"/>
      <point x="940" y="118"/>
      <point x="947" y="83"/>
      <point x="952" y="64" type="curve"/>
      <point x="986" y="85" type="line"/>
      <point x="524" y="85" type="line" smooth="yes"/>
      <point x="438" y="85"/>
      <point x="281" y="85"/>
      <point x="176" y="115" type="curve" smooth="yes"/>
      <point x="153" y="122"/>
      <point x="96" y="139"/>
      <point x="74" y="150" type="curve"/>
    </contour>
  </outline>
</glyph>
<glyph name="asteriskArt-ar" format="2">
  <advance width="1096"/>
  <unicode hex="06DE"/>
  <outline>
    <contour>
      <point x="196" y="637" type="line"/>
      <point x="196" y="-67" type="line"/>
      <point x="900" y="-67" type="line"/>
      <point x="900" y="637" type="line"/>
    </contour>
    <contour>
      <point x="219" y="614" type="line"/>
      <point x="877" y="614" type="line"/>
      <point x="877" y="-44" type="line"/>
      <point x="219" y="-44" type="line"/>
    </contour>
    <contour>
      <point x="548" y="175" type="curve" smooth="yes"/>
      <point x="611" y="175"/>
      <point x="658" y="223"/>
      <point x="658" y="286" type="curve" smooth="yes"/>
      <point x="658" y="348"/>
      <point x="611" y="395"/>
      <point x="548" y="395" type="curve" smooth="yes"/>
      <point x="485" y="395"/>
      <point x="438" y="348"/>
      <point x="438" y="286" type="curve" smooth="yes"/>
      <point x="438" y="223"/>
      <point x="485" y="175"/>
    </contour>
    <contour>
      <point x="548" y="198" type="curve" smooth="yes"/>
      <point x="498" y="198"/>
      <point x="461" y="236"/>
      <point x="461" y="286" type="curve" smooth="yes"/>
      <point x="461" y="335"/>
      <point x="498" y="372"/>
      <point x="548" y="372" type="curve" smooth="yes"/>
      <point x="598" y="372"/>
      <point x="635" y="335"/>
      <point x="635" y="286" type="curve" smooth="yes"/>
      <point x="635" y="236"/>
      <point x="598" y="198"/>
    </contour>
    <contour>
      <point x="50" y="285" type="line"/>
      <point x="548" y="-213" type="line"/>
      <point x="1046" y="285" type="line"/>
      <point x="548" y="783" type="line"/>
    </contour>
    <contour>
      <point x="83" y="285" type="line"/>
      <point x="548" y="750" type="line"/>
      <point x="1013" y="285" type="line"/>
      <point x="548" y="-180" type="line"/>
    </contour>
  </outline>
</glyph>
<glyph name="Germandbls" format="2">
  <advance width="672"/>
  <unicode hex="1E9E"/>
  <outline>
    <contour>
      <point x="352" y="-12" type="curve" smooth="yes"/>
      <point x="528" y="-12"/>
      <point x="620" y="83"/>
      <point x="620" y="220" type="curve" smooth="yes"/>
      <point x="620" y="312"/>
      <point x="560" y="392"/>
      <point x="428" y="400" type="curve"/>
      <point x="428" y="369" type="line"/>
      <point x="632" y="624" type="line" smooth="yes"/>
      <point x="668" y="669"/>
      <point x="664" y="697"/>
      <point x="664" y="712" type="curve"/>
      <point x="656" y="720" type="line"/>
      <point x="221" y="720" type="line"/>
      <point x="206" y="640" type="line"/>
      <point x="578" y="640" type="line"/>
      <point x="560" y="668" type="line"/>
      <point x="324" y="368" type="line"/>
      <point x="336" y="324" type="line"/>
      <point x="396" y="324" type="line" smooth="yes"/>
      <point x="496" y="324"/>
      <point x="528" y="276"/>
      <point x="528" y="216" type="curve" smooth="yes"/>
      <point x="528" y="139"/>
      <point x="484" y="72"/>
      <point x="360" y="72" type="curve" smooth="yes"/>
      <point x="316" y="72"/>
      <point x="283" y="78"/>
      <point x="245" y="94" type="curve"/>
      <point x="237" y="94" type="line"/>
      <point x="221" y="8" type="line"/>
      <point x="260" y="-4"/>
      <point x="300" y="-12"/>
    </contour>
    <contour>
      <point x="44" y="0" type="line"/>
      <point x="140" y="0" type="line"/>
      <point x="280" y="720" type="line"/>
      <point x="184" y="720" type="line"/>
    </contour>
  </outline>
</glyph>
<glyph name="emdash" format="2">
  <advance width="1000"/>
  <unicode hex="2014"/>
  <note>
emdash
</note>
  <outline>
    <contour>
      <point x="40" y="372" type="line"/>
      <point x="24" y="292" type="line"/>
      <point x="992" y="292" type="line"/>
      <point x="1008" y="372" type="line"/>
    </contour>
  </outline>
</glyph>
<glyph name="quoteleft" format="2">
  <advance width="280"/>
  <unicode hex="2018"/>
  <note>
quoteleft
</note>
  <outline>
    <contour>
      <point x="220" y="576" type="curve"/>
      <point x="320" y="712" type="line"/>
      <point x="320" y="720" type="line"/>
      <point x="244" y="720" type="line"/>
      <point x="160" y="596" type="line" smooth="yes"/>
      <point x="140" y="566"/>
      <point x="124" y="536"/>
      <point x="124" y="504" type="curve" smooth="yes"/>
      <point x="124" y="468"/>
      <point x="144" y="444"/>
      <point x="180" y="444" type="curve" smooth="yes"/>
      <point x="221" y="444"/>
      <point x="252" y="480"/>
      <point x="252" y="520" type="curve" smooth="yes"/>
      <point x="252" y="556"/>
      <point x="235" y="569"/>
    </contour>
  </outline>
</glyph>
<glyph name="minute" format="2">
  <advance width="180"/>
  <unicode hex="2032"/>
  <outline>
    <contour>
      <point x="96" y="484" type="line"/>
      <point x="172" y="484" type="line"/>
      <point x="220" y="720" type="line"/>
      <point x="136" y="720" type="line"/>
    </contour>
  </outline>
</glyph>
<glyph name="guilsinglright" format="2">
  <advance width="344"/>
  <unicode hex="203A"/>
  <note>
guilsinglright
</note>
  <outline>
    <contour>
      <point x="18" y="72" type="line"/>
      <point x="26" y="72" type="line"/>
      <point x="310" y="292" type="line"/>
      <point x="318" y="324" type="line"/>
      <point x="122" y="544" type="line"/>
      <point x="114" y="544" type="line"/>
      <point x="96" y="456" type="line"/>
      <point x="222" y="314" type="line"/>
      <point x="38" y="176" type="line"/>
    </contour>
  </outline>
</glyph>
<glyph name="oneinferior" format="2">
  <advance width="397"/>
  <unicode hex="2081"/>
  <note>
uni2081
</note>
  <outline>
    <contour>
      <point x="97" y="-106" type="line"/>
      <point x="181" y="-106" type="line"/>
      <point x="228" y="140" type="line" smooth="yes"/>
      <point x="232" y="163"/>
      <point x="242" y="211"/>
      <point x="250" y="231" type="curve"/>
      <point x="250" y="237" type="line"/>
      <point x="238" y="240"/>
      <point x="214" y="243"/>
      <point x="178" y="243" type="curve" smooth="yes"/>
      <point x="127" y="243"/>
      <point x="76" y="241"/>
      <point x="55" y="235" type="curve"/>
      <point x="45" y="174" type="line"/>
      <point x="155" y="174" type="line"/>
      <point x="150" y="165"/>
      <point x="143" y="137"/>
      <point x="141" y="124" type="curve"/>
    </contour>
    <contour>
      <point x="288" y="-90" type="line"/>
      <point x="-16" y="-90" type="line"/>
      <point x="-30" y="-160" type="line"/>
      <point x="274" y="-160" type="line"/>
    </contour>
  </outline>
</glyph>
<glyph name="twoinferior" format="2">
  <advance width="397"/>
  <unicode hex="2082"/>
  <note>
uni2082
</note>
  <outline>
    <contour>
      <point x="-27" y="-160" type="curve"/>
      <point x="-6" y="-160" type="line"/>
      <point x="54" y="-109" type="line"/>
      <point x="54" y="-66"/>
      <point x="80" y="-41"/>
      <point x="138" y="-26" type="curve" smooth="yes"/>
      <point x="169" y="-18" type="line" smooth="yes"/>
      <point x="259" y="5"/>
      <point x="318" y="45"/>
      <point x="317" y="132" type="curve" smooth="yes"/>
      <point x="316" y="196"/>
      <point x="270" y="248"/>
      <point x="161" y="248" type="curve" smooth="yes"/>
      <point x="123" y="248"/>
      <point x="86" y="243"/>
      <point x="56" y="231" type="curve"/>
      <point x="45" y="162" type="line"/>
      <point x="51" y="162" type="line"/>
      <point x="75" y="171"/>
      <point x="108" y="181"/>
      <point x="147" y="181" type="curve" smooth="yes"/>
      <point x="205" y="181"/>
      <point x="233" y="162"/>
      <point x="234" y="127" type="curve" smooth="yes"/>
      <point x="235" y="80"/>
      <point x="206" y="60"/>
      <point x="153" y="46" type="curve" smooth="yes"/>
      <point x="122" y="38" type="line" smooth="yes"/>
      <point x="12" y="10"/>
      <point x="-29" y="-49"/>
      <point x="-29" y="-138" type="curve" smooth="yes"/>
      <point x="-29" y="-148"/>
      <point x="-28" y="-156"/>
    </contour>
    <contour>
      <point x="-6" y="-160" type="line"/>
      <point x="268" y="-160" type="line"/>
      <point x="282" y="-94" type="line"/>
      <point x="39" y="-94" type="line"/>
    </contour>
  </outline>
</glyph>
<glyph name="fourinferior" format="2">
  <advance width="397"/>
  <unicode hex="2084"/>
  <note>
uni2084
</note>
  <outline>
    <contour>
      <point x="159" y="-160" type="line"/>
      <point x="240" y="-160" type="line"/>
      <point x="299" y="149" type="line"/>
      <point x="303" y="171"/>
      <point x="313" y="209"/>
      <point x="322" y="230" type="curve"/>
      <point x="322" y="235" type="line"/>
      <point x="303" y="241"/>
      <point x="277" y="245"/>
      <point x="244" y="245" type="curve" smooth="yes"/>
      <point x="149" y="245"/>
      <point x="89" y="210"/>
      <point x="39" y="108" type="curve" smooth="yes"/>
      <point x="-18" y="-3" type="line"/>
      <point x="-28" y="-63" type="line"/>
      <point x="315" y="-63" type="line"/>
      <point x="327" y="5" type="line"/>
      <point x="68" y="5" type="line"/>
      <point x="116" y="100" type="line" smooth="yes"/>
      <point x="151" y="171"/>
      <point x="182" y="178"/>
      <point x="229" y="178" type="curve"/>
      <point x="238" y="194" type="line"/>
      <point x="226" y="184"/>
      <point x="222" y="164"/>
      <point x="219" y="148" type="curve" smooth="yes"/>
    </contour>
  </outline>
</glyph>
<glyph name="sixinferior" format="2">
  <advance width="397"/>
  <unicode hex="2086"/>
  <note>
uni2086
</note>
  <outline>
    <contour>
      <point x="142" y="-168" type="curve" smooth="yes"/>
      <point x="241" y="-168"/>
      <point x="307" y="-107"/>
      <point x="307" y="-17" type="curve" smooth="yes"/>
      <point x="307" y="54"/>
      <point x="262" y="101"/>
      <point x="177" y="101" type="curve" smooth="yes"/>
      <point x="125" y="101"/>
      <point x="92" y="81"/>
      <point x="67" y="57" type="curve"/>
      <point x="21" y="57" type="line"/>
      <point x="21" y="-5" type="line"/>
      <point x="56" y="-5" type="line"/>
      <point x="80" y="19"/>
      <point x="112" y="41"/>
      <point x="156" y="41" type="curve" smooth="yes"/>
      <point x="200" y="41"/>
      <point x="227" y="18"/>
      <point x="227" y="-23" type="curve" smooth="yes"/>
      <point x="227" y="-62"/>
      <point x="203" y="-104"/>
      <point x="146" y="-104" type="curve" smooth="yes"/>
      <point x="95" y="-104"/>
      <point x="70" y="-74"/>
      <point x="70" y="-18" type="curve" smooth="yes"/>
      <point x="70" y="103"/>
      <point x="118" y="183"/>
      <point x="229" y="183" type="curve" smooth="yes"/>
      <point x="260" y="183"/>
      <point x="286" y="177"/>
      <point x="300" y="170" type="curve"/>
      <point x="306" y="170" type="line"/>
      <point x="319" y="238" type="line"/>
      <point x="301" y="245"/>
      <point x="267" y="248"/>
      <point x="237" y="248" type="curve" smooth="yes"/>
      <point x="50" y="248"/>
      <point x="-14" y="114"/>
      <point x="-13" y="-17" type="curve" smooth="yes"/>
      <point x="-11" y="-105"/>
      <point x="40" y="-168"/>
    </contour>
  </outline>
</glyph>
<glyph name="seveninferior" format="2">
  <advance width="397"/>
  <unicode hex="2087"/>
  <note>
uni2087
</note>
  <outline>
    <contour>
      <point x="53" y="240" type="line"/>
      <point x="39" y="171" type="line"/>
      <point x="282" y="171" type="line"/>
      <point x="269" y="197" type="line"/>
      <point x="17" y="-154" type="line"/>
      <point x="17" y="-160" type="line"/>
      <point x="104" y="-160" type="line"/>
      <point x="315" y="148" type="line" smooth="yes"/>
      <point x="334" y="176"/>
      <point x="344" y="203"/>
      <point x="344" y="234" type="curve"/>
      <point x="338" y="240" type="line"/>
    </contour>
  </outline>
</glyph>
<glyph name="nineinferior" format="2">
  <advance width="397"/>
  <unicode hex="2089"/>
  <note>
uni2089
</note>
  <outline>
    <contour>
      <point x="76" y="-168" type="curve" smooth="yes"/>
      <point x="263" y="-168"/>
      <point x="327" y="-33"/>
      <point x="325" y="96" type="curve" smooth="yes"/>
      <point x="324" y="185"/>
      <point x="274" y="245"/>
      <point x="171" y="245" type="curve" smooth="yes"/>
      <point x="73" y="245"/>
      <point x="5" y="185"/>
      <point x="6" y="95" type="curve" smooth="yes"/>
      <point x="7" y="26"/>
      <point x="52" y="-18"/>
      <point x="136" y="-18" type="curve" smooth="yes"/>
      <point x="182" y="-18"/>
      <point x="211" y="-5"/>
      <point x="235" y="13" type="curve"/>
      <point x="282" y="13" type="line"/>
      <point x="282" y="74" type="line"/>
      <point x="244" y="74" type="line"/>
      <point x="224" y="55"/>
      <point x="195" y="41"/>
      <point x="160" y="41" type="curve" smooth="yes"/>
      <point x="113" y="41"/>
      <point x="86" y="64"/>
      <point x="86" y="103" type="curve" smooth="yes"/>
      <point x="86" y="142"/>
      <point x="110" y="186"/>
      <point x="168" y="186" type="curve" smooth="yes"/>
      <point x="218" y="186"/>
      <point x="243" y="152"/>
      <point x="243" y="93" type="curve" smooth="yes"/>
      <point x="243" y="-21"/>
      <point x="192" y="-101"/>
      <point x="84" y="-101" type="curve" smooth="yes"/>
      <point x="53" y="-101"/>
      <point x="28" y="-97"/>
      <point x="14" y="-90" type="curve"/>
      <point x="7" y="-90" type="line"/>
      <point x="-6" y="-158" type="line"/>
      <point x="13" y="-164"/>
      <point x="46" y="-168"/>
    </contour>
  </outline>
</glyph>
<glyph name="naira" format="2">
  <advance width="724"/>
  <unicode hex="20A6"/>
  <outline>
    <contour>
      <point x="44" y="0" type="line"/>
      <point x="140" y="0" type="line"/>
      <point x="258" y="606" type="line"/>
      <point x="220" y="596" type="line"/>
      <point x="496" y="0" type="line"/>
      <point x="576" y="0" type="line"/>
      <point x="716" y="720" type="line"/>
      <point x="620" y="720" type="line"/>
      <point x="502" y="114" type="line"/>
      <point x="540" y="124" type="line"/>
      <point x="264" y="720" type="line"/>
      <point x="184" y="720" type="line"/>
    </contour>
    <contour>
      <point x="7" y="244" type="line"/>
      <point x="707" y="244" type="line"/>
      <point x="723" y="324" type="line"/>
      <point x="23" y="324" type="line"/>
    </contour>
    <contour>
      <point x="38" y="400" type="line"/>
      <point x="738" y="400" type="line"/>
      <point x="753" y="480" type="line"/>
      <point x="53" y="480" type="line"/>
    </contour>
  </outline>
</glyph>
<glyph name="peseta" format="2">
  <advance width="1114"/>
  <unicode hex="20A7"/>
  <outline>
    <contour>
      <point x="129" y="240" type="line"/>
      <point x="246" y="240" type="line" smooth="yes"/>
      <point x="413" y="240"/>
      <point x="555" y="366"/>
      <point x="555" y="530" type="curve" smooth="yes"/>
      <point x="555" y="659"/>
      <point x="481" y="720"/>
      <point x="332" y="720" type="curve" smooth="yes"/>
      <point x="223" y="720" type="line"/>
      <point x="206" y="636" type="line"/>
      <point x="332" y="636" type="line" smooth="yes"/>
      <point x="410" y="636"/>
      <point x="454" y="613"/>
      <point x="454" y="528" type="curve" smooth="yes"/>
      <point x="454" y="409"/>
      <point x="372" y="324"/>
      <point x="252" y="324" type="curve" smooth="yes"/>
      <point x="146" y="324" type="line"/>
    </contour>
    <contour>
      <point x="27" y="0" type="line"/>
      <point x="123" y="0" type="line"/>
      <point x="263" y="720" type="line"/>
      <point x="167" y="720" type="line"/>
    </contour>
    <contour>
      <point x="635" y="-6" type="curve" smooth="yes"/>
      <point x="664" y="-6"/>
      <point x="688" y="-1"/>
      <point x="707" y="7" type="curve"/>
      <point x="720" y="76" type="line"/>
      <point x="713" y="76" type="line"/>
      <point x="698" y="69"/>
      <point x="678" y="65"/>
      <point x="666" y="65" type="curve" smooth="yes"/>
      <point x="625" y="65"/>
      <point x="605" y="79"/>
      <point x="605" y="113" type="curve" smooth="yes"/>
      <point x="605" y="120"/>
      <point x="606" y="129"/>
      <point x="608" y="139" type="curve" smooth="yes"/>
      <point x="644" y="328" type="line"/>
      <point x="754" y="328" type="line"/>
      <point x="768" y="398" type="line"/>
      <point x="658" y="398" type="line"/>
      <point x="678" y="503" type="line"/>
      <point x="593" y="503" type="line"/>
      <point x="573" y="398" type="line"/>
      <point x="451" y="398" type="line"/>
      <point x="437" y="328" type="line"/>
      <point x="559" y="328" type="line"/>
      <point x="521" y="132" type="line" smooth="yes"/>
      <point x="518" y="118"/>
      <point x="517" y="105"/>
      <point x="517" y="94" type="curve" smooth="yes"/>
      <point x="517" y="29"/>
      <point x="557" y="-6"/>
    </contour>
    <contour>
      <point x="848" y="-5" type="curve" smooth="yes"/>
      <point x="956" y="-5"/>
      <point x="1033" y="42"/>
      <point x="1033" y="128" type="curve" smooth="yes"/>
      <point x="1033" y="193"/>
      <point x="983" y="214"/>
      <point x="936" y="228" type="curve" smooth="yes"/>
      <point x="912" y="235" type="line" smooth="yes"/>
      <point x="879" y="245"/>
      <point x="857" y="252"/>
      <point x="857" y="282" type="curve" smooth="yes"/>
      <point x="857" y="321"/>
      <point x="905" y="336"/>
      <point x="948" y="336" type="curve" smooth="yes"/>
      <point x="978" y="336"/>
      <point x="1007" y="330"/>
      <point x="1038" y="317" type="curve"/>
      <point x="1044" y="317" type="line"/>
      <point x="1058" y="388" type="line"/>
      <point x="1033" y="398"/>
      <point x="997" y="404"/>
      <point x="956" y="404" type="curve" smooth="yes"/>
      <point x="842" y="404"/>
      <point x="775" y="344"/>
      <point x="775" y="273" type="curve" smooth="yes"/>
      <point x="775" y="211"/>
      <point x="815" y="189"/>
      <point x="872" y="171" type="curve" smooth="yes"/>
      <point x="894" y="164" type="line" smooth="yes"/>
      <point x="925" y="154"/>
      <point x="951" y="149"/>
      <point x="951" y="116" type="curve" smooth="yes"/>
      <point x="951" y="76"/>
      <point x="901" y="63"/>
      <point x="857" y="63" type="curve" smooth="yes"/>
      <point x="824" y="63"/>
      <point x="776" y="71"/>
      <point x="745" y="87" type="curve"/>
      <point x="740" y="87" type="line"/>
      <point x="725" y="12" type="line"/>
      <point x="759" y="0"/>
      <point x="803" y="-5"/>
    </contour>
  </outline>
</glyph>
<glyph name="dong" format="2">
  <advance width="618"/>
  <unicode hex="20AB"/>
  <outline>
    <contour>
      <point x="662" y="756" type="line"/>
      <point x="366" y="756" type="line"/>
      <point x="353" y="684" type="line"/>
      <point x="649" y="684" type="line"/>
    </contour>
    <contour>
      <point x="304" y="136" type="curve" smooth="yes"/>
      <point x="354" y="136"/>
      <point x="420" y="148"/>
      <point x="481" y="170" type="curve"/>
      <point x="484" y="178" type="line"/>
      <point x="483" y="214"/>
      <point x="500" y="302"/>
      <point x="508" y="342" type="curve" smooth="yes"/>
      <point x="602" y="826" type="line"/>
      <point x="504" y="826" type="line"/>
      <point x="501" y="818" type="line"/>
      <point x="502" y="782"/>
      <point x="488" y="712"/>
      <point x="483" y="684" type="curve" smooth="yes"/>
      <point x="464" y="588" type="line"/>
      <point x="485" y="610" type="line"/>
      <point x="464" y="620"/>
      <point x="428" y="628"/>
      <point x="376" y="628" type="curve" smooth="yes"/>
      <point x="185" y="628"/>
      <point x="85" y="494"/>
      <point x="85" y="351" type="curve" smooth="yes"/>
      <point x="85" y="207"/>
      <point x="163" y="136"/>
    </contour>
    <contour>
      <point x="398" y="205" type="curve"/>
      <point x="419" y="233" type="line"/>
      <point x="386" y="220"/>
      <point x="349" y="216"/>
      <point x="318" y="216" type="curve" smooth="yes"/>
      <point x="224" y="216"/>
      <point x="181" y="263"/>
      <point x="181" y="354" type="curve" smooth="yes"/>
      <point x="181" y="471"/>
      <point x="244" y="548"/>
      <point x="366" y="548" type="curve" smooth="yes"/>
      <point x="421" y="548"/>
      <point x="452" y="536"/>
      <point x="466" y="530" type="curve"/>
      <point x="460" y="568" type="line"/>
      <point x="407" y="294" type="line" smooth="yes"/>
      <point x="400" y="260"/>
      <point x="396" y="228"/>
    </contour>
    <contour>
      <point x="475" y="80" type="line"/>
      <point x="63" y="80" type="line"/>
      <point x="49" y="0" type="line"/>
      <point x="461" y="0" type="line"/>
    </contour>
  </outline>
</glyph>
<glyph name="euro" format="2">
  <advance width="616"/>
  <unicode hex="20AC"/>
  <note>
Euro
</note>
  <outline>
    <contour>
      <point x="380" y="-12" type="curve" smooth="yes"/>
      <point x="408" y="-12"/>
      <point x="461" y="-8"/>
      <point x="500" y="8" type="curve"/>
      <point x="516" y="100" type="line"/>
      <point x="512" y="100" type="line"/>
      <point x="472" y="80"/>
      <point x="436" y="72"/>
      <point x="392" y="72" type="curve" smooth="yes"/>
      <point x="272" y="72"/>
      <point x="224" y="140"/>
      <point x="224" y="248" type="curve" smooth="yes"/>
      <point x="224" y="480"/>
      <point x="336" y="648"/>
      <point x="500" y="648" type="curve" smooth="yes"/>
      <point x="548" y="648"/>
      <point x="580" y="640"/>
      <point x="612" y="620" type="curve"/>
      <point x="616" y="620" type="line"/>
      <point x="635" y="708" type="line"/>
      <point x="600" y="722"/>
      <point x="552" y="732"/>
      <point x="512" y="732" type="curve" smooth="yes"/>
      <point x="272" y="732"/>
      <point x="128" y="512"/>
      <point x="128" y="252" type="curve" smooth="yes"/>
      <point x="128" y="92"/>
      <point x="208" y="-12"/>
    </contour>
    <contour>
      <point x="12" y="220" type="line"/>
      <point x="404" y="220" type="line"/>
      <point x="420" y="304" type="line"/>
      <point x="28" y="304" type="line"/>
    </contour>
    <contour>
      <point x="48" y="416" type="line"/>
      <point x="440" y="416" type="line"/>
      <point x="456" y="500" type="line"/>
      <point x="64" y="500" type="line"/>
    </contour>
  </outline>
</glyph>
<glyph name="peso" format="2">
  <advance width="626"/>
  <unicode hex="20B1"/>
  <outline>
    <contour>
      <point x="156" y="240" type="line"/>
      <point x="298" y="240" type="line" smooth="yes"/>
      <point x="494" y="240"/>
      <point x="602" y="388"/>
      <point x="602" y="532" type="curve" smooth="yes"/>
      <point x="602" y="656"/>
      <point x="518" y="720"/>
      <point x="394" y="720" type="curve" smooth="yes"/>
      <point x="248" y="720" type="line"/>
      <point x="232" y="636" type="line"/>
      <point x="386" y="636" type="line" smooth="yes"/>
      <point x="458" y="636"/>
      <point x="502" y="604"/>
      <point x="502" y="532" type="curve" smooth="yes"/>
      <point x="502" y="420"/>
      <point x="430" y="324"/>
      <point x="298" y="324" type="curve" smooth="yes"/>
      <point x="172" y="324" type="line"/>
    </contour>
    <contour>
      <point x="44" y="0" type="line"/>
      <point x="140" y="0" type="line"/>
      <point x="280" y="720" type="line"/>
      <point x="184" y="720" type="line"/>
    </contour>
    <contour>
      <point x="32" y="372" type="line"/>
      <point x="634" y="372" type="line"/>
      <point x="650" y="452" type="line"/>
      <point x="48" y="452" type="line"/>
    </contour>
    <contour>
      <point x="60" y="512" type="line"/>
      <point x="662" y="512" type="line"/>
      <point x="677" y="592" type="line"/>
      <point x="75" y="592" type="line"/>
    </contour>
  </outline>
</glyph>
<glyph name="cedi" format="2">
  <advance width="648"/>
  <unicode hex="20B5"/>
  <anchor x="313" y="0" name="bottom"/>
  <anchor x="453" y="720" name="top"/>
  <outline>
    <contour>
      <point x="430" y="800" type="line"/>
      <point x="252" y="-112" type="line"/>
      <point x="336" y="-112" type="line"/>
      <point x="514" y="800" type="line"/>
    </contour>
    <component base="C"/>
  </outline>
</glyph>
<glyph name="manat" format="2">
  <advance width="656"/>
  <unicode hex="20BC"/>
  <outline>
    <contour>
      <point x="8" y="0" type="line"/>
      <point x="104" y="0" type="line"/>
      <point x="154" y="260" type="line" smooth="yes"/>
      <point x="194" y="468"/>
      <point x="250" y="568"/>
      <point x="386" y="568" type="curve" smooth="yes"/>
      <point x="522" y="568"/>
      <point x="538" y="468"/>
      <point x="498" y="260" type="curve" smooth="yes"/>
      <point x="448" y="0" type="line"/>
      <point x="544" y="0" type="line"/>
      <point x="594" y="260" type="line" smooth="yes"/>
      <point x="643" y="516"/>
      <point x="595" y="652"/>
      <point x="393" y="652" type="curve" smooth="yes"/>
      <point x="211" y="652"/>
      <point x="107" y="516"/>
      <point x="58" y="260" type="curve" smooth="yes"/>
    </contour>
    <contour>
      <point x="256" y="102" type="line"/>
      <point x="340" y="102" type="line"/>
      <point x="462" y="732" type="line"/>
      <point x="378" y="732" type="line"/>
    </contour>
  </outline>
</glyph>
<glyph name="ruble" format="2">
  <advance width="596"/>
  <unicode hex="20BD"/>
  <outline>
    <contour>
      <point x="23" y="264" type="line"/>
      <point x="321" y="264" type="line" smooth="yes"/>
      <point x="543" y="264"/>
      <point x="622" y="416"/>
      <point x="622" y="539" type="curve" smooth="yes"/>
      <point x="622" y="660"/>
      <point x="550" y="720"/>
      <point x="412" y="720" type="curve" smooth="yes"/>
      <point x="252" y="720" type="line"/>
      <point x="236" y="636" type="line"/>
      <point x="412" y="636" type="line" smooth="yes"/>
      <point x="481" y="636"/>
      <point x="524" y="602"/>
      <point x="524" y="539" type="curve" smooth="yes"/>
      <point x="524" y="462"/>
      <point x="484" y="348"/>
      <point x="338" y="348" type="curve" smooth="yes"/>
      <point x="40" y="348" type="line"/>
    </contour>
    <contour>
      <point x="56" y="0" type="line"/>
      <point x="152" y="0" type="line"/>
      <point x="292" y="720" type="line"/>
      <point x="196" y="720" type="line"/>
    </contour>
    <contour>
      <point x="-5" y="120" type="line"/>
      <point x="409" y="120" type="line"/>
      <point x="425" y="200" type="line"/>
      <point x="11" y="200" type="line"/>
    </contour>
  </outline>
</glyph>
<glyph name="trademark" format="2">
  <advance width="926"/>
  <unicode hex="2122"/>
  <note>
trademark
</note>
  <outline>
    <contour>
      <point x="522" y="320" type="line"/>
      <point x="606" y="320" type="line"/>
      <point x="606" y="607" type="line"/>
      <point x="585" y="600" type="line"/>
      <point x="703" y="428" type="line"/>
      <point x="749" y="428" type="line"/>
      <point x="867" y="601" type="line"/>
      <point x="846" y="608" type="line"/>
      <point x="846" y="320" type="line"/>
      <point x="930" y="320" type="line"/>
      <point x="930" y="720" type="line"/>
      <point x="860" y="720" type="line"/>
      <point x="706" y="491" type="line"/>
      <point x="748" y="491" type="line"/>
      <point x="594" y="720" type="line"/>
      <point x="522" y="720" type="line"/>
    </contour>
    <contour>
      <point x="221" y="320" type="line"/>
      <point x="304" y="320" type="line"/>
      <point x="304" y="651" type="line"/>
      <point x="437" y="651" type="line"/>
      <point x="437" y="720" type="line"/>
      <point x="89" y="720" type="line"/>
      <point x="89" y="651" type="line"/>
      <point x="221" y="651" type="line"/>
    </contour>
  </outline>
</glyph>
<glyph name="estimated" format="2">
  <advance width="893"/>
  <unicode hex="212E"/>
  <note>
estimated
</note>
  <outline>
    <contour>
      <point x="214" y="118" type="curve"/>
      <point x="208" y="126"/>
      <point x="204" y="134"/>
      <point x="204" y="143" type="curve" smooth="yes"/>
      <point x="204" y="345" type="line" smooth="yes"/>
      <point x="204" y="348"/>
      <point x="207" y="349"/>
      <point x="211" y="349" type="curve" smooth="yes"/>
      <point x="881" y="349" type="line"/>
      <point x="881" y="360" type="line" smooth="yes"/>
      <point x="881" y="565"/>
      <point x="695" y="732"/>
      <point x="467" y="732" type="curve" smooth="yes"/>
      <point x="238" y="732"/>
      <point x="52" y="565"/>
      <point x="52" y="360" type="curve" smooth="yes"/>
      <point x="52" y="154"/>
      <point x="238" y="-12"/>
      <point x="467" y="-12" type="curve" smooth="yes"/>
      <point x="599" y="-12"/>
      <point x="720" y="45"/>
      <point x="795" y="133" type="curve"/>
      <point x="735" y="133" type="line"/>
      <point x="669" y="57"/>
      <point x="575" y="11"/>
      <point x="468" y="11" type="curve" smooth="yes"/>
      <point x="367" y="11"/>
      <point x="277" y="53"/>
    </contour>
    <contour>
      <point x="725" y="372" type="curve" smooth="yes"/>
      <point x="211" y="372" type="line" smooth="yes"/>
      <point x="207" y="372"/>
      <point x="204" y="374"/>
      <point x="204" y="378" type="curve" smooth="yes"/>
      <point x="204" y="574" type="line" smooth="yes"/>
      <point x="204" y="585"/>
      <point x="208" y="594"/>
      <point x="215" y="602" type="curve"/>
      <point x="278" y="666"/>
      <point x="368" y="709"/>
      <point x="468" y="709" type="curve" smooth="yes"/>
      <point x="565" y="709"/>
      <point x="655" y="670"/>
      <point x="719" y="604" type="curve"/>
      <point x="726" y="598"/>
      <point x="729" y="590"/>
      <point x="729" y="579" type="curve" smooth="yes"/>
      <point x="729" y="378" type="line" smooth="yes"/>
      <point x="729" y="374"/>
      <point x="727" y="372"/>
    </contour>
  </outline>
</glyph>
<glyph name="leftArrow" format="2">
  <advance width="728"/>
  <unicode hex="2190"/>
  <note>
uni2190
</note>
  <outline>
    <contour>
      <point x="712" y="232" type="line"/>
      <point x="712" y="320" type="line"/>
      <point x="304" y="316" type="line" smooth="yes"/>
      <point x="251" y="315"/>
      <point x="215" y="314"/>
      <point x="189" y="312" type="curve"/>
      <point x="206" y="325"/>
      <point x="219" y="340"/>
      <point x="234" y="356" type="curve" smooth="yes"/>
      <point x="336" y="468" type="line"/>
      <point x="276" y="520" type="line"/>
      <point x="148" y="380" type="line" smooth="yes"/>
      <point x="129" y="359"/>
      <point x="92" y="324"/>
      <point x="56" y="296" type="curve"/>
      <point x="56" y="256" type="line"/>
      <point x="92" y="228"/>
      <point x="129" y="193"/>
      <point x="148" y="172" type="curve" smooth="yes"/>
      <point x="276" y="32" type="line"/>
      <point x="336" y="84" type="line"/>
      <point x="234" y="196" type="line"/>
      <point x="219" y="211"/>
      <point x="206" y="226"/>
      <point x="189" y="239" type="curve"/>
      <point x="215" y="238"/>
      <point x="252" y="236"/>
      <point x="304" y="236" type="curve" smooth="yes"/>
    </contour>
  </outline>
</glyph>
<glyph name="rightArrow" format="2">
  <advance width="728"/>
  <unicode hex="2192"/>
  <note>
uni2192
</note>
  <outline>
    <contour>
      <point x="56" y="320" type="line"/>
      <point x="56" y="232" type="line"/>
      <point x="464" y="236" type="line" smooth="yes"/>
      <point x="516" y="236"/>
      <point x="552" y="238"/>
      <point x="578" y="239" type="curve"/>
      <point x="561" y="226"/>
      <point x="548" y="211"/>
      <point x="534" y="196" type="curve" smooth="yes"/>
      <point x="432" y="84" type="line"/>
      <point x="492" y="32" type="line"/>
      <point x="620" y="172" type="line" smooth="yes"/>
      <point x="639" y="193"/>
      <point x="676" y="228"/>
      <point x="712" y="256" type="curve"/>
      <point x="712" y="296" type="line"/>
      <point x="676" y="324"/>
      <point x="639" y="359"/>
      <point x="620" y="380" type="curve" smooth="yes"/>
      <point x="492" y="520" type="line"/>
      <point x="432" y="468" type="line"/>
      <point x="534" y="356" type="line" smooth="yes"/>
      <point x="548" y="340"/>
      <point x="561" y="325"/>
      <point x="578" y="312" type="curve"/>
      <point x="552" y="314"/>
      <point x="515" y="315"/>
      <point x="464" y="316" type="curve" smooth="yes"/>
    </contour>
  </outline>
</glyph>
<glyph name="downArrow" format="2">
  <advance width="728"/>
  <unicode hex="2193"/>
  <note>
uni2193
</note>
  <outline>
    <contour>
      <point x="428" y="604" type="line"/>
      <point x="340" y="604" type="line"/>
      <point x="344" y="196" type="line" smooth="yes"/>
      <point x="344" y="145"/>
      <point x="346" y="108"/>
      <point x="347" y="82" type="curve"/>
      <point x="334" y="99"/>
      <point x="319" y="112"/>
      <point x="304" y="126" type="curve" smooth="yes"/>
      <point x="192" y="228" type="line"/>
      <point x="140" y="168" type="line"/>
      <point x="280" y="40" type="line" smooth="yes"/>
      <point x="301" y="21"/>
      <point x="336" y="-16"/>
      <point x="364" y="-52" type="curve"/>
      <point x="404" y="-52" type="line"/>
      <point x="432" y="-16"/>
      <point x="467" y="21"/>
      <point x="488" y="40" type="curve" smooth="yes"/>
      <point x="628" y="168" type="line"/>
      <point x="576" y="228" type="line"/>
      <point x="464" y="126" type="line" smooth="yes"/>
      <point x="448" y="112"/>
      <point x="433" y="99"/>
      <point x="420" y="82" type="curve"/>
      <point x="422" y="108"/>
      <point x="423" y="144"/>
      <point x="424" y="196" type="curve" smooth="yes"/>
    </contour>
  </outline>
</glyph>
<glyph name="northEastArrow" format="2">
  <advance width="728"/>
  <unicode hex="2197"/>
  <note>
uni2197
</note>
  <outline>
    <contour>
      <point x="121" y="75" type="line"/>
      <point x="183" y="13" type="line"/>
      <point x="469" y="304" type="line" smooth="yes"/>
      <point x="505" y="341"/>
      <point x="530" y="368"/>
      <point x="547" y="387" type="curve"/>
      <point x="544" y="366"/>
      <point x="546" y="346"/>
      <point x="547" y="325" type="curve" smooth="yes"/>
      <point x="554" y="174" type="line"/>
      <point x="633" y="180" type="line"/>
      <point x="624" y="369" type="line" smooth="yes"/>
      <point x="623" y="398"/>
      <point x="624" y="449"/>
      <point x="630" y="494" type="curve"/>
      <point x="602" y="522" type="line"/>
      <point x="557" y="516"/>
      <point x="506" y="515"/>
      <point x="477" y="516" type="curve" smooth="yes"/>
      <point x="288" y="525" type="line"/>
      <point x="282" y="446" type="line"/>
      <point x="433" y="439" type="line" smooth="yes"/>
      <point x="454" y="438"/>
      <point x="474" y="436"/>
      <point x="495" y="439" type="curve"/>
      <point x="476" y="422"/>
      <point x="448" y="397"/>
      <point x="412" y="361" type="curve" smooth="yes"/>
    </contour>
  </outline>
</glyph>
<glyph name="summation" format="2">
  <advance width="554"/>
  <unicode hex="2211"/>
  <note>
summation
</note>
  <outline>
    <contour>
      <point x="296" y="312" type="line"/>
      <point x="-28" y="-64" type="line"/>
      <point x="-40" y="-120" type="line"/>
      <point x="448" y="-120" type="line"/>
      <point x="464" y="-40" type="line"/>
      <point x="101" y="-40" type="line"/>
      <point x="400" y="304" type="line"/>
      <point x="235" y="640" type="line"/>
      <point x="584" y="640" type="line"/>
      <point x="600" y="720" type="line"/>
      <point x="136" y="720" type="line"/>
      <point x="124" y="664" type="line"/>
    </contour>
  </outline>
</glyph>
<glyph name="bulletoperator" format="2">
  <advance width="304"/>
  <unicode hex="2219"/>
  <note>
uni2219
</note>
  <outline>
    <contour>
      <point x="152" y="300" type="curve" smooth="yes"/>
      <point x="194" y="300"/>
      <point x="222" y="340"/>
      <point x="222" y="376" type="curve" smooth="yes"/>
      <point x="222" y="408"/>
      <point x="202" y="428"/>
      <point x="168" y="428" type="curve" smooth="yes"/>
      <point x="124" y="428"/>
      <point x="98" y="388"/>
      <point x="98" y="352" type="curve" smooth="yes"/>
      <point x="98" y="320"/>
      <point x="116" y="300"/>
    </contour>
  </outline>
</glyph>
<glyph name="integral" format="2">
  <advance width="480"/>
  <unicode hex="222B"/>
  <note>
integral
</note>
  <outline>
    <contour>
      <point x="32" y="-208" type="curve" smooth="yes"/>
      <point x="146" y="-208"/>
      <point x="216" y="-147"/>
      <point x="240" y="-28" type="curve" smooth="yes"/>
      <point x="356" y="548" type="line" smooth="yes"/>
      <point x="369" y="611"/>
      <point x="405" y="652"/>
      <point x="472" y="652" type="curve" smooth="yes"/>
      <point x="494" y="652"/>
      <point x="513" y="647"/>
      <point x="524" y="640" type="curve"/>
      <point x="540" y="720" type="line"/>
      <point x="525" y="729"/>
      <point x="506" y="732"/>
      <point x="472" y="732" type="curve" smooth="yes"/>
      <point x="358" y="732"/>
      <point x="288" y="671"/>
      <point x="264" y="552" type="curve" smooth="yes"/>
      <point x="148" y="-24" type="line" smooth="yes"/>
      <point x="135" y="-87"/>
      <point x="99" y="-128"/>
      <point x="32" y="-128" type="curve" smooth="yes"/>
      <point x="10" y="-128"/>
      <point x="-9" y="-123"/>
      <point x="-20" y="-116" type="curve"/>
      <point x="-36" y="-196" type="line"/>
      <point x="-21" y="-205"/>
      <point x="-2" y="-208"/>
    </contour>
  </outline>
</glyph>
<glyph name="whiteSquare" format="2">
  <advance width="912"/>
  <unicode hex="25A1"/>
  <note>
uni25A1
</note>
  <outline>
    <contour>
      <point x="116" y="720" type="line"/>
      <point x="116" y="0" type="line"/>
      <point x="836" y="0" type="line"/>
      <point x="836" y="720" type="line"/>
    </contour>
    <contour>
      <point x="736" y="92" type="line"/>
      <point x="216" y="92" type="line"/>
      <point x="216" y="628" type="line"/>
      <point x="736" y="628" type="line"/>
    </contour>
  </outline>
</glyph>
<glyph name="whiteDiamond" format="2">
  <advance width="662"/>
  <unicode hex="25C7"/>
  <outline>
    <contour>
      <point x="331" y="-16" type="line"/>
      <point x="622" y="275" type="line"/>
      <point x="331" y="566" type="line"/>
      <point x="40" y="275" type="line"/>
    </contour>
    <contour>
      <point x="331" y="97" type="line"/>
      <point x="153" y="275" type="line"/>
      <point x="331" y="453" type="line"/>
      <point x="509" y="275" type="line"/>
    </contour>
  </outline>
</glyph>
<glyph name="whiteCircle" format="2">
  <advance width="674"/>
  <unicode hex="25CB"/>
  <note>
uni25CB
</note>
  <outline>
    <contour>
      <point x="68" y="268" type="curve" smooth="yes"/>
      <point x="68" y="99"/>
      <point x="184" y="-12"/>
      <point x="357" y="-12" type="curve" smooth="yes"/>
      <point x="530" y="-12"/>
      <point x="646" y="99"/>
      <point x="646" y="268" type="curve" smooth="yes"/>
      <point x="646" y="437"/>
      <point x="530" y="548"/>
      <point x="357" y="548" type="curve" smooth="yes"/>
      <point x="184" y="548"/>
      <point x="68" y="437"/>
    </contour>
    <contour>
      <point x="161" y="268" type="curve" smooth="yes"/>
      <point x="161" y="397"/>
      <point x="241" y="468"/>
      <point x="357" y="468" type="curve" smooth="yes"/>
      <point x="472" y="468"/>
      <point x="552" y="397"/>
      <point x="552" y="268" type="curve" smooth="yes"/>
      <point x="552" y="139"/>
      <point x="472" y="68"/>
      <point x="357" y="68" type="curve" smooth="yes"/>
      <point x="241" y="68"/>
      <point x="161" y="139"/>
    </contour>
  </outline>
</glyph>
<glyph name="blackCircle" format="2">
  <advance width="674"/>
  <unicode hex="25CF"/>
  <note>
uni25CF
</note>
  <outline>
    <contour>
      <point x="68" y="268" type="curve" smooth="yes"/>
      <point x="68" y="99"/>
      <point x="184" y="-12"/>
      <point x="357" y="-12" type="curve" smooth="yes"/>
      <point x="530" y="-12"/>
      <point x="646" y="99"/>
      <point x="646" y="268" type="curve" smooth="yes"/>
      <point x="646" y="437"/>
      <point x="530" y="548"/>
      <point x="357" y="548" type="curve" smooth="yes"/>
      <point x="184" y="548"/>
      <point x="68" y="437"/>
    </contour>
  </outline>
</glyph>
<glyph name="blackstar" format="2">
  <advance width="760"/>
  <unicode hex="2605"/>
  <note>
uni2605
</note>
  <outline>
    <contour>
      <point x="180" y="0" type="line"/>
      <point x="400" y="156" type="line"/>
      <point x="616" y="0" type="line"/>
      <point x="532" y="256" type="line"/>
      <point x="752" y="412" type="line"/>
      <point x="480" y="412" type="line"/>
      <point x="400" y="668" type="line"/>
      <point x="316" y="412" type="line"/>
      <point x="48" y="412" type="line"/>
      <point x="264" y="256" type="line"/>
    </contour>
  </outline>
</glyph>
<glyph name="eightTeardropSpokedPropellerAsterisk" format="2">
  <advance width="720"/>
  <unicode hex="274A"/>
  <note>
uni274A
</note>
  <outline>
    <contour>
      <point x="313" y="680" type="line"/>
      <point x="338" y="457" type="line"/>
      <point x="382" y="457" type="line"/>
      <point x="407" y="680" type="line"/>
    </contour>
    <contour>
      <point x="567" y="614" type="line"/>
      <point x="427" y="439" type="line"/>
      <point x="459" y="407" type="line"/>
      <point x="634" y="547" type="line"/>
    </contour>
    <contour>
      <point x="86" y="547" type="line"/>
      <point x="261" y="407" type="line"/>
      <point x="293" y="439" type="line"/>
      <point x="153" y="614" type="line"/>
    </contour>
    <contour>
      <point x="303" y="340" type="curve" smooth="yes"/>
      <point x="303" y="303"/>
      <point x="330" y="281"/>
      <point x="362" y="281" type="curve" smooth="yes"/>
      <point x="394" y="281"/>
      <point x="421" y="303"/>
      <point x="421" y="340" type="curve" smooth="yes"/>
      <point x="421" y="377"/>
      <point x="394" y="399"/>
      <point x="362" y="399" type="curve" smooth="yes"/>
      <point x="330" y="399"/>
      <point x="303" y="377"/>
    </contour>
    <contour>
      <point x="477" y="362" type="line"/>
      <point x="477" y="318" type="line"/>
      <point x="700" y="293" type="line"/>
      <point x="700" y="387" type="line"/>
    </contour>
    <contour>
      <point x="20" y="387" type="line"/>
      <point x="20" y="293" type="line"/>
      <point x="243" y="318" type="line"/>
      <point x="243" y="362" type="line"/>
    </contour>
    <contour>
      <point x="459" y="273" type="line"/>
      <point x="427" y="241" type="line"/>
      <point x="567" y="66" type="line"/>
      <point x="634" y="133" type="line"/>
    </contour>
    <contour>
      <point x="261" y="273" type="line"/>
      <point x="86" y="133" type="line"/>
      <point x="153" y="66" type="line"/>
      <point x="293" y="241" type="line"/>
    </contour>
    <contour>
      <point x="338" y="223" type="line"/>
      <point x="313" y="0" type="line"/>
      <point x="407" y="0" type="line"/>
      <point x="382" y="223" type="line"/>
    </contour>
  </outline>
</glyph>
<glyph name="fi" format="2">
  <advance width="615"/>
  <unicode hex="FB01"/>
  <note>
fi
</note>
  <outline>
    <contour>
      <point x="544" y="640" type="curve" smooth="yes"/>
      <point x="580" y="640"/>
      <point x="616" y="668"/>
      <point x="616" y="712" type="curve" smooth="yes"/>
      <point x="616" y="740"/>
      <point x="596" y="760"/>
      <point x="564" y="760" type="curve" smooth="yes"/>
      <point x="528" y="760"/>
      <point x="492" y="732"/>
      <point x="492" y="688" type="curve" smooth="yes"/>
      <point x="492" y="660"/>
      <point x="512" y="640"/>
    </contour>
    <contour>
      <point x="482" y="544" type="line"/>
      <point x="376" y="0" type="line"/>
      <point x="468" y="0" type="line"/>
      <point x="574" y="544" type="line"/>
    </contour>
    <component base="_part.f.liga"/>
  </outline>
</glyph>
<glyph name="allah-ar" format="2">
  <advance width="1342"/>
  <unicode hex="FDF2"/>
  <outline>
    <contour>
      <point x="1154" y="748" type="line"/>
      <point x="1154" y="0" type="line"/>
      <point x="1246" y="0" type="line"/>
      <point x="1246" y="604" type="line" smooth="yes"/>
      <point x="1246" y="646"/>
      <point x="1246" y="716"/>
      <point x="1254" y="752" type="curve"/>
      <point x="1254" y="760" type="line"/>
    </contour>
    <contour>
      <point x="692" y="85" type="line"/>
      <point x="450" y="85" type="line"/>
      <point x="488" y="47" type="line"/>
      <point x="488" y="544" type="line"/>
      <point x="480" y="544" type="line"/>
      <point x="396" y="532" type="line"/>
      <point x="396" y="103" type="line"/>
      <point x="408" y="115" type="line"/>
      <point x="408" y="0" type="line"/>
      <point x="836" y="0" type="line" smooth="yes"/>
      <point x="920" y="0"/>
      <point x="980" y="8"/>
      <point x="1020" y="24" type="curve"/>
      <point x="1020" y="32" type="line"/>
      <point x="1012" y="68"/>
      <point x="1012" y="132"/>
      <point x="1012" y="172" type="curve" smooth="yes"/>
      <point x="1012" y="681" type="line"/>
      <point x="1004" y="681" type="line"/>
      <point x="920" y="669" type="line"/>
      <point x="920" y="160" type="line" smooth="yes"/>
      <point x="920" y="118"/>
      <point x="927" y="83"/>
      <point x="932" y="64" type="curve"/>
      <point x="966" y="85" type="line"/>
      <point x="712" y="85" type="line"/>
      <point x="750" y="42" type="line"/>
      <point x="750" y="609" type="line"/>
      <point x="742" y="609" type="line"/>
      <point x="658" y="597" type="line"/>
      <point x="658" y="160" type="line" smooth="yes"/>
      <point x="658" y="118"/>
      <point x="665" y="83"/>
      <point x="670" y="64" type="curve"/>
    </contour>
    <contour>
      <point x="415" y="162" type="line"/>
      <point x="371" y="124"/>
      <point x="318" y="85"/>
      <point x="260" y="85" type="curve" smooth="yes"/>
      <point x="201" y="85"/>
      <point x="148" y="124"/>
      <point x="148" y="200" type="curve" smooth="yes"/>
      <point x="148" y="234"/>
      <point x="154" y="266"/>
      <point x="173" y="304" type="curve"/>
      <point x="139" y="267" type="line"/>
      <point x="227" y="335"/>
      <point x="301" y="371"/>
      <point x="424" y="420" type="curve"/>
      <point x="444" y="510" type="line"/>
      <point x="96" y="388"/>
      <point x="60" y="274"/>
      <point x="60" y="181" type="curve" smooth="yes"/>
      <point x="60" y="72"/>
      <point x="133" y="0"/>
      <point x="236" y="0" type="curve" smooth="yes"/>
      <point x="323" y="0"/>
      <point x="388" y="52"/>
      <point x="420" y="91" type="curve"/>
    </contour>
    <contour>
      <point x="615" y="688" type="curve" smooth="yes"/>
      <point x="645" y="688"/>
      <point x="674" y="698"/>
      <point x="691" y="742" type="curve"/>
      <point x="672" y="740" type="line"/>
      <point x="680" y="729"/>
      <point x="704" y="710"/>
      <point x="735" y="710" type="curve" smooth="yes"/>
      <point x="784" y="710"/>
      <point x="836" y="741"/>
      <point x="836" y="896" type="curve" smooth="yes"/>
      <point x="836" y="908" type="line"/>
      <point x="829" y="908" type="line"/>
      <point x="778" y="900" type="line"/>
      <point x="778" y="880" type="line" smooth="yes"/>
      <point x="778" y="809"/>
      <point x="763" y="766"/>
      <point x="757" y="752" type="curve"/>
      <point x="788" y="763" type="line"/>
      <point x="742" y="761"/>
      <point x="707" y="757"/>
      <point x="684" y="809" type="curve"/>
      <point x="697" y="763" type="line"/>
      <point x="702" y="784"/>
      <point x="706" y="812"/>
      <point x="706" y="849" type="curve" smooth="yes"/>
      <point x="706" y="861" type="line"/>
      <point x="699" y="861" type="line"/>
      <point x="648" y="853" type="line"/>
      <point x="648" y="833" type="line" smooth="yes"/>
      <point x="648" y="778"/>
      <point x="642" y="736"/>
      <point x="626" y="719" type="curve"/>
      <point x="651" y="733" type="line"/>
      <point x="617" y="728"/>
      <point x="584" y="736"/>
      <point x="584" y="831" type="curve" smooth="yes"/>
      <point x="584" y="868" type="line"/>
      <point x="577" y="868" type="line"/>
      <point x="526" y="860" type="line"/>
      <point x="526" y="818" type="line" smooth="yes"/>
      <point x="526" y="720"/>
      <point x="574" y="688"/>
    </contour>
    <contour>
      <point x="653" y="1086" type="line"/>
      <point x="653" y="914" type="line"/>
      <point x="697" y="914" type="line"/>
      <point x="697" y="938" type="line" smooth="yes"/>
      <point x="697" y="978"/>
      <point x="697" y="1048"/>
      <point x="705" y="1084" type="curve"/>
      <point x="703" y="1092" type="line"/>
    </contour>
  </outline>
</glyph>
<glyph name="kashidaFina-ar" format="2">
  <advance width="192"/>
  <unicode hex="FE73"/>
  <outline>
    <contour>
      <point x="192" y="85" type="line"/>
      <point x="28" y="85" type="line"/>
      <point x="0" y="8" type="line"/>
      <point x="0" y="0" type="line"/>
      <point x="172" y="0" type="line"/>
      <point x="192" y="20" type="line"/>
    </contour>
  </outline>
</glyph>
<glyph name="_baseline2" format="2">
  <advance width="336"/>
  <anchor x="0" y="0" name="*exit"/>
  <outline>
    <contour>
      <point x="-70" y="0" type="line"/>
      <point x="316" y="0" type="line"/>
      <point x="336" y="20" type="line"/>
      <point x="336" y="85" type="line"/>
      <point x="-70" y="85" type="line"/>
    </contour>
  </outline>
</glyph>
<glyph name="_baselineLEFT" format="2">
  <advance width="148"/>
  <anchor x="227" y="0" name="*entry"/>
  <outline>
    <contour>
      <point x="218" y="85" type="line"/>
      <point x="0" y="85" type="line"/>
      <point x="-20" y="65" type="line"/>
      <point x="-20" y="0" type="line"/>
      <point x="218" y="0" type="line"/>
    </contour>
  </outline>
</glyph>
<glyph name="_behDotlessshortnabirah-ar" format="2">
  <advance width="367"/>
  <note>
uni066E.medi
</note>
  <anchor x="233" y="0" name="*entry"/>
  <outline>
    <contour>
      <point x="0" y="85" type="line"/>
      <point x="-20" y="65" type="line"/>
      <point x="-20" y="0" type="line"/>
      <point x="347" y="0" type="line"/>
      <point x="367" y="20" type="line"/>
      <point x="367" y="85" type="line"/>
      <point x="181" y="85" type="line"/>
      <point x="219" y="42" type="line"/>
      <point x="219" y="440" type="line"/>
      <point x="211" y="440" type="line"/>
      <point x="127" y="428" type="line"/>
      <point x="127" y="160" type="line" smooth="yes"/>
      <point x="127" y="118"/>
      <point x="134" y="83"/>
      <point x="139" y="64" type="curve"/>
      <point x="173" y="85" type="line"/>
    </contour>
  </outline>
</glyph>
<glyph name="_ending-ar" format="2">
  <advance width="600"/>
  <anchor x="327" y="0" name="*entry"/>
  <outline>
    <contour>
      <point x="369" y="0" type="line"/>
      <point x="369" y="85" type="line"/>
      <point x="40" y="85" type="line"/>
      <point x="12" y="8" type="line"/>
      <point x="12" y="0" type="line"/>
    </contour>
  </outline>
</glyph>
<glyph name="_loopconn-ar" format="2">
  <advance width="978"/>
  <anchor x="705" y="0" name="*entry"/>
  <anchor x="60" y="0" name="*exit"/>
  <anchor x="402" y="0" name="bottom"/>
  <anchor x="401" y="405" name="top"/>
  <anchor x="146" y="176" name="verticalbar"/>
  <outline>
    <contour>
      <point x="10" y="85" type="line"/>
      <point x="10" y="0" type="line"/>
      <point x="716" y="0" type="line" smooth="yes"/>
      <point x="767" y="0"/>
      <point x="808" y="9"/>
      <point x="839" y="26" type="curve"/>
      <point x="875" y="52" type="line"/>
      <point x="904" y="85"/>
      <point x="918" y="128"/>
      <point x="918" y="179" type="curve" smooth="yes"/>
      <point x="918" y="273"/>
      <point x="855" y="359"/>
      <point x="806" y="406" type="curve"/>
      <point x="794" y="406" type="line"/>
      <point x="754" y="395"/>
      <point x="694" y="394"/>
      <point x="642" y="394" type="curve" smooth="yes"/>
      <point x="72" y="394" type="line"/>
      <point x="38" y="309" type="line"/>
      <point x="642" y="309" type="line" smooth="yes"/>
      <point x="713" y="309"/>
      <point x="733" y="310"/>
      <point x="793" y="322" type="curve"/>
      <point x="744" y="342" type="line"/>
      <point x="797" y="292"/>
      <point x="826" y="223"/>
      <point x="826" y="173" type="curve" smooth="yes"/>
      <point x="826" y="106"/>
      <point x="787" y="85"/>
      <point x="737" y="85" type="curve" smooth="yes"/>
    </contour>
  </outline>
</glyph>
<glyph name="_part.dot" format="2">
  <anchor x="200" y="544" name="_top"/>
  <outline>
    <contour>
      <point x="216" y="640" type="curve" smooth="yes"/>
      <point x="252" y="640"/>
      <point x="288" y="668"/>
      <point x="288" y="712" type="curve" smooth="yes"/>
      <point x="288" y="740"/>
      <point x="268" y="760"/>
      <point x="236" y="760" type="curve" smooth="yes"/>
      <point x="200" y="760"/>
      <point x="164" y="732"/>
      <point x="164" y="688" type="curve" smooth="yes"/>
      <point x="164" y="660"/>
      <point x="184" y="640"/>
    </contour>
  </outline>
</glyph>
<glyph name="_part.doublebar-ar" format="2">
  <advance width="240"/>
  <anchor x="120" y="379" name="_bar"/>
  <outline>
    <contour>
      <point x="-30" y="309" type="line"/>
      <point x="270" y="309" type="line"/>
      <point x="270" y="349" type="line"/>
      <point x="-30" y="349" type="line"/>
    </contour>
    <contour>
      <point x="-30" y="409" type="line"/>
      <point x="270" y="409" type="line"/>
      <point x="270" y="449" type="line"/>
      <point x="-30" y="449" type="line"/>
    </contour>
  </outline>
</glyph>
<glyph name="_part.f.short" format="2">
  <advance width="336"/>
  <outline>
    <contour>
      <point x="60" y="464" type="line"/>
      <point x="388" y="464" type="line"/>
      <point x="404" y="544" type="line"/>
      <point x="76" y="544" type="line"/>
    </contour>
    <contour>
      <point x="52" y="0" type="line"/>
      <point x="144" y="0" type="line"/>
      <point x="252" y="552" type="line" smooth="yes"/>
      <point x="269" y="639"/>
      <point x="300" y="680"/>
      <point x="364" y="680" type="curve" smooth="yes"/>
      <point x="392" y="680"/>
      <point x="404" y="678"/>
      <point x="424" y="670" type="curve"/>
      <point x="432" y="670" type="line"/>
      <point x="448" y="750" type="line"/>
      <point x="430" y="758"/>
      <point x="400" y="760"/>
      <point x="380" y="760" type="curve" smooth="yes"/>
      <point x="264" y="760"/>
      <point x="191" y="708"/>
      <point x="160" y="552" type="curve" smooth="yes"/>
    </contour>
  </outline>
</glyph>
<glyph name="_part.t.liga" format="2">
  <advance width="404"/>
  <note>
t
</note>
  <anchor x="144" y="0" name="bottom"/>
  <anchor x="182" y="280" name="center"/>
  <anchor x="260" y="544" name="top"/>
  <anchor x="442" y="544" name="topright"/>
  <outline>
    <contour>
      <point x="248" y="-8" type="curve" smooth="yes"/>
      <point x="284" y="-8"/>
      <point x="318" y="-2"/>
      <point x="340" y="8" type="curve"/>
      <point x="352" y="88" type="line"/>
      <point x="344" y="88" type="line"/>
      <point x="322" y="78"/>
      <point x="296" y="72"/>
      <point x="268" y="72" type="curve" smooth="yes"/>
      <point x="204" y="72"/>
      <point x="180" y="100"/>
      <point x="180" y="144" type="curve" smooth="yes"/>
      <point x="180" y="152"/>
      <point x="181" y="167"/>
      <point x="184" y="180" type="curve"/>
      <point x="284" y="692" type="line"/>
      <point x="192" y="692" type="line"/>
      <point x="92" y="180" type="line" smooth="yes"/>
      <point x="89" y="165"/>
      <point x="88" y="148"/>
      <point x="88" y="136" type="curve" smooth="yes"/>
      <point x="88" y="44"/>
      <point x="148" y="-8"/>
    </contour>
    <contour>
      <point x="64" y="464" type="line"/>
      <point x="503" y="464" type="line"/>
      <point x="519" y="544" type="line"/>
      <point x="80" y="544" type="line"/>
    </contour>
  </outline>
</glyph>
<glyph name="_v-ar" format="2">
  <advance width="199"/>
  <outline>
    <contour>
      <point x="41" y="241" type="line"/>
      <point x="-23" y="241" type="line"/>
      <point x="-23" y="237" type="line"/>
      <point x="61" y="85" type="line"/>
      <point x="137" y="85" type="line"/>
      <point x="229" y="237" type="line"/>
      <point x="229" y="241" type="line"/>
      <point x="165" y="241" type="line"/>
      <point x="100" y="137" type="line"/>
    </contour>
  </outline>
</glyph>
<glyph name="a.inferior" format="2">
  <advance width="452"/>
  <note>
a.inferior
</note>
  <outline>
    <contour>
      <point x="154" y="-169" type="curve" smooth="yes"/>
      <point x="211" y="-169"/>
      <point x="264" y="-158"/>
      <point x="316" y="-141" type="curve"/>
      <point x="319" y="-135" type="line"/>
      <point x="319" y="-97"/>
      <point x="325" y="-57"/>
      <point x="333" y="-15" type="curve" smooth="yes"/>
      <point x="351" y="73" type="line" smooth="yes"/>
      <point x="373" y="190"/>
      <point x="320" y="247"/>
      <point x="194" y="247" type="curve" smooth="yes"/>
      <point x="148" y="247"/>
      <point x="113" y="240"/>
      <point x="75" y="227" type="curve"/>
      <point x="61" y="156" type="line"/>
      <point x="70" y="156" type="line"/>
      <point x="96" y="168"/>
      <point x="134" y="178"/>
      <point x="178" y="178" type="curve" smooth="yes"/>
      <point x="257" y="178"/>
      <point x="283" y="152"/>
      <point x="269" y="78" type="curve" smooth="yes"/>
      <point x="246" y="-41" type="line" smooth="yes"/>
      <point x="241" y="-67"/>
      <point x="239" y="-90"/>
      <point x="244" y="-112" type="curve"/>
      <point x="260" y="-83" type="line"/>
      <point x="228" y="-100"/>
      <point x="199" y="-105"/>
      <point x="158" y="-105" type="curve" smooth="yes"/>
      <point x="106" y="-105"/>
      <point x="74" y="-88"/>
      <point x="74" y="-49" type="curve" smooth="yes"/>
      <point x="74" y="1"/>
      <point x="114" y="22"/>
      <point x="182" y="22" type="curve" smooth="yes"/>
      <point x="223" y="22"/>
      <point x="247" y="13"/>
      <point x="265" y="5" type="curve"/>
      <point x="275" y="66" type="line"/>
      <point x="260" y="72"/>
      <point x="227" y="83"/>
      <point x="179" y="83" type="curve" smooth="yes"/>
      <point x="78" y="83"/>
      <point x="-7" y="42"/>
      <point x="-7" y="-54" type="curve" smooth="yes"/>
      <point x="-7" y="-130"/>
      <point x="50" y="-169"/>
    </contour>
  </outline>
</glyph>
<glyph name="ampersand.sc" format="2">
  <advance width="580"/>
  <note>
ampersand.sc
</note>
  <outline>
    <contour>
      <point x="48" y="132" type="curve" smooth="yes"/>
      <point x="48" y="20"/>
      <point x="148" y="-12"/>
      <point x="256" y="-12" type="curve" smooth="yes"/>
      <point x="320" y="-12"/>
      <point x="384" y="4"/>
      <point x="428" y="20" type="curve"/>
      <point x="432" y="24" type="line"/>
      <point x="432" y="64"/>
      <point x="441" y="125"/>
      <point x="448" y="160" type="curve" smooth="yes"/>
      <point x="464" y="236" type="line"/>
      <point x="532" y="236" type="line"/>
      <point x="548" y="312" type="line"/>
      <point x="284" y="312" type="line" smooth="yes"/>
      <point x="216" y="312"/>
      <point x="176" y="336"/>
      <point x="176" y="388" type="curve" smooth="yes"/>
      <point x="176" y="468"/>
      <point x="256" y="500"/>
      <point x="348" y="500" type="curve" smooth="yes"/>
      <point x="416" y="500"/>
      <point x="468" y="484"/>
      <point x="496" y="472" type="curve"/>
      <point x="504" y="472" type="line"/>
      <point x="522" y="552" type="line"/>
      <point x="488" y="568"/>
      <point x="416" y="580"/>
      <point x="364" y="580" type="curve" smooth="yes"/>
      <point x="196" y="580"/>
      <point x="84" y="512"/>
      <point x="84" y="380" type="curve" smooth="yes"/>
      <point x="84" y="328"/>
      <point x="112" y="284"/>
      <point x="176" y="264" type="curve"/>
      <point x="180" y="288" type="line"/>
      <point x="96" y="260"/>
      <point x="48" y="204"/>
    </contour>
    <contour>
      <point x="264" y="64" type="curve" smooth="yes"/>
      <point x="192" y="64"/>
      <point x="136" y="76"/>
      <point x="136" y="140" type="curve" smooth="yes"/>
      <point x="136" y="204"/>
      <point x="188" y="236"/>
      <point x="276" y="236" type="curve" smooth="yes"/>
      <point x="376" y="236" type="line"/>
      <point x="356" y="136" type="line" smooth="yes"/>
      <point x="348" y="96"/>
      <point x="344" y="80"/>
      <point x="352" y="52" type="curve"/>
      <point x="372" y="88" type="line"/>
      <point x="348" y="72"/>
      <point x="308" y="64"/>
    </contour>
  </outline>
</glyph>
<glyph name="approxequal.sc" format="2">
  <advance width="568"/>
  <note>
approxequal.sc
</note>
  <outline>
    <contour>
      <point x="80" y="92" type="curve"/>
      <point x="156" y="92" type="line"/>
      <point x="159" y="149"/>
      <point x="171" y="172"/>
      <point x="204" y="172" type="curve" smooth="yes"/>
      <point x="249" y="172"/>
      <point x="304" y="92"/>
      <point x="380" y="92" type="curve" smooth="yes"/>
      <point x="478" y="92"/>
      <point x="501" y="165"/>
      <point x="504" y="252" type="curve"/>
      <point x="428" y="252" type="line"/>
      <point x="425" y="195"/>
      <point x="413" y="172"/>
      <point x="380" y="172" type="curve" smooth="yes"/>
      <point x="335" y="172"/>
      <point x="280" y="252"/>
      <point x="204" y="252" type="curve" smooth="yes"/>
      <point x="106" y="252"/>
      <point x="83" y="179"/>
    </contour>
    <contour>
      <point x="80" y="324" type="curve"/>
      <point x="156" y="324" type="line"/>
      <point x="159" y="381"/>
      <point x="171" y="404"/>
      <point x="204" y="404" type="curve" smooth="yes"/>
      <point x="249" y="404"/>
      <point x="304" y="324"/>
      <point x="380" y="324" type="curve" smooth="yes"/>
      <point x="478" y="324"/>
      <point x="501" y="397"/>
      <point x="504" y="484" type="curve"/>
      <point x="428" y="484" type="line"/>
      <point x="425" y="427"/>
      <point x="413" y="404"/>
      <point x="380" y="404" type="curve" smooth="yes"/>
      <point x="335" y="404"/>
      <point x="280" y="484"/>
      <point x="204" y="484" type="curve" smooth="yes"/>
      <point x="106" y="484"/>
      <point x="83" y="411"/>
    </contour>
  </outline>
</glyph>
<glyph name="asterisk.sc" format="2">
  <advance width="544"/>
  <note>
asterisk.sc
</note>
  <outline>
    <contour>
      <point x="54" y="280" type="line"/>
      <point x="90" y="204" type="line"/>
      <point x="245" y="297" type="line"/>
      <point x="206" y="132" type="line"/>
      <point x="290" y="132" type="line"/>
      <point x="311" y="299" type="line"/>
      <point x="442" y="192" type="line"/>
      <point x="490" y="260" type="line"/>
      <point x="345" y="347" type="line"/>
      <point x="522" y="424" type="line"/>
      <point x="486" y="500" type="line"/>
      <point x="331" y="403" type="line"/>
      <point x="374" y="572" type="line"/>
      <point x="290" y="572" type="line"/>
      <point x="265" y="402" type="line"/>
      <point x="134" y="508" type="line"/>
      <point x="86" y="440" type="line"/>
      <point x="232" y="353" type="line"/>
    </contour>
  </outline>
</glyph>
<glyph name="b.inferior" format="2">
  <advance width="473"/>
  <note>
b.inferior
</note>
  <outline>
    <contour>
      <point x="145" y="-169" type="curve" smooth="yes"/>
      <point x="292" y="-169"/>
      <point x="397" y="-76"/>
      <point x="397" y="74" type="curve" smooth="yes"/>
      <point x="397" y="185"/>
      <point x="327" y="246"/>
      <point x="228" y="246" type="curve" smooth="yes"/>
      <point x="193" y="246"/>
      <point x="164" y="237"/>
      <point x="142" y="227" type="curve"/>
      <point x="132" y="164" type="line"/>
      <point x="145" y="171"/>
      <point x="170" y="177"/>
      <point x="205" y="177" type="curve" smooth="yes"/>
      <point x="272" y="177"/>
      <point x="310" y="144"/>
      <point x="310" y="71" type="curve" smooth="yes"/>
      <point x="310" y="-36"/>
      <point x="246" y="-100"/>
      <point x="153" y="-100" type="curve" smooth="yes"/>
      <point x="120" y="-100"/>
      <point x="92" y="-95"/>
      <point x="69" y="-89" type="curve"/>
      <point x="80" y="-108" type="line"/>
      <point x="89" y="-93"/>
      <point x="94" y="-73"/>
      <point x="100" y="-44" type="curve" smooth="yes"/>
      <point x="186" y="395" type="line"/>
      <point x="97" y="395" type="line"/>
      <point x="93" y="388" type="line"/>
      <point x="94" y="360"/>
      <point x="83" y="300"/>
      <point x="77" y="270" type="curve" smooth="yes"/>
      <point x="15" y="-48" type="line" smooth="yes"/>
      <point x="8" y="-80"/>
      <point x="0" y="-111"/>
      <point x="-9" y="-138" type="curve"/>
      <point x="-6" y="-143" type="line"/>
      <point x="32" y="-160"/>
      <point x="92" y="-169"/>
    </contour>
  </outline>
</glyph>
<glyph name="b.sc" format="2">
  <advance width="580"/>
  <note>
b.sc
</note>
  <anchor x="234" y="0" name="bottom"/>
  <anchor x="346" y="572" name="top"/>
  <outline>
    <contour>
      <point x="108" y="0" type="line"/>
      <point x="300" y="0" type="line" smooth="yes"/>
      <point x="436" y="0"/>
      <point x="504" y="76"/>
      <point x="504" y="160" type="curve" smooth="yes"/>
      <point x="504" y="212"/>
      <point x="472" y="252"/>
      <point x="416" y="272" type="curve"/>
      <point x="416" y="248" type="line"/>
      <point x="508" y="284"/>
      <point x="548" y="360"/>
      <point x="548" y="432" type="curve" smooth="yes"/>
      <point x="548" y="520"/>
      <point x="488" y="572"/>
      <point x="364" y="572" type="curve" smooth="yes"/>
      <point x="216" y="572" type="line"/>
      <point x="200" y="492" type="line"/>
      <point x="360" y="492" type="line" smooth="yes"/>
      <point x="416" y="492"/>
      <point x="456" y="476"/>
      <point x="456" y="424" type="curve" smooth="yes"/>
      <point x="456" y="360"/>
      <point x="408" y="292"/>
      <point x="320" y="292" type="curve" smooth="yes"/>
      <point x="164" y="292" type="line"/>
      <point x="148" y="220" type="line"/>
      <point x="332" y="220" type="line" smooth="yes"/>
      <point x="380" y="220"/>
      <point x="412" y="200"/>
      <point x="412" y="164" type="curve" smooth="yes"/>
      <point x="412" y="108"/>
      <point x="368" y="80"/>
      <point x="308" y="80" type="curve" smooth="yes"/>
      <point x="128" y="80" type="line"/>
    </contour>
    <contour>
      <point x="44" y="0" type="line"/>
      <point x="136" y="0" type="line"/>
      <point x="248" y="572" type="line"/>
      <point x="156" y="572" type="line"/>
    </contour>
  </outline>
</glyph>
<glyph name="braceleft.sc" format="2">
  <advance width="360"/>
  <note>
braceleft.sc
</note>
  <outline>
    <contour>
      <point x="196" y="-72" type="curve" smooth="yes"/>
      <point x="260" y="-72" type="line"/>
      <point x="272" y="0" type="line"/>
      <point x="208" y="0" type="line" smooth="yes"/>
      <point x="174" y="0"/>
      <point x="161" y="17"/>
      <point x="168" y="52" type="curve" smooth="yes"/>
      <point x="192" y="168" type="line" smooth="yes"/>
      <point x="204" y="224"/>
      <point x="173" y="260"/>
      <point x="128" y="268" type="curve"/>
      <point x="176" y="275"/>
      <point x="222" y="306"/>
      <point x="232" y="364" type="curve" smooth="yes"/>
      <point x="252" y="476" type="line" smooth="yes"/>
      <point x="259" y="517"/>
      <point x="281" y="532"/>
      <point x="316" y="532" type="curve" smooth="yes"/>
      <point x="372" y="532" type="line"/>
      <point x="384" y="604" type="line"/>
      <point x="320" y="604" type="line" smooth="yes"/>
      <point x="232" y="604"/>
      <point x="185" y="561"/>
      <point x="168" y="480" type="curve"/>
      <point x="148" y="364" type="line"/>
      <point x="141" y="332"/>
      <point x="121" y="304"/>
      <point x="80" y="304" type="curve" smooth="yes"/>
      <point x="36" y="304" type="line"/>
      <point x="24" y="228" type="line"/>
      <point x="64" y="228" type="line" smooth="yes"/>
      <point x="108" y="228"/>
      <point x="115" y="200"/>
      <point x="108" y="168" type="curve" smooth="yes"/>
      <point x="84" y="52" type="line" smooth="yes"/>
      <point x="68" y="-25"/>
      <point x="107" y="-72"/>
    </contour>
  </outline>
</glyph>
<glyph name="bracketleft.sc" format="2">
  <advance width="340"/>
  <note>
bracketleft.sc
</note>
  <outline>
    <contour>
      <point x="176" y="604" type="line"/>
      <point x="44" y="-72" type="line"/>
      <point x="236" y="-72" type="line"/>
      <point x="248" y="0" type="line"/>
      <point x="142" y="0" type="line"/>
      <point x="246" y="532" type="line"/>
      <point x="352" y="532" type="line"/>
      <point x="364" y="604" type="line"/>
    </contour>
  </outline>
</glyph>
<glyph name="bracketright.sc" format="2">
  <advance width="327"/>
  <note>
bracketright.sc
</note>
  <outline>
    <contour>
      <point x="143" y="-72" type="line"/>
      <point x="275" y="604" type="line"/>
      <point x="83" y="604" type="line"/>
      <point x="71" y="532" type="line"/>
      <point x="177" y="532" type="line"/>
      <point x="73" y="0" type="line"/>
      <point x="-33" y="0" type="line"/>
      <point x="-45" y="-72" type="line"/>
    </contour>
  </outline>
</glyph>
<glyph name="bullet.sc" format="2">
  <advance width="480"/>
  <note>
bullet.sc
</note>
  <outline>
    <contour>
      <point x="248" y="132" type="curve" smooth="yes"/>
      <point x="336" y="132"/>
      <point x="412" y="196"/>
      <point x="412" y="296" type="curve" smooth="yes"/>
      <point x="412" y="396"/>
      <point x="336" y="460"/>
      <point x="248" y="460" type="curve" smooth="yes"/>
      <point x="160" y="460"/>
      <point x="84" y="396"/>
      <point x="84" y="296" type="curve" smooth="yes"/>
      <point x="84" y="196"/>
      <point x="160" y="132"/>
    </contour>
  </outline>
</glyph>
<glyph name="c.sc" format="2">
  <advance width="552"/>
  <note>
c.sc
</note>
  <anchor x="310" y="0" name="bottom"/>
  <anchor x="347" y="572" name="top"/>
  <outline>
    <contour>
      <point x="56" y="244" type="curve" smooth="yes"/>
      <point x="56" y="92"/>
      <point x="149" y="-12"/>
      <point x="328" y="-12" type="curve" smooth="yes"/>
      <point x="380" y="-12"/>
      <point x="424" y="0"/>
      <point x="460" y="16" type="curve"/>
      <point x="480" y="100" type="line"/>
      <point x="472" y="100" type="line"/>
      <point x="436" y="80"/>
      <point x="388" y="68"/>
      <point x="348" y="68" type="curve" smooth="yes"/>
      <point x="220" y="68"/>
      <point x="152" y="124"/>
      <point x="152" y="248" type="curve" smooth="yes"/>
      <point x="152" y="392"/>
      <point x="244" y="504"/>
      <point x="396" y="504" type="curve" smooth="yes"/>
      <point x="472" y="504"/>
      <point x="508" y="488"/>
      <point x="540" y="472" type="curve"/>
      <point x="548" y="472" type="line"/>
      <point x="566" y="552" type="line"/>
      <point x="524" y="572"/>
      <point x="468" y="584"/>
      <point x="412" y="584" type="curve" smooth="yes"/>
      <point x="172" y="584"/>
      <point x="56" y="424"/>
    </contour>
  </outline>
</glyph>
<glyph name="cent.inferior" format="2">
  <advance width="397"/>
  <note>
cent.inferior
</note>
  <outline>
    <contour>
      <point x="173" y="-111" type="curve" smooth="yes"/>
      <point x="197" y="-111"/>
      <point x="226" y="-105"/>
      <point x="246" y="-98" type="curve"/>
      <point x="260" y="-33" type="line"/>
      <point x="254" y="-33" type="line"/>
      <point x="236" y="-39"/>
      <point x="214" y="-46"/>
      <point x="187" y="-46" type="curve" smooth="yes"/>
      <point x="132" y="-46"/>
      <point x="100" y="-23"/>
      <point x="100" y="23" type="curve" smooth="yes"/>
      <point x="100" y="98"/>
      <point x="154" y="142"/>
      <point x="225" y="142" type="curve" smooth="yes"/>
      <point x="255" y="142"/>
      <point x="273" y="135"/>
      <point x="286" y="129" type="curve"/>
      <point x="292" y="129" type="line"/>
      <point x="303" y="194" type="line"/>
      <point x="284" y="201"/>
      <point x="255" y="204"/>
      <point x="229" y="204" type="curve" smooth="yes"/>
      <point x="104" y="204"/>
      <point x="15" y="134"/>
      <point x="15" y="18" type="curve" smooth="yes"/>
      <point x="15" y="-73"/>
      <point x="85" y="-111"/>
    </contour>
    <contour>
      <point x="103" y="-196" type="line"/>
      <point x="173" y="-196" type="line"/>
      <point x="193" y="-80" type="line"/>
      <point x="123" y="-80" type="line"/>
    </contour>
    <contour>
      <point x="175" y="178" type="line"/>
      <point x="245" y="180" type="line"/>
      <point x="264" y="285" type="line"/>
      <point x="194" y="285" type="line"/>
    </contour>
  </outline>
</glyph>
<glyph name="comma.inferior" format="2">
  <advance width="218"/>
  <note>
comma.inferior
</note>
  <outline>
    <contour>
      <point x="7" y="-165" type="curve"/>
      <point x="-68" y="-266" type="line"/>
      <point x="-68" y="-272" type="line"/>
      <point x="-1" y="-272" type="line"/>
      <point x="60" y="-184" type="line" smooth="yes"/>
      <point x="76" y="-161"/>
      <point x="92" y="-135"/>
      <point x="92" y="-107" type="curve" smooth="yes"/>
      <point x="92" y="-77"/>
      <point x="74" y="-57"/>
      <point x="43" y="-57" type="curve" smooth="yes"/>
      <point x="9" y="-57"/>
      <point x="-19" y="-87"/>
      <point x="-19" y="-120" type="curve" smooth="yes"/>
      <point x="-19" y="-148"/>
      <point x="-5" y="-159"/>
    </contour>
  </outline>
</glyph>
<glyph name="copyright.sc" format="2">
  <advance width="709"/>
  <note>
copyright.sc
</note>
  <outline>
    <contour>
      <point x="200" y="284" type="curve" smooth="yes"/>
      <point x="200" y="188"/>
      <point x="268" y="124"/>
      <point x="388" y="124" type="curve" smooth="yes"/>
      <point x="417" y="124"/>
      <point x="449" y="129"/>
      <point x="468" y="136" type="curve"/>
      <point x="468" y="190" type="line"/>
      <point x="460" y="190" type="line"/>
      <point x="441" y="182"/>
      <point x="416" y="178"/>
      <point x="388" y="178" type="curve" smooth="yes"/>
      <point x="311" y="178"/>
      <point x="264" y="209"/>
      <point x="264" y="284" type="curve" smooth="yes"/>
      <point x="264" y="357"/>
      <point x="312" y="394"/>
      <point x="388" y="394" type="curve" smooth="yes"/>
      <point x="416" y="394"/>
      <point x="441" y="390"/>
      <point x="460" y="382" type="curve"/>
      <point x="468" y="382" type="line"/>
      <point x="468" y="436" type="line"/>
      <point x="449" y="443"/>
      <point x="417" y="448"/>
      <point x="388" y="448" type="curve" smooth="yes"/>
      <point x="268" y="448"/>
      <point x="200" y="380"/>
    </contour>
    <contour>
      <point x="360" y="44" type="curve" smooth="yes"/>
      <point x="217" y="44"/>
      <point x="120" y="121"/>
      <point x="120" y="286" type="curve" smooth="yes"/>
      <point x="120" y="451"/>
      <point x="217" y="528"/>
      <point x="360" y="528" type="curve" smooth="yes"/>
      <point x="503" y="528"/>
      <point x="600" y="451"/>
      <point x="600" y="286" type="curve" smooth="yes"/>
      <point x="600" y="121"/>
      <point x="503" y="44"/>
    </contour>
    <contour>
      <point x="360" y="-12" type="curve" smooth="yes"/>
      <point x="542" y="-12"/>
      <point x="664" y="100"/>
      <point x="664" y="286" type="curve" smooth="yes"/>
      <point x="664" y="472"/>
      <point x="542" y="584"/>
      <point x="360" y="584" type="curve" smooth="yes"/>
      <point x="178" y="584"/>
      <point x="56" y="472"/>
      <point x="56" y="286" type="curve" smooth="yes"/>
      <point x="56" y="100"/>
      <point x="178" y="-12"/>
    </contour>
  </outline>
</glyph>
<glyph name="d.inferior" format="2">
  <advance width="473"/>
  <note>
d.inferior
</note>
  <guideline x="286" y="118" angle="79.0166"/>
  <outline>
    <contour>
      <point x="174" y="-169" type="curve" smooth="yes"/>
      <point x="231" y="-169"/>
      <point x="277" y="-159"/>
      <point x="324" y="-142" type="curve"/>
      <point x="327" y="-136" type="line"/>
      <point x="328" y="-107"/>
      <point x="333" y="-70"/>
      <point x="339" y="-40" type="curve" smooth="yes"/>
      <point x="423" y="395" type="line"/>
      <point x="335" y="395" type="line"/>
      <point x="331" y="388" type="line"/>
      <point x="332" y="360"/>
      <point x="321" y="300"/>
      <point x="315" y="270" type="curve" smooth="yes"/>
      <point x="256" y="-34" type="line" smooth="yes"/>
      <point x="251" y="-59"/>
      <point x="249" y="-88"/>
      <point x="248" y="-108" type="curve"/>
      <point x="266" y="-84" type="line"/>
      <point x="244" y="-93"/>
      <point x="219" y="-100"/>
      <point x="184" y="-100" type="curve" smooth="yes"/>
      <point x="113" y="-100"/>
      <point x="76" y="-65"/>
      <point x="76" y="6" type="curve" smooth="yes"/>
      <point x="76" y="114"/>
      <point x="138" y="179"/>
      <point x="230" y="179" type="curve" smooth="yes"/>
      <point x="271" y="179"/>
      <point x="292" y="173"/>
      <point x="302" y="164" type="curve"/>
      <point x="318" y="231" type="line"/>
      <point x="301" y="238"/>
      <point x="268" y="247"/>
      <point x="231" y="247" type="curve" smooth="yes"/>
      <point x="82" y="247"/>
      <point x="-10" y="144"/>
      <point x="-10" y="6" type="curve" smooth="yes"/>
      <point x="-10" y="-112"/>
      <point x="66" y="-169"/>
    </contour>
  </outline>
</glyph>
<glyph name="d.sc" format="2">
  <advance width="644"/>
  <note>
d.sc
</note>
  <anchor x="266" y="0" name="bottom"/>
  <anchor x="162" y="290" name="center"/>
  <anchor x="378" y="572" name="top"/>
  <outline>
    <contour>
      <point x="104" y="0" type="line"/>
      <point x="252" y="0" type="line" smooth="yes"/>
      <point x="492" y="0"/>
      <point x="604" y="192"/>
      <point x="604" y="356" type="curve" smooth="yes"/>
      <point x="604" y="488"/>
      <point x="508" y="572"/>
      <point x="348" y="572" type="curve" smooth="yes"/>
      <point x="220" y="572" type="line"/>
      <point x="204" y="492" type="line"/>
      <point x="348" y="492" type="line" smooth="yes"/>
      <point x="452" y="492"/>
      <point x="508" y="448"/>
      <point x="508" y="356" type="curve" smooth="yes"/>
      <point x="508" y="248"/>
      <point x="440" y="80"/>
      <point x="252" y="80" type="curve" smooth="yes"/>
      <point x="120" y="80" type="line"/>
    </contour>
    <contour>
      <point x="44" y="0" type="line"/>
      <point x="136" y="0" type="line"/>
      <point x="248" y="572" type="line"/>
      <point x="156" y="572" type="line"/>
    </contour>
  </outline>
</glyph>
<glyph name="dagger.sc" format="2">
  <advance width="511"/>
  <note>
dagger.sc
</note>
  <outline>
    <contour>
      <point x="124" y="-196" type="line"/>
      <point x="208" y="-196" type="line"/>
      <point x="360" y="572" type="line"/>
      <point x="276" y="572" type="line"/>
    </contour>
    <contour>
      <point x="48" y="296" type="line"/>
      <point x="480" y="296" type="line"/>
      <point x="492" y="368" type="line"/>
      <point x="60" y="368" type="line"/>
    </contour>
  </outline>
</glyph>
<glyph name="dotabove_ar" format="2">
  <advance width="532"/>
  <note>
uniFBB2
</note>
  <anchor x="266" y="538" name="_top"/>
  <anchor x="266" y="748" name="top"/>
  <outline>
    <contour>
      <point x="266" y="640" type="curve" smooth="yes"/>
      <point x="297" y="640"/>
      <point x="320" y="662"/>
      <point x="320" y="694" type="curve" smooth="yes"/>
      <point x="320" y="726"/>
      <point x="297" y="748"/>
      <point x="266" y="748" type="curve" smooth="yes"/>
      <point x="235" y="748"/>
      <point x="212" y="726"/>
      <point x="212" y="694" type="curve" smooth="yes"/>
      <point x="212" y="662"/>
      <point x="235" y="640"/>
    </contour>
  </outline>
</glyph>
<glyph name="e.inferior" format="2">
  <advance width="437"/>
  <note>
e.inferior
</note>
  <outline>
    <contour>
      <point x="185" y="-167" type="curve" smooth="yes"/>
      <point x="231" y="-167"/>
      <point x="274" y="-158"/>
      <point x="299" y="-146" type="curve"/>
      <point x="314" y="-74" type="line"/>
      <point x="307" y="-74" type="line"/>
      <point x="284" y="-86"/>
      <point x="243" y="-97"/>
      <point x="195" y="-97" type="curve" smooth="yes"/>
      <point x="119" y="-97"/>
      <point x="75" y="-63"/>
      <point x="75" y="6" type="curve" smooth="yes"/>
      <point x="75" y="92"/>
      <point x="116" y="180"/>
      <point x="208" y="180" type="curve" smooth="yes"/>
      <point x="266" y="180"/>
      <point x="290" y="151"/>
      <point x="290" y="104" type="curve" smooth="yes"/>
      <point x="290" y="96"/>
      <point x="288" y="84"/>
      <point x="286" y="73" type="curve"/>
      <point x="68" y="73" type="line"/>
      <point x="60" y="12" type="line"/>
      <point x="358" y="12" type="line"/>
      <point x="366" y="39"/>
      <point x="372" y="73"/>
      <point x="372" y="104" type="curve" smooth="yes"/>
      <point x="372" y="188"/>
      <point x="321" y="247"/>
      <point x="212" y="247" type="curve" smooth="yes"/>
      <point x="76" y="247"/>
      <point x="-10" y="133"/>
      <point x="-10" y="3" type="curve" smooth="yes"/>
      <point x="-10" y="-109"/>
      <point x="62" y="-167"/>
    </contour>
  </outline>
</glyph>
<glyph name="e.sc" format="2">
  <advance width="552"/>
  <note>
e.sc
</note>
  <anchor x="244" y="0" name="bottom"/>
  <anchor x="448" y="0" name="ogonek"/>
  <anchor x="332" y="572" name="top"/>
  <anchor x="76" y="572" name="topleft"/>
  <outline>
    <contour>
      <point x="44" y="0" type="line"/>
      <point x="136" y="0" type="line"/>
      <point x="248" y="572" type="line"/>
      <point x="156" y="572" type="line"/>
    </contour>
    <contour>
      <point x="92" y="0" type="line"/>
      <point x="448" y="0" type="line"/>
      <point x="464" y="80" type="line"/>
      <point x="112" y="80" type="line"/>
    </contour>
    <contour>
      <point x="148" y="260" type="line"/>
      <point x="440" y="260" type="line"/>
      <point x="456" y="336" type="line"/>
      <point x="164" y="336" type="line"/>
    </contour>
    <contour>
      <point x="192" y="492" type="line"/>
      <point x="536" y="492" type="line"/>
      <point x="552" y="572" type="line"/>
      <point x="208" y="572" type="line"/>
    </contour>
  </outline>
</glyph>
<glyph name="endash.sc" format="2">
  <advance width="500"/>
  <note>
endash.sc
</note>
  <outline>
    <contour>
      <point x="32" y="336" type="line"/>
      <point x="16" y="256" type="line"/>
      <point x="484" y="256" type="line"/>
      <point x="500" y="336" type="line"/>
    </contour>
  </outline>
</glyph>
<glyph name="equal.sc" format="2">
  <advance width="568"/>
  <note>
equal.sc
</note>
  <outline>
    <contour>
      <point x="80" y="428" type="line"/>
      <point x="80" y="348" type="line"/>
      <point x="504" y="348" type="line"/>
      <point x="504" y="428" type="line"/>
    </contour>
    <contour>
      <point x="80" y="228" type="line"/>
      <point x="80" y="148" type="line"/>
      <point x="504" y="148" type="line"/>
      <point x="504" y="228" type="line"/>
    </contour>
  </outline>
</glyph>
<glyph name="exclamdown.sc" format="2">
  <advance width="304"/>
  <note>
exclamdown.sc
</note>
  <outline>
    <contour>
      <point x="56" y="0" type="line"/>
      <point x="148" y="0" type="line"/>
      <point x="192" y="228" type="line" smooth="yes"/>
      <point x="208" y="309"/>
      <point x="214" y="358"/>
      <point x="216" y="400" type="curve"/>
      <point x="144" y="400" type="line"/>
      <point x="133" y="371"/>
      <point x="117" y="315"/>
      <point x="100" y="228" type="curve" smooth="yes"/>
      <point x="80" y="124" type="line" smooth="yes"/>
      <point x="76" y="103"/>
      <point x="64" y="37"/>
      <point x="52" y="8" type="curve"/>
    </contour>
    <contour>
      <point x="192" y="464" type="curve" smooth="yes"/>
      <point x="233" y="464"/>
      <point x="256" y="498"/>
      <point x="256" y="532" type="curve"/>
      <point x="255" y="561"/>
      <point x="238" y="580"/>
      <point x="204" y="580" type="curve" smooth="yes"/>
      <point x="165" y="580"/>
      <point x="139" y="545"/>
      <point x="140" y="512" type="curve" smooth="yes"/>
      <point x="140" y="482"/>
      <point x="160" y="464"/>
    </contour>
  </outline>
</glyph>
<glyph name="f.sc" format="2">
  <advance width="520"/>
  <note>
f.sc
</note>
  <anchor x="204" y="0" name="bottom"/>
  <anchor x="316" y="572" name="top"/>
  <outline>
    <contour>
      <point x="156" y="292" type="line"/>
      <point x="140" y="216" type="line"/>
      <point x="420" y="216" type="line"/>
      <point x="436" y="292" type="line"/>
    </contour>
    <contour>
      <point x="204" y="572" type="line"/>
      <point x="188" y="492" type="line"/>
      <point x="520" y="492" type="line"/>
      <point x="536" y="572" type="line"/>
    </contour>
    <contour>
      <point x="136" y="0" type="line"/>
      <point x="248" y="572" type="line"/>
      <point x="156" y="572" type="line"/>
      <point x="44" y="0" type="line"/>
    </contour>
  </outline>
</glyph>
<glyph name="f_j" format="2">
  <advance width="619"/>
  <note>
f_j
</note>
  <anchor x="285" y="0" name="caret_1"/>
  <outline>
    <contour>
      <point x="482" y="544" type="line"/>
      <point x="366" y="-52" type="line" smooth="yes"/>
      <point x="352" y="-124"/>
      <point x="318" y="-160"/>
      <point x="246" y="-160" type="curve" smooth="yes"/>
      <point x="222" y="-160"/>
      <point x="200" y="-156"/>
      <point x="178" y="-148" type="curve"/>
      <point x="170" y="-148" type="line"/>
      <point x="154" y="-228" type="line"/>
      <point x="168" y="-234"/>
      <point x="202" y="-240"/>
      <point x="238" y="-240" type="curve" smooth="yes"/>
      <point x="378" y="-240"/>
      <point x="438" y="-156"/>
      <point x="458" y="-52" type="curve" smooth="yes"/>
      <point x="574" y="544" type="line"/>
    </contour>
    <contour>
      <point x="546" y="640" type="curve" smooth="yes"/>
      <point x="582" y="640"/>
      <point x="618" y="668"/>
      <point x="618" y="712" type="curve" smooth="yes"/>
      <point x="618" y="740"/>
      <point x="598" y="760"/>
      <point x="566" y="760" type="curve" smooth="yes"/>
      <point x="530" y="760"/>
      <point x="494" y="732"/>
      <point x="494" y="688" type="curve" smooth="yes"/>
      <point x="494" y="660"/>
      <point x="514" y="640"/>
    </contour>
    <component base="_part.f.liga"/>
  </outline>
</glyph>
<glyph name="fehDotless-ar.fina" format="2">
  <advance width="1168"/>
  <note>
uni06A1.fina
</note>
  <anchor x="556" y="0" name="bottom"/>
  <anchor x="852" y="510" name="top"/>
  <outline>
    <contour>
      <point x="862" y="516" type="curve" smooth="yes"/>
      <point x="717" y="516"/>
      <point x="624" y="419"/>
      <point x="624" y="318" type="curve" smooth="yes"/>
      <point x="624" y="211"/>
      <point x="693" y="122"/>
      <point x="779" y="65" type="curve"/>
      <point x="796" y="85" type="line"/>
      <point x="556" y="85" type="line" smooth="yes"/>
      <point x="417" y="85"/>
      <point x="273" y="87"/>
      <point x="176" y="115" type="curve" smooth="yes"/>
      <point x="153" y="122"/>
      <point x="96" y="139"/>
      <point x="74" y="150" type="curve"/>
      <point x="66" y="150" type="line"/>
      <point x="48" y="69" type="line"/>
      <point x="73" y="58"/>
      <point x="108" y="46"/>
      <point x="147" y="35" type="curve" smooth="yes"/>
      <point x="274" y="0"/>
      <point x="421" y="0"/>
      <point x="556" y="0" type="curve" smooth="yes"/>
      <point x="772" y="0" type="line" smooth="yes"/>
      <point x="811" y="0"/>
      <point x="854" y="11"/>
      <point x="896" y="29" type="curve"/>
      <point x="846" y="29" type="line"/>
      <point x="889" y="11"/>
      <point x="933" y="0"/>
      <point x="973" y="0" type="curve" smooth="yes"/>
      <point x="1168" y="0" type="line"/>
      <point x="1188" y="20" type="line"/>
      <point x="1187" y="85" type="line"/>
      <point x="940" y="85" type="line"/>
      <point x="958" y="65" type="line"/>
      <point x="1036" y="119"/>
      <point x="1096" y="203"/>
      <point x="1096" y="304" type="curve" smooth="yes"/>
      <point x="1096" y="421"/>
      <point x="1002" y="516"/>
    </contour>
    <contour>
      <point x="688" y="325" type="line"/>
      <point x="713" y="395"/>
      <point x="788" y="436"/>
      <point x="854" y="436" type="curve" smooth="yes"/>
      <point x="952" y="436"/>
      <point x="1004" y="353"/>
      <point x="1004" y="280" type="curve" smooth="yes"/>
      <point x="1004" y="191"/>
      <point x="929" y="113"/>
      <point x="858" y="87" type="curve"/>
      <point x="894" y="89" type="line"/>
      <point x="821" y="119"/>
      <point x="690" y="210"/>
      <point x="699" y="383" type="curve"/>
    </contour>
  </outline>
</glyph>
<glyph name="feh_yeh-ar" format="2">
  <advance width="920"/>
  <note>
uni0641064A
</note>
  <anchor x="796" y="-256" name="bottom_1"/>
  <anchor x="236" y="-256" name="bottom_2"/>
  <anchor x="624" y="720" name="top_1"/>
  <anchor x="176" y="85" name="top_2"/>
  <outline>
    <contour>
      <point x="304" y="85" type="line"/>
      <point x="284" y="65" type="line"/>
      <point x="284" y="0" type="line"/>
      <point x="636" y="0" type="line" smooth="yes"/>
      <point x="720" y="0"/>
      <point x="780" y="8"/>
      <point x="820" y="24" type="curve"/>
      <point x="824" y="32" type="line"/>
      <point x="824" y="316" type="line" smooth="yes"/>
      <point x="824" y="356"/>
      <point x="824" y="440"/>
      <point x="832" y="476" type="curve"/>
      <point x="828" y="484" type="line"/>
      <point x="746" y="509"/>
      <point x="699" y="516"/>
      <point x="640" y="516" type="curve" smooth="yes"/>
      <point x="472" y="516"/>
      <point x="372" y="417"/>
      <point x="372" y="280" type="curve" smooth="yes"/>
      <point x="372" y="186"/>
      <point x="427" y="109"/>
      <point x="501" y="67" type="curve"/>
      <point x="518" y="85" type="line"/>
    </contour>
    <contour>
      <point x="464" y="292" type="curve" smooth="yes"/>
      <point x="464" y="375"/>
      <point x="529" y="436"/>
      <point x="633" y="436" type="curve" smooth="yes"/>
      <point x="696" y="436"/>
      <point x="716" y="426"/>
      <point x="756" y="414" type="curve"/>
      <point x="740" y="439" type="line"/>
      <point x="734" y="418"/>
      <point x="732" y="388"/>
      <point x="732" y="352" type="curve" smooth="yes"/>
      <point x="732" y="42" type="line"/>
      <point x="766" y="86" type="line"/>
      <point x="574" y="75"/>
      <point x="464" y="152"/>
    </contour>
    <contour>
      <point x="624" y="612" type="curve" smooth="yes"/>
      <point x="655" y="612"/>
      <point x="678" y="634"/>
      <point x="678" y="666" type="curve" smooth="yes"/>
      <point x="678" y="698"/>
      <point x="655" y="720"/>
      <point x="624" y="720" type="curve" smooth="yes"/>
      <point x="593" y="720"/>
      <point x="570" y="698"/>
      <point x="570" y="666" type="curve" smooth="yes"/>
      <point x="570" y="634"/>
      <point x="593" y="612"/>
    </contour>
    <contour>
      <point x="716" y="-184" type="curve" smooth="yes"/>
      <point x="716" y="-216"/>
      <point x="739" y="-238"/>
      <point x="770" y="-238" type="curve" smooth="yes"/>
      <point x="801" y="-238"/>
      <point x="824" y="-216"/>
      <point x="824" y="-184" type="curve" smooth="yes"/>
      <point x="824" y="-152"/>
      <point x="801" y="-130"/>
      <point x="770" y="-130" type="curve" smooth="yes"/>
      <point x="739" y="-130"/>
      <point x="716" y="-152"/>
    </contour>
    <contour>
      <point x="585" y="-202" type="curve" smooth="yes"/>
      <point x="585" y="-234"/>
      <point x="608" y="-256"/>
      <point x="639" y="-256" type="curve" smooth="yes"/>
      <point x="670" y="-256"/>
      <point x="693" y="-234"/>
      <point x="693" y="-202" type="curve" smooth="yes"/>
      <point x="693" y="-170"/>
      <point x="670" y="-148"/>
      <point x="639" y="-148" type="curve" smooth="yes"/>
      <point x="608" y="-148"/>
      <point x="585" y="-170"/>
    </contour>
    <contour>
      <point x="652" y="85" type="line"/>
      <point x="304" y="85" type="line" smooth="yes"/>
      <point x="81" y="85"/>
      <point x="20" y="-30"/>
      <point x="20" y="-104" type="curve" smooth="yes"/>
      <point x="20" y="-202"/>
      <point x="131" y="-256"/>
      <point x="236" y="-256" type="curve" smooth="yes"/>
      <point x="478" y="-256" type="line"/>
      <point x="506" y="-179" type="line"/>
      <point x="506" y="-171" type="line"/>
      <point x="288" y="-171" type="line" smooth="yes"/>
      <point x="167" y="-171"/>
      <point x="91" y="-155"/>
      <point x="73" y="-84" type="curve"/>
      <point x="85" y="-126" type="line"/>
      <point x="97" y="-50"/>
      <point x="149" y="0"/>
      <point x="284" y="0" type="curve" smooth="yes"/>
      <point x="632" y="0" type="line"/>
      <point x="652" y="20" type="line"/>
    </contour>
  </outline>
</glyph>
<glyph name="five.tsc" format="2">
  <advance width="568"/>
  <note>
five.sc
</note>
  <outline>
    <contour>
      <point x="44" y="104" type="line"/>
      <point x="32" y="24" type="line"/>
      <point x="66" y="6"/>
      <point x="136" y="-12"/>
      <point x="208" y="-12" type="curve" smooth="yes"/>
      <point x="384" y="-12"/>
      <point x="476" y="72"/>
      <point x="476" y="184" type="curve" smooth="yes"/>
      <point x="476" y="280"/>
      <point x="404" y="348"/>
      <point x="268" y="348" type="curve" smooth="yes"/>
      <point x="236" y="348"/>
      <point x="204" y="344"/>
      <point x="180" y="336" type="curve"/>
      <point x="196" y="308" type="line"/>
      <point x="224" y="452" type="line" smooth="yes"/>
      <point x="228" y="472"/>
      <point x="228" y="496"/>
      <point x="228" y="520" type="curve"/>
      <point x="200" y="492" type="line"/>
      <point x="508" y="492" type="line"/>
      <point x="524" y="572" type="line"/>
      <point x="276" y="572" type="line" smooth="yes"/>
      <point x="216" y="572"/>
      <point x="184" y="570"/>
      <point x="156" y="564" type="curve"/>
      <point x="152" y="556" type="line"/>
      <point x="152" y="524"/>
      <point x="140" y="468"/>
      <point x="132" y="428" type="curve" smooth="yes"/>
      <point x="100" y="260" type="line"/>
      <point x="104" y="256" type="line"/>
      <point x="132" y="264"/>
      <point x="188" y="276"/>
      <point x="248" y="276" type="curve" smooth="yes"/>
      <point x="340" y="276"/>
      <point x="384" y="244"/>
      <point x="384" y="184" type="curve" smooth="yes"/>
      <point x="384" y="124"/>
      <point x="336" y="68"/>
      <point x="204" y="68" type="curve" smooth="yes"/>
      <point x="136" y="68"/>
      <point x="83" y="85"/>
      <point x="52" y="104" type="curve"/>
    </contour>
  </outline>
</glyph>
<glyph name="four-persian.urdu" format="2">
  <advance width="612"/>
  <note>
uni06F4.urdu
</note>
  <outline>
    <contour>
      <point x="138" y="0" type="line"/>
      <point x="236" y="0" type="line"/>
      <point x="236" y="4" type="line"/>
      <point x="136" y="408" type="line" smooth="yes"/>
      <point x="117" y="485"/>
      <point x="108" y="540"/>
      <point x="108" y="580" type="curve" smooth="yes"/>
      <point x="108" y="642"/>
      <point x="130" y="677"/>
      <point x="169" y="713" type="curve"/>
      <point x="132" y="707" type="line"/>
      <point x="231" y="648"/>
      <point x="270" y="549"/>
      <point x="304" y="380" type="curve"/>
      <point x="404" y="364" type="line"/>
      <point x="439" y="477"/>
      <point x="488" y="596"/>
      <point x="572" y="700" type="curve"/>
      <point x="520" y="752" type="line"/>
      <point x="518" y="752" type="line"/>
      <point x="423" y="645"/>
      <point x="381" y="532"/>
      <point x="360" y="446" type="curve"/>
      <point x="373" y="428" type="line"/>
      <point x="360" y="488" type="line" smooth="yes"/>
      <point x="331" y="631"/>
      <point x="261" y="760"/>
      <point x="164" y="760" type="curve" smooth="yes"/>
      <point x="69" y="760"/>
      <point x="24" y="677"/>
      <point x="24" y="560" type="curve" smooth="yes"/>
      <point x="24" y="512"/>
      <point x="34" y="459"/>
      <point x="48" y="396" type="curve" smooth="yes"/>
    </contour>
  </outline>
</glyph>
<glyph name="four.tsc" format="2">
  <advance width="568"/>
  <note>
four.sc
</note>
  <guideline x="84" y="302" angle="241.7826"/>
  <guideline x="350" y="232" angle="78.7851"/>
  <outline>
    <contour>
      <point x="396" y="0" type="line"/>
      <point x="480" y="444" type="line" smooth="yes"/>
      <point x="486" y="476"/>
      <point x="499" y="529"/>
      <point x="512" y="560" type="curve"/>
      <point x="512" y="568" type="line"/>
      <point x="484" y="576"/>
      <point x="448" y="580"/>
      <point x="404" y="580" type="curve" smooth="yes"/>
      <point x="269" y="580"/>
      <point x="201" y="520"/>
      <point x="128" y="384" type="curve" smooth="yes"/>
      <point x="40" y="220" type="line"/>
      <point x="24" y="148" type="line"/>
      <point x="512" y="148" type="line"/>
      <point x="528" y="228" type="line"/>
      <point x="108" y="228" type="line"/>
      <point x="128" y="208" type="line"/>
      <point x="216" y="376" type="line" smooth="yes"/>
      <point x="265" y="471"/>
      <point x="311" y="504"/>
      <point x="388" y="504" type="curve" smooth="yes"/>
      <point x="400" y="504"/>
      <point x="412" y="504"/>
      <point x="428" y="496" type="curve"/>
      <point x="420" y="524" type="line"/>
      <point x="404" y="508"/>
      <point x="401" y="488"/>
      <point x="396" y="464" type="curve"/>
      <point x="304" y="0" type="line"/>
    </contour>
  </outline>
</glyph>
<glyph name="fourdotsabove_ar" format="2">
  <advance width="532"/>
  <note>
uniFBBA
</note>
  <anchor x="255" y="591" name="_top"/>
  <anchor x="254" y="944" name="top"/>
  <outline>
    <contour>
      <point x="245" y="838" type="curve" smooth="yes"/>
      <point x="245" y="806"/>
      <point x="268" y="784"/>
      <point x="299" y="784" type="curve" smooth="yes"/>
      <point x="330" y="784"/>
      <point x="353" y="806"/>
      <point x="353" y="838" type="curve" smooth="yes"/>
      <point x="353" y="870"/>
      <point x="330" y="892"/>
      <point x="299" y="892" type="curve" smooth="yes"/>
      <point x="268" y="892"/>
      <point x="245" y="870"/>
    </contour>
    <contour>
      <point x="114" y="820" type="curve" smooth="yes"/>
      <point x="114" y="788"/>
      <point x="137" y="766"/>
      <point x="168" y="766" type="curve" smooth="yes"/>
      <point x="199" y="766"/>
      <point x="222" y="788"/>
      <point x="222" y="820" type="curve" smooth="yes"/>
      <point x="222" y="852"/>
      <point x="199" y="874"/>
      <point x="168" y="874" type="curve" smooth="yes"/>
      <point x="137" y="874"/>
      <point x="114" y="852"/>
    </contour>
    <contour>
      <point x="277" y="706" type="curve" smooth="yes"/>
      <point x="277" y="674"/>
      <point x="300" y="652"/>
      <point x="331" y="652" type="curve" smooth="yes"/>
      <point x="362" y="652"/>
      <point x="385" y="674"/>
      <point x="385" y="706" type="curve" smooth="yes"/>
      <point x="385" y="738"/>
      <point x="362" y="760"/>
      <point x="331" y="760" type="curve" smooth="yes"/>
      <point x="300" y="760"/>
      <point x="277" y="738"/>
    </contour>
    <contour>
      <point x="146" y="688" type="curve" smooth="yes"/>
      <point x="146" y="656"/>
      <point x="169" y="634"/>
      <point x="200" y="634" type="curve" smooth="yes"/>
      <point x="231" y="634"/>
      <point x="254" y="656"/>
      <point x="254" y="688" type="curve" smooth="yes"/>
      <point x="254" y="720"/>
      <point x="231" y="742"/>
      <point x="200" y="742" type="curve" smooth="yes"/>
      <point x="169" y="742"/>
      <point x="146" y="720"/>
    </contour>
  </outline>
</glyph>
